M48
; DRILL file {KiCad (5.1.10)-1} date 03/29/22 20:22:56
; FORMAT={-:-/ absolute / inch / decimal}
; #@! TF.CreationDate,2022-03-29T20:22:56-05:00
; #@! TF.GenerationSoftware,Kicad,Pcbnew,(5.1.10)-1
; #@! TF.FileFunction,Plated,1,2,PTH
FMAT,2
INCH
T1C0.0157
T2C0.0394
T3C0.1378
%
G90
G05
T1
X2.2375Y-4.46
X2.6112Y-2.5088
X2.7288Y-2.6162
X2.8237Y-2.7088
X2.9262Y-2.8088
X3.0287Y-2.9088
X3.1312Y-3.0088
X3.2287Y-3.1088
X3.34Y-3.215
X3.4362Y-3.3088
X3.5462Y-3.6088
X3.6412Y-3.7088
X3.7487Y-3.8088
X3.8662Y-3.9088
X3.9512Y-4.0088
X4.0537Y-4.1088
X4.1462Y-4.2088
X4.2362Y-4.3088
X4.3525Y-4.37
X4.57Y-4.4325
T2
X2.1325Y-2.4625
X2.1325Y-2.5625
X2.1325Y-2.6625
X2.1325Y-2.7625
X2.1325Y-2.8625
X2.1325Y-2.9625
X2.1325Y-3.0625
X2.1325Y-3.1625
X2.1325Y-3.2625
X2.1325Y-3.3625
X2.1325Y-3.4625
X2.1325Y-3.5625
X2.1325Y-3.6625
X2.1325Y-3.7625
X2.1325Y-3.8625
X2.1325Y-3.9625
X2.1325Y-4.0625
X2.1325Y-4.1625
X2.1325Y-4.2625
X2.1325Y-4.3625
X2.2325Y-2.4625
X2.2325Y-2.5625
X2.2325Y-2.6625
X2.2325Y-2.7625
X2.2325Y-2.8625
X2.2325Y-2.9625
X2.2325Y-3.0625
X2.2325Y-3.1625
X2.2325Y-3.2625
X2.2325Y-3.3625
X2.2325Y-3.4625
X2.2325Y-3.5625
X2.2325Y-3.6625
X2.2325Y-3.7625
X2.2325Y-3.8625
X2.2325Y-3.9625
X2.2325Y-4.0625
X2.2325Y-4.1625
X2.2325Y-4.2625
X2.2325Y-4.3625
X2.64Y-4.515
X2.74Y-4.515
X2.84Y-4.515
X2.94Y-4.515
X3.04Y-4.515
X3.14Y-4.515
X3.24Y-4.515
X3.34Y-4.515
X3.44Y-4.515
X3.4575Y-2.385
X3.54Y-4.515
X3.5575Y-2.385
X3.64Y-4.515
X3.74Y-4.515
X3.84Y-4.515
X3.94Y-4.515
X4.04Y-4.515
X4.14Y-4.515
X4.24Y-4.515
X4.34Y-4.515
X4.44Y-4.515
X4.875Y-2.47
X4.875Y-2.57
X4.875Y-2.67
X4.875Y-2.77
X4.875Y-2.87
X4.875Y-2.97
X4.875Y-3.07
X4.875Y-3.17
X4.875Y-3.27
X4.875Y-3.37
X4.875Y-3.47
X4.875Y-3.57
X4.875Y-3.67
X4.875Y-3.77
X4.875Y-3.87
X4.875Y-3.97
X4.875Y-4.07
X4.875Y-4.17
X4.875Y-4.27
X4.875Y-4.37
X4.975Y-2.47
X4.975Y-2.57
X4.975Y-2.67
X4.975Y-2.77
X4.975Y-2.87
X4.975Y-2.97
X4.975Y-3.07
X4.975Y-3.17
X4.975Y-3.27
X4.975Y-3.37
X4.975Y-3.47
X4.975Y-3.57
X4.975Y-3.67
X4.975Y-3.77
X4.975Y-3.87
X4.975Y-3.97
X4.975Y-4.07
X4.975Y-4.17
X4.975Y-4.27
X4.975Y-4.37
T3
X1.9075Y-5.06
X1.9225Y-2.21
X5.0425Y-2.225
X5.0725Y-5.0525
T0
M30
