%TF.GenerationSoftware,KiCad,Pcbnew,(5.1.10)-1*%
%TF.CreationDate,2022-03-29T20:22:55-05:00*%
%TF.ProjectId,FMT Rescue,464d5420-5265-4736-9375-652e6b696361,rev?*%
%TF.SameCoordinates,Original*%
%TF.FileFunction,Soldermask,Bot*%
%TF.FilePolarity,Negative*%
%FSLAX46Y46*%
G04 Gerber Fmt 4.6, Leading zero omitted, Abs format (unit mm)*
G04 Created by KiCad (PCBNEW (5.1.10)-1) date 2022-03-29 20:22:55*
%MOMM*%
%LPD*%
G01*
G04 APERTURE LIST*
%ADD10O,1.700000X1.700000*%
%ADD11R,1.700000X1.700000*%
%ADD12C,7.000000*%
G04 APERTURE END LIST*
D10*
%TO.C,J3*%
X112776000Y-114681000D03*
X110236000Y-114681000D03*
X107696000Y-114681000D03*
X105156000Y-114681000D03*
X102616000Y-114681000D03*
X100076000Y-114681000D03*
X97536000Y-114681000D03*
X94996000Y-114681000D03*
X92456000Y-114681000D03*
X89916000Y-114681000D03*
X87376000Y-114681000D03*
X84836000Y-114681000D03*
X82296000Y-114681000D03*
X79756000Y-114681000D03*
X77216000Y-114681000D03*
X74676000Y-114681000D03*
X72136000Y-114681000D03*
X69596000Y-114681000D03*
D11*
X67056000Y-114681000D03*
%TD*%
D12*
%TO.C,REF\u002A\u002A*%
X48831500Y-56134000D03*
%TD*%
%TO.C,REF\u002A\u002A*%
X128841500Y-128333500D03*
%TD*%
%TO.C,REF\u002A\u002A*%
X48450500Y-128524000D03*
%TD*%
%TO.C,REF\u002A\u002A*%
X128079500Y-56515000D03*
%TD*%
D10*
%TO.C,PWR1*%
X90360500Y-60579000D03*
D11*
X87820500Y-60579000D03*
%TD*%
D10*
%TO.C,J2*%
X126365000Y-110998000D03*
X123825000Y-110998000D03*
X126365000Y-108458000D03*
X123825000Y-108458000D03*
X126365000Y-105918000D03*
X123825000Y-105918000D03*
X126365000Y-103378000D03*
X123825000Y-103378000D03*
X126365000Y-100838000D03*
X123825000Y-100838000D03*
X126365000Y-98298000D03*
X123825000Y-98298000D03*
X126365000Y-95758000D03*
X123825000Y-95758000D03*
X126365000Y-93218000D03*
X123825000Y-93218000D03*
X126365000Y-90678000D03*
X123825000Y-90678000D03*
X126365000Y-88138000D03*
X123825000Y-88138000D03*
X126365000Y-85598000D03*
X123825000Y-85598000D03*
X126365000Y-83058000D03*
X123825000Y-83058000D03*
X126365000Y-80518000D03*
X123825000Y-80518000D03*
X126365000Y-77978000D03*
X123825000Y-77978000D03*
X126365000Y-75438000D03*
X123825000Y-75438000D03*
X126365000Y-72898000D03*
X123825000Y-72898000D03*
X126365000Y-70358000D03*
X123825000Y-70358000D03*
X126365000Y-67818000D03*
X123825000Y-67818000D03*
X126365000Y-65278000D03*
X123825000Y-65278000D03*
X126365000Y-62738000D03*
D11*
X123825000Y-62738000D03*
%TD*%
D10*
%TO.C,J1*%
X56705500Y-110807500D03*
X54165500Y-110807500D03*
X56705500Y-108267500D03*
X54165500Y-108267500D03*
X56705500Y-105727500D03*
X54165500Y-105727500D03*
X56705500Y-103187500D03*
X54165500Y-103187500D03*
X56705500Y-100647500D03*
X54165500Y-100647500D03*
X56705500Y-98107500D03*
X54165500Y-98107500D03*
X56705500Y-95567500D03*
X54165500Y-95567500D03*
X56705500Y-93027500D03*
X54165500Y-93027500D03*
X56705500Y-90487500D03*
X54165500Y-90487500D03*
X56705500Y-87947500D03*
X54165500Y-87947500D03*
X56705500Y-85407500D03*
X54165500Y-85407500D03*
X56705500Y-82867500D03*
X54165500Y-82867500D03*
X56705500Y-80327500D03*
X54165500Y-80327500D03*
X56705500Y-77787500D03*
X54165500Y-77787500D03*
X56705500Y-75247500D03*
X54165500Y-75247500D03*
X56705500Y-72707500D03*
X54165500Y-72707500D03*
X56705500Y-70167500D03*
X54165500Y-70167500D03*
X56705500Y-67627500D03*
X54165500Y-67627500D03*
X56705500Y-65087500D03*
X54165500Y-65087500D03*
X56705500Y-62547500D03*
D11*
X54165500Y-62547500D03*
%TD*%
M02*
