%TF.GenerationSoftware,KiCad,Pcbnew,(5.1.10)-1*%
%TF.CreationDate,2022-03-29T20:22:55-05:00*%
%TF.ProjectId,FMT Rescue,464d5420-5265-4736-9375-652e6b696361,rev?*%
%TF.SameCoordinates,Original*%
%TF.FileFunction,Copper,L1,Top*%
%TF.FilePolarity,Positive*%
%FSLAX46Y46*%
G04 Gerber Fmt 4.6, Leading zero omitted, Abs format (unit mm)*
G04 Created by KiCad (PCBNEW (5.1.10)-1) date 2022-03-29 20:22:55*
%MOMM*%
%LPD*%
G01*
G04 APERTURE LIST*
%TA.AperFunction,ComponentPad*%
%ADD10O,1.700000X1.700000*%
%TD*%
%TA.AperFunction,ComponentPad*%
%ADD11R,1.700000X1.700000*%
%TD*%
%TA.AperFunction,ComponentPad*%
%ADD12C,7.000000*%
%TD*%
%TA.AperFunction,ViaPad*%
%ADD13C,0.800000*%
%TD*%
%TA.AperFunction,Conductor*%
%ADD14C,0.250000*%
%TD*%
%TA.AperFunction,Conductor*%
%ADD15C,0.254000*%
%TD*%
%TA.AperFunction,Conductor*%
%ADD16C,0.100000*%
%TD*%
G04 APERTURE END LIST*
D10*
%TO.P,J3,19*%
%TO.N,/40*%
X112776000Y-114681000D03*
%TO.P,J3,18*%
%TO.N,/39*%
X110236000Y-114681000D03*
%TO.P,J3,17*%
%TO.N,/37*%
X107696000Y-114681000D03*
%TO.P,J3,16*%
%TO.N,/35*%
X105156000Y-114681000D03*
%TO.P,J3,15*%
%TO.N,/33*%
X102616000Y-114681000D03*
%TO.P,J3,14*%
%TO.N,/31*%
X100076000Y-114681000D03*
%TO.P,J3,13*%
%TO.N,/29*%
X97536000Y-114681000D03*
%TO.P,J3,12*%
%TO.N,/27*%
X94996000Y-114681000D03*
%TO.P,J3,11*%
%TO.N,/25*%
X92456000Y-114681000D03*
%TO.P,J3,10*%
%TO.N,/23*%
X89916000Y-114681000D03*
%TO.P,J3,9*%
%TO.N,/17*%
X87376000Y-114681000D03*
%TO.P,J3,8*%
%TO.N,/15*%
X84836000Y-114681000D03*
%TO.P,J3,7*%
%TO.N,/13*%
X82296000Y-114681000D03*
%TO.P,J3,6*%
%TO.N,/11*%
X79756000Y-114681000D03*
%TO.P,J3,5*%
%TO.N,/9*%
X77216000Y-114681000D03*
%TO.P,J3,4*%
%TO.N,/7*%
X74676000Y-114681000D03*
%TO.P,J3,3*%
%TO.N,/5*%
X72136000Y-114681000D03*
%TO.P,J3,2*%
%TO.N,/3*%
X69596000Y-114681000D03*
D11*
%TO.P,J3,1*%
%TO.N,/1*%
X67056000Y-114681000D03*
%TD*%
D12*
%TO.P,REF\u002A\u002A,1*%
%TO.N,N/C*%
X48831500Y-56134000D03*
%TD*%
%TO.P,REF\u002A\u002A,1*%
%TO.N,N/C*%
X128841500Y-128333500D03*
%TD*%
%TO.P,REF\u002A\u002A,1*%
%TO.N,N/C*%
X48450500Y-128524000D03*
%TD*%
%TO.P,REF\u002A\u002A,1*%
%TO.N,N/C*%
X128079500Y-56515000D03*
%TD*%
D10*
%TO.P,PWR1,2*%
%TO.N,+12V*%
X90360500Y-60579000D03*
D11*
%TO.P,PWR1,1*%
%TO.N,GND*%
X87820500Y-60579000D03*
%TD*%
D10*
%TO.P,J2,40*%
%TO.N,/40*%
X126365000Y-110998000D03*
%TO.P,J2,39*%
%TO.N,/39*%
X123825000Y-110998000D03*
%TO.P,J2,38*%
%TO.N,GND*%
X126365000Y-108458000D03*
%TO.P,J2,37*%
%TO.N,/37*%
X123825000Y-108458000D03*
%TO.P,J2,36*%
%TO.N,GND*%
X126365000Y-105918000D03*
%TO.P,J2,35*%
%TO.N,/35*%
X123825000Y-105918000D03*
%TO.P,J2,34*%
%TO.N,GND*%
X126365000Y-103378000D03*
%TO.P,J2,33*%
%TO.N,/33*%
X123825000Y-103378000D03*
%TO.P,J2,32*%
%TO.N,GND*%
X126365000Y-100838000D03*
%TO.P,J2,31*%
%TO.N,/31*%
X123825000Y-100838000D03*
%TO.P,J2,30*%
%TO.N,GND*%
X126365000Y-98298000D03*
%TO.P,J2,29*%
%TO.N,/29*%
X123825000Y-98298000D03*
%TO.P,J2,28*%
%TO.N,GND*%
X126365000Y-95758000D03*
%TO.P,J2,27*%
%TO.N,/27*%
X123825000Y-95758000D03*
%TO.P,J2,26*%
%TO.N,GND*%
X126365000Y-93218000D03*
%TO.P,J2,25*%
%TO.N,/25*%
X123825000Y-93218000D03*
%TO.P,J2,24*%
%TO.N,GND*%
X126365000Y-90678000D03*
%TO.P,J2,23*%
%TO.N,/23*%
X123825000Y-90678000D03*
%TO.P,J2,22*%
%TO.N,GND*%
X126365000Y-88138000D03*
%TO.P,J2,21*%
%TO.N,+12V*%
X123825000Y-88138000D03*
%TO.P,J2,20*%
%TO.N,GND*%
X126365000Y-85598000D03*
%TO.P,J2,19*%
%TO.N,+12V*%
X123825000Y-85598000D03*
%TO.P,J2,18*%
%TO.N,GND*%
X126365000Y-83058000D03*
%TO.P,J2,17*%
%TO.N,/17*%
X123825000Y-83058000D03*
%TO.P,J2,16*%
%TO.N,GND*%
X126365000Y-80518000D03*
%TO.P,J2,15*%
%TO.N,/15*%
X123825000Y-80518000D03*
%TO.P,J2,14*%
%TO.N,GND*%
X126365000Y-77978000D03*
%TO.P,J2,13*%
%TO.N,/13*%
X123825000Y-77978000D03*
%TO.P,J2,12*%
%TO.N,GND*%
X126365000Y-75438000D03*
%TO.P,J2,11*%
%TO.N,/11*%
X123825000Y-75438000D03*
%TO.P,J2,10*%
%TO.N,GND*%
X126365000Y-72898000D03*
%TO.P,J2,9*%
%TO.N,/9*%
X123825000Y-72898000D03*
%TO.P,J2,8*%
%TO.N,GND*%
X126365000Y-70358000D03*
%TO.P,J2,7*%
%TO.N,/7*%
X123825000Y-70358000D03*
%TO.P,J2,6*%
%TO.N,GND*%
X126365000Y-67818000D03*
%TO.P,J2,5*%
%TO.N,/5*%
X123825000Y-67818000D03*
%TO.P,J2,4*%
%TO.N,GND*%
X126365000Y-65278000D03*
%TO.P,J2,3*%
%TO.N,/3*%
X123825000Y-65278000D03*
%TO.P,J2,2*%
%TO.N,GND*%
X126365000Y-62738000D03*
D11*
%TO.P,J2,1*%
%TO.N,/1*%
X123825000Y-62738000D03*
%TD*%
D10*
%TO.P,J1,40*%
%TO.N,/40*%
X56705500Y-110807500D03*
%TO.P,J1,39*%
%TO.N,/39*%
X54165500Y-110807500D03*
%TO.P,J1,38*%
%TO.N,GND*%
X56705500Y-108267500D03*
%TO.P,J1,37*%
%TO.N,/37*%
X54165500Y-108267500D03*
%TO.P,J1,36*%
%TO.N,GND*%
X56705500Y-105727500D03*
%TO.P,J1,35*%
%TO.N,/35*%
X54165500Y-105727500D03*
%TO.P,J1,34*%
%TO.N,GND*%
X56705500Y-103187500D03*
%TO.P,J1,33*%
%TO.N,/33*%
X54165500Y-103187500D03*
%TO.P,J1,32*%
%TO.N,GND*%
X56705500Y-100647500D03*
%TO.P,J1,31*%
%TO.N,/31*%
X54165500Y-100647500D03*
%TO.P,J1,30*%
%TO.N,GND*%
X56705500Y-98107500D03*
%TO.P,J1,29*%
%TO.N,/29*%
X54165500Y-98107500D03*
%TO.P,J1,28*%
%TO.N,GND*%
X56705500Y-95567500D03*
%TO.P,J1,27*%
%TO.N,/27*%
X54165500Y-95567500D03*
%TO.P,J1,26*%
%TO.N,GND*%
X56705500Y-93027500D03*
%TO.P,J1,25*%
%TO.N,/25*%
X54165500Y-93027500D03*
%TO.P,J1,24*%
%TO.N,GND*%
X56705500Y-90487500D03*
%TO.P,J1,23*%
%TO.N,/23*%
X54165500Y-90487500D03*
%TO.P,J1,22*%
%TO.N,GND*%
X56705500Y-87947500D03*
%TO.P,J1,21*%
%TO.N,+12V*%
X54165500Y-87947500D03*
%TO.P,J1,20*%
%TO.N,GND*%
X56705500Y-85407500D03*
%TO.P,J1,19*%
%TO.N,+12V*%
X54165500Y-85407500D03*
%TO.P,J1,18*%
%TO.N,GND*%
X56705500Y-82867500D03*
%TO.P,J1,17*%
%TO.N,/17*%
X54165500Y-82867500D03*
%TO.P,J1,16*%
%TO.N,GND*%
X56705500Y-80327500D03*
%TO.P,J1,15*%
%TO.N,/15*%
X54165500Y-80327500D03*
%TO.P,J1,14*%
%TO.N,GND*%
X56705500Y-77787500D03*
%TO.P,J1,13*%
%TO.N,/13*%
X54165500Y-77787500D03*
%TO.P,J1,12*%
%TO.N,GND*%
X56705500Y-75247500D03*
%TO.P,J1,11*%
%TO.N,/11*%
X54165500Y-75247500D03*
%TO.P,J1,10*%
%TO.N,GND*%
X56705500Y-72707500D03*
%TO.P,J1,9*%
%TO.N,/9*%
X54165500Y-72707500D03*
%TO.P,J1,8*%
%TO.N,GND*%
X56705500Y-70167500D03*
%TO.P,J1,7*%
%TO.N,/7*%
X54165500Y-70167500D03*
%TO.P,J1,6*%
%TO.N,GND*%
X56705500Y-67627500D03*
%TO.P,J1,5*%
%TO.N,/5*%
X54165500Y-67627500D03*
%TO.P,J1,4*%
%TO.N,GND*%
X56705500Y-65087500D03*
%TO.P,J1,3*%
%TO.N,/3*%
X54165500Y-65087500D03*
%TO.P,J1,2*%
%TO.N,GND*%
X56705500Y-62547500D03*
D11*
%TO.P,J1,1*%
%TO.N,/1*%
X54165500Y-62547500D03*
%TD*%
D13*
%TO.N,/40*%
X56832500Y-113284000D03*
X116078000Y-112585500D03*
%TO.N,/39*%
X110553500Y-110998000D03*
%TO.N,/37*%
X107600499Y-109442501D03*
%TO.N,/35*%
X105314499Y-106902501D03*
%TO.N,/33*%
X102964999Y-104362501D03*
%TO.N,/31*%
X100361499Y-101822501D03*
%TO.N,/29*%
X98202499Y-99282501D03*
%TO.N,/27*%
X95217999Y-96742501D03*
%TO.N,/25*%
X92487499Y-94202501D03*
%TO.N,/23*%
X90074499Y-91662501D03*
%TO.N,/17*%
X87280499Y-84042501D03*
%TO.N,/15*%
X84836000Y-81661000D03*
%TO.N,/13*%
X82009999Y-78962501D03*
%TO.N,/11*%
X79533499Y-76422501D03*
%TO.N,/9*%
X76929999Y-73882501D03*
%TO.N,/7*%
X74326499Y-71342501D03*
%TO.N,/5*%
X71722999Y-68802501D03*
%TO.N,/3*%
X69310501Y-66452499D03*
%TO.N,/1*%
X66325499Y-63722501D03*
%TD*%
D14*
%TO.N,/40*%
X125564002Y-110998000D02*
X123976502Y-112585500D01*
X126365000Y-110998000D02*
X125564002Y-110998000D01*
X123976502Y-112585500D02*
X116078000Y-112585500D01*
X57531000Y-112585500D02*
X56832500Y-113284000D01*
X56832500Y-113284000D02*
X56832500Y-113284000D01*
X116078000Y-112585500D02*
X57531000Y-112585500D01*
%TO.N,/39*%
X54165500Y-110807500D02*
X55340501Y-111982501D01*
X123825000Y-110998000D02*
X110553500Y-110998000D01*
X57689499Y-111982501D02*
X55340501Y-111982501D01*
X58674000Y-110998000D02*
X57689499Y-111982501D01*
X110553500Y-110998000D02*
X58674000Y-110998000D01*
%TO.N,/37*%
X56141499Y-109442501D02*
X107600499Y-109442501D01*
X54966498Y-108267500D02*
X56141499Y-109442501D01*
X122840499Y-109442501D02*
X123825000Y-108458000D01*
X54165500Y-108267500D02*
X54966498Y-108267500D01*
X107600499Y-109442501D02*
X122840499Y-109442501D01*
%TO.N,/35*%
X122840499Y-106902501D02*
X123825000Y-105918000D01*
X55340501Y-106902501D02*
X105314499Y-106902501D01*
X54165500Y-105727500D02*
X55340501Y-106902501D01*
X105314499Y-106902501D02*
X122840499Y-106902501D01*
%TO.N,/33*%
X122840499Y-104362501D02*
X123825000Y-103378000D01*
X55340501Y-104362501D02*
X102964999Y-104362501D01*
X54165500Y-103187500D02*
X55340501Y-104362501D01*
X102964999Y-104362501D02*
X122840499Y-104362501D01*
%TO.N,/31*%
X56141499Y-101822501D02*
X100361499Y-101822501D01*
X122840499Y-101822501D02*
X123825000Y-100838000D01*
X54966498Y-100647500D02*
X56141499Y-101822501D01*
X54165500Y-100647500D02*
X54966498Y-100647500D01*
X100361499Y-101822501D02*
X122840499Y-101822501D01*
%TO.N,/29*%
X122840499Y-99282501D02*
X123825000Y-98298000D01*
X56141499Y-99282501D02*
X98202499Y-99282501D01*
X54966498Y-98107500D02*
X56141499Y-99282501D01*
X54165500Y-98107500D02*
X54966498Y-98107500D01*
X98202499Y-99282501D02*
X122840499Y-99282501D01*
%TO.N,/27*%
X122840499Y-96742501D02*
X123825000Y-95758000D01*
X55340501Y-96742501D02*
X95217999Y-96742501D01*
X54165500Y-95567500D02*
X55340501Y-96742501D01*
X95217999Y-96742501D02*
X122840499Y-96742501D01*
%TO.N,/25*%
X122840499Y-94202501D02*
X123825000Y-93218000D01*
X56141499Y-94202501D02*
X92487499Y-94202501D01*
X54966498Y-93027500D02*
X56141499Y-94202501D01*
X54165500Y-93027500D02*
X54966498Y-93027500D01*
X92487499Y-94202501D02*
X122840499Y-94202501D01*
%TO.N,/23*%
X122840499Y-91662501D02*
X123825000Y-90678000D01*
X56141499Y-91662501D02*
X90074499Y-91662501D01*
X54966498Y-90487500D02*
X56141499Y-91662501D01*
X54165500Y-90487500D02*
X54966498Y-90487500D01*
X90074499Y-91662501D02*
X122840499Y-91662501D01*
%TO.N,/17*%
X122840499Y-84042501D02*
X123825000Y-83058000D01*
X54966498Y-82867500D02*
X56141499Y-84042501D01*
X56141499Y-84042501D02*
X87280499Y-84042501D01*
X54165500Y-82867500D02*
X54966498Y-82867500D01*
X87280499Y-84042501D02*
X122840499Y-84042501D01*
%TO.N,/15*%
X122682000Y-81661000D02*
X123825000Y-80518000D01*
X56299998Y-81661000D02*
X84836000Y-81661000D01*
X54966498Y-80327500D02*
X56299998Y-81661000D01*
X54165500Y-80327500D02*
X54966498Y-80327500D01*
X84836000Y-81661000D02*
X122682000Y-81661000D01*
%TO.N,/13*%
X122840499Y-78962501D02*
X123825000Y-77978000D01*
X56141499Y-78962501D02*
X82009999Y-78962501D01*
X54966498Y-77787500D02*
X56141499Y-78962501D01*
X54165500Y-77787500D02*
X54966498Y-77787500D01*
X82009999Y-78962501D02*
X122840499Y-78962501D01*
%TO.N,/11*%
X56141499Y-76422501D02*
X79533499Y-76422501D01*
X54966498Y-75247500D02*
X56141499Y-76422501D01*
X122840499Y-76422501D02*
X123825000Y-75438000D01*
X54165500Y-75247500D02*
X54966498Y-75247500D01*
X79533499Y-76422501D02*
X122840499Y-76422501D01*
%TO.N,/9*%
X122840499Y-73882501D02*
X123825000Y-72898000D01*
X56141499Y-73882501D02*
X76929999Y-73882501D01*
X54966498Y-72707500D02*
X56141499Y-73882501D01*
X54165500Y-72707500D02*
X54966498Y-72707500D01*
X76929999Y-73882501D02*
X122840499Y-73882501D01*
%TO.N,/7*%
X56141499Y-71342501D02*
X74326499Y-71342501D01*
X55530499Y-70731501D02*
X56141499Y-71342501D01*
X55530499Y-70325999D02*
X55530499Y-70731501D01*
X55372000Y-70167500D02*
X55530499Y-70325999D01*
X122840499Y-71342501D02*
X123825000Y-70358000D01*
X54165500Y-70167500D02*
X55372000Y-70167500D01*
X74326499Y-71342501D02*
X122840499Y-71342501D01*
%TO.N,/5*%
X122840499Y-68802501D02*
X123825000Y-67818000D01*
X56141499Y-68802501D02*
X71722999Y-68802501D01*
X54966498Y-67627500D02*
X56141499Y-68802501D01*
X54165500Y-67627500D02*
X54966498Y-67627500D01*
X71722999Y-68802501D02*
X122840499Y-68802501D01*
%TO.N,/3*%
X122650501Y-66452499D02*
X123825000Y-65278000D01*
X55530499Y-66452499D02*
X69310501Y-66452499D01*
X54165500Y-65087500D02*
X55530499Y-66452499D01*
X69310501Y-66452499D02*
X122650501Y-66452499D01*
%TO.N,/1*%
X122840499Y-63722501D02*
X123825000Y-62738000D01*
X56141499Y-63722501D02*
X66325499Y-63722501D01*
X54966498Y-62547500D02*
X56141499Y-63722501D01*
X54165500Y-62547500D02*
X54966498Y-62547500D01*
X66325499Y-63722501D02*
X122840499Y-63722501D01*
%TD*%
D15*
%TO.N,GND*%
X46872843Y-52469611D02*
X46195591Y-52922136D01*
X45619636Y-53498091D01*
X45167111Y-54175343D01*
X44855406Y-54927865D01*
X44696500Y-55726738D01*
X44696500Y-56541262D01*
X44855406Y-57340135D01*
X45167111Y-58092657D01*
X45619636Y-58769909D01*
X46195591Y-59345864D01*
X46872843Y-59798389D01*
X47625365Y-60110094D01*
X48424238Y-60269000D01*
X49238762Y-60269000D01*
X50037635Y-60110094D01*
X50790157Y-59798389D01*
X50894005Y-59729000D01*
X86332428Y-59729000D01*
X86335500Y-60293250D01*
X86494250Y-60452000D01*
X87693500Y-60452000D01*
X87693500Y-59252750D01*
X87947500Y-59252750D01*
X87947500Y-60452000D01*
X87967500Y-60452000D01*
X87967500Y-60706000D01*
X87947500Y-60706000D01*
X87947500Y-61905250D01*
X88106250Y-62064000D01*
X88670500Y-62067072D01*
X88794982Y-62054812D01*
X88914680Y-62018502D01*
X89024994Y-61959537D01*
X89121685Y-61880185D01*
X89201037Y-61783494D01*
X89260002Y-61673180D01*
X89282013Y-61600620D01*
X89413868Y-61732475D01*
X89657089Y-61894990D01*
X89927342Y-62006932D01*
X90214240Y-62064000D01*
X90506760Y-62064000D01*
X90793658Y-62006932D01*
X91063911Y-61894990D01*
X91307132Y-61732475D01*
X91513975Y-61525632D01*
X91676490Y-61282411D01*
X91788432Y-61012158D01*
X91845500Y-60725260D01*
X91845500Y-60432740D01*
X91788432Y-60145842D01*
X91676490Y-59875589D01*
X91513975Y-59632368D01*
X91307132Y-59425525D01*
X91063911Y-59263010D01*
X90793658Y-59151068D01*
X90506760Y-59094000D01*
X90214240Y-59094000D01*
X89927342Y-59151068D01*
X89657089Y-59263010D01*
X89413868Y-59425525D01*
X89282013Y-59557380D01*
X89260002Y-59484820D01*
X89201037Y-59374506D01*
X89121685Y-59277815D01*
X89024994Y-59198463D01*
X88914680Y-59139498D01*
X88794982Y-59103188D01*
X88670500Y-59090928D01*
X88106250Y-59094000D01*
X87947500Y-59252750D01*
X87693500Y-59252750D01*
X87534750Y-59094000D01*
X86970500Y-59090928D01*
X86846018Y-59103188D01*
X86726320Y-59139498D01*
X86616006Y-59198463D01*
X86519315Y-59277815D01*
X86439963Y-59374506D01*
X86380998Y-59484820D01*
X86344688Y-59604518D01*
X86332428Y-59729000D01*
X50894005Y-59729000D01*
X51467409Y-59345864D01*
X52043364Y-58769909D01*
X52495889Y-58092657D01*
X52807594Y-57340135D01*
X52966500Y-56541262D01*
X52966500Y-56107738D01*
X123944500Y-56107738D01*
X123944500Y-56922262D01*
X124103406Y-57721135D01*
X124415111Y-58473657D01*
X124867636Y-59150909D01*
X125443591Y-59726864D01*
X126120843Y-60179389D01*
X126873365Y-60491094D01*
X127672238Y-60650000D01*
X128486762Y-60650000D01*
X129285635Y-60491094D01*
X130038157Y-60179389D01*
X130715409Y-59726864D01*
X131291364Y-59150909D01*
X131743889Y-58473657D01*
X132055594Y-57721135D01*
X132214500Y-56922262D01*
X132214500Y-56107738D01*
X132055594Y-55308865D01*
X131743889Y-54556343D01*
X131291364Y-53879091D01*
X130715409Y-53303136D01*
X130038157Y-52850611D01*
X129285635Y-52538906D01*
X128486762Y-52380000D01*
X127672238Y-52380000D01*
X126873365Y-52538906D01*
X126120843Y-52850611D01*
X125443591Y-53303136D01*
X124867636Y-53879091D01*
X124415111Y-54556343D01*
X124103406Y-55308865D01*
X123944500Y-56107738D01*
X52966500Y-56107738D01*
X52966500Y-55726738D01*
X52807594Y-54927865D01*
X52495889Y-54175343D01*
X52043364Y-53498091D01*
X51467409Y-52922136D01*
X50790157Y-52469611D01*
X50192372Y-52222000D01*
X132754014Y-52222000D01*
X132812205Y-127114354D01*
X132505889Y-126374843D01*
X132053364Y-125697591D01*
X131477409Y-125121636D01*
X130800157Y-124669111D01*
X130047635Y-124357406D01*
X129248762Y-124198500D01*
X128434238Y-124198500D01*
X127635365Y-124357406D01*
X126882843Y-124669111D01*
X126205591Y-125121636D01*
X125629636Y-125697591D01*
X125177111Y-126374843D01*
X124865406Y-127127365D01*
X124706500Y-127926238D01*
X124706500Y-128740762D01*
X124865406Y-129539635D01*
X125177111Y-130292157D01*
X125629636Y-130969409D01*
X126205591Y-131545364D01*
X126882843Y-131997889D01*
X127635365Y-132309594D01*
X128434238Y-132468500D01*
X129248762Y-132468500D01*
X130047635Y-132309594D01*
X130800157Y-131997889D01*
X131477409Y-131545364D01*
X132053364Y-130969409D01*
X132505889Y-130292157D01*
X132814096Y-129548081D01*
X132816488Y-132626500D01*
X49021150Y-132626500D01*
X49656635Y-132500094D01*
X50409157Y-132188389D01*
X51086409Y-131735864D01*
X51662364Y-131159909D01*
X52114889Y-130482657D01*
X52426594Y-129730135D01*
X52585500Y-128931262D01*
X52585500Y-128116738D01*
X52426594Y-127317865D01*
X52114889Y-126565343D01*
X51662364Y-125888091D01*
X51086409Y-125312136D01*
X50409157Y-124859611D01*
X49656635Y-124547906D01*
X48857762Y-124389000D01*
X48043238Y-124389000D01*
X47244365Y-124547906D01*
X46491843Y-124859611D01*
X45814591Y-125312136D01*
X45238636Y-125888091D01*
X44786111Y-126565343D01*
X44665500Y-126856524D01*
X44665500Y-61697500D01*
X52677428Y-61697500D01*
X52677428Y-63397500D01*
X52689688Y-63521982D01*
X52725998Y-63641680D01*
X52784963Y-63751994D01*
X52864315Y-63848685D01*
X52961006Y-63928037D01*
X53071320Y-63987002D01*
X53143880Y-64009013D01*
X53012025Y-64140868D01*
X52849510Y-64384089D01*
X52737568Y-64654342D01*
X52680500Y-64941240D01*
X52680500Y-65233760D01*
X52737568Y-65520658D01*
X52849510Y-65790911D01*
X53012025Y-66034132D01*
X53218868Y-66240975D01*
X53393260Y-66357500D01*
X53218868Y-66474025D01*
X53012025Y-66680868D01*
X52849510Y-66924089D01*
X52737568Y-67194342D01*
X52680500Y-67481240D01*
X52680500Y-67773760D01*
X52737568Y-68060658D01*
X52849510Y-68330911D01*
X53012025Y-68574132D01*
X53218868Y-68780975D01*
X53393260Y-68897500D01*
X53218868Y-69014025D01*
X53012025Y-69220868D01*
X52849510Y-69464089D01*
X52737568Y-69734342D01*
X52680500Y-70021240D01*
X52680500Y-70313760D01*
X52737568Y-70600658D01*
X52849510Y-70870911D01*
X53012025Y-71114132D01*
X53218868Y-71320975D01*
X53393260Y-71437500D01*
X53218868Y-71554025D01*
X53012025Y-71760868D01*
X52849510Y-72004089D01*
X52737568Y-72274342D01*
X52680500Y-72561240D01*
X52680500Y-72853760D01*
X52737568Y-73140658D01*
X52849510Y-73410911D01*
X53012025Y-73654132D01*
X53218868Y-73860975D01*
X53393260Y-73977500D01*
X53218868Y-74094025D01*
X53012025Y-74300868D01*
X52849510Y-74544089D01*
X52737568Y-74814342D01*
X52680500Y-75101240D01*
X52680500Y-75393760D01*
X52737568Y-75680658D01*
X52849510Y-75950911D01*
X53012025Y-76194132D01*
X53218868Y-76400975D01*
X53393260Y-76517500D01*
X53218868Y-76634025D01*
X53012025Y-76840868D01*
X52849510Y-77084089D01*
X52737568Y-77354342D01*
X52680500Y-77641240D01*
X52680500Y-77933760D01*
X52737568Y-78220658D01*
X52849510Y-78490911D01*
X53012025Y-78734132D01*
X53218868Y-78940975D01*
X53393260Y-79057500D01*
X53218868Y-79174025D01*
X53012025Y-79380868D01*
X52849510Y-79624089D01*
X52737568Y-79894342D01*
X52680500Y-80181240D01*
X52680500Y-80473760D01*
X52737568Y-80760658D01*
X52849510Y-81030911D01*
X53012025Y-81274132D01*
X53218868Y-81480975D01*
X53393260Y-81597500D01*
X53218868Y-81714025D01*
X53012025Y-81920868D01*
X52849510Y-82164089D01*
X52737568Y-82434342D01*
X52680500Y-82721240D01*
X52680500Y-83013760D01*
X52737568Y-83300658D01*
X52849510Y-83570911D01*
X53012025Y-83814132D01*
X53218868Y-84020975D01*
X53393260Y-84137500D01*
X53218868Y-84254025D01*
X53012025Y-84460868D01*
X52849510Y-84704089D01*
X52737568Y-84974342D01*
X52680500Y-85261240D01*
X52680500Y-85553760D01*
X52737568Y-85840658D01*
X52849510Y-86110911D01*
X53012025Y-86354132D01*
X53218868Y-86560975D01*
X53393260Y-86677500D01*
X53218868Y-86794025D01*
X53012025Y-87000868D01*
X52849510Y-87244089D01*
X52737568Y-87514342D01*
X52680500Y-87801240D01*
X52680500Y-88093760D01*
X52737568Y-88380658D01*
X52849510Y-88650911D01*
X53012025Y-88894132D01*
X53218868Y-89100975D01*
X53393260Y-89217500D01*
X53218868Y-89334025D01*
X53012025Y-89540868D01*
X52849510Y-89784089D01*
X52737568Y-90054342D01*
X52680500Y-90341240D01*
X52680500Y-90633760D01*
X52737568Y-90920658D01*
X52849510Y-91190911D01*
X53012025Y-91434132D01*
X53218868Y-91640975D01*
X53393260Y-91757500D01*
X53218868Y-91874025D01*
X53012025Y-92080868D01*
X52849510Y-92324089D01*
X52737568Y-92594342D01*
X52680500Y-92881240D01*
X52680500Y-93173760D01*
X52737568Y-93460658D01*
X52849510Y-93730911D01*
X53012025Y-93974132D01*
X53218868Y-94180975D01*
X53393260Y-94297500D01*
X53218868Y-94414025D01*
X53012025Y-94620868D01*
X52849510Y-94864089D01*
X52737568Y-95134342D01*
X52680500Y-95421240D01*
X52680500Y-95713760D01*
X52737568Y-96000658D01*
X52849510Y-96270911D01*
X53012025Y-96514132D01*
X53218868Y-96720975D01*
X53393260Y-96837500D01*
X53218868Y-96954025D01*
X53012025Y-97160868D01*
X52849510Y-97404089D01*
X52737568Y-97674342D01*
X52680500Y-97961240D01*
X52680500Y-98253760D01*
X52737568Y-98540658D01*
X52849510Y-98810911D01*
X53012025Y-99054132D01*
X53218868Y-99260975D01*
X53393260Y-99377500D01*
X53218868Y-99494025D01*
X53012025Y-99700868D01*
X52849510Y-99944089D01*
X52737568Y-100214342D01*
X52680500Y-100501240D01*
X52680500Y-100793760D01*
X52737568Y-101080658D01*
X52849510Y-101350911D01*
X53012025Y-101594132D01*
X53218868Y-101800975D01*
X53393260Y-101917500D01*
X53218868Y-102034025D01*
X53012025Y-102240868D01*
X52849510Y-102484089D01*
X52737568Y-102754342D01*
X52680500Y-103041240D01*
X52680500Y-103333760D01*
X52737568Y-103620658D01*
X52849510Y-103890911D01*
X53012025Y-104134132D01*
X53218868Y-104340975D01*
X53393260Y-104457500D01*
X53218868Y-104574025D01*
X53012025Y-104780868D01*
X52849510Y-105024089D01*
X52737568Y-105294342D01*
X52680500Y-105581240D01*
X52680500Y-105873760D01*
X52737568Y-106160658D01*
X52849510Y-106430911D01*
X53012025Y-106674132D01*
X53218868Y-106880975D01*
X53393260Y-106997500D01*
X53218868Y-107114025D01*
X53012025Y-107320868D01*
X52849510Y-107564089D01*
X52737568Y-107834342D01*
X52680500Y-108121240D01*
X52680500Y-108413760D01*
X52737568Y-108700658D01*
X52849510Y-108970911D01*
X53012025Y-109214132D01*
X53218868Y-109420975D01*
X53393260Y-109537500D01*
X53218868Y-109654025D01*
X53012025Y-109860868D01*
X52849510Y-110104089D01*
X52737568Y-110374342D01*
X52680500Y-110661240D01*
X52680500Y-110953760D01*
X52737568Y-111240658D01*
X52849510Y-111510911D01*
X53012025Y-111754132D01*
X53218868Y-111960975D01*
X53462089Y-112123490D01*
X53732342Y-112235432D01*
X54019240Y-112292500D01*
X54311760Y-112292500D01*
X54531908Y-112248710D01*
X54776702Y-112493504D01*
X54800500Y-112522502D01*
X54916225Y-112617475D01*
X55048254Y-112688047D01*
X55191515Y-112731504D01*
X55303168Y-112742501D01*
X55303177Y-112742501D01*
X55340500Y-112746177D01*
X55377823Y-112742501D01*
X55949534Y-112742501D01*
X55915295Y-112793744D01*
X55837274Y-112982102D01*
X55797500Y-113182061D01*
X55797500Y-113385939D01*
X55837274Y-113585898D01*
X55915295Y-113774256D01*
X56028563Y-113943774D01*
X56172726Y-114087937D01*
X56342244Y-114201205D01*
X56530602Y-114279226D01*
X56730561Y-114319000D01*
X56934439Y-114319000D01*
X57134398Y-114279226D01*
X57322756Y-114201205D01*
X57492274Y-114087937D01*
X57636437Y-113943774D01*
X57749705Y-113774256D01*
X57827726Y-113585898D01*
X57867500Y-113385939D01*
X57867500Y-113345500D01*
X65796628Y-113345500D01*
X65754815Y-113379815D01*
X65675463Y-113476506D01*
X65616498Y-113586820D01*
X65580188Y-113706518D01*
X65567928Y-113831000D01*
X65567928Y-115531000D01*
X65580188Y-115655482D01*
X65616498Y-115775180D01*
X65675463Y-115885494D01*
X65754815Y-115982185D01*
X65851506Y-116061537D01*
X65961820Y-116120502D01*
X66081518Y-116156812D01*
X66206000Y-116169072D01*
X67906000Y-116169072D01*
X68030482Y-116156812D01*
X68150180Y-116120502D01*
X68260494Y-116061537D01*
X68357185Y-115982185D01*
X68436537Y-115885494D01*
X68495502Y-115775180D01*
X68517513Y-115702620D01*
X68649368Y-115834475D01*
X68892589Y-115996990D01*
X69162842Y-116108932D01*
X69449740Y-116166000D01*
X69742260Y-116166000D01*
X70029158Y-116108932D01*
X70299411Y-115996990D01*
X70542632Y-115834475D01*
X70749475Y-115627632D01*
X70866000Y-115453240D01*
X70982525Y-115627632D01*
X71189368Y-115834475D01*
X71432589Y-115996990D01*
X71702842Y-116108932D01*
X71989740Y-116166000D01*
X72282260Y-116166000D01*
X72569158Y-116108932D01*
X72839411Y-115996990D01*
X73082632Y-115834475D01*
X73289475Y-115627632D01*
X73406000Y-115453240D01*
X73522525Y-115627632D01*
X73729368Y-115834475D01*
X73972589Y-115996990D01*
X74242842Y-116108932D01*
X74529740Y-116166000D01*
X74822260Y-116166000D01*
X75109158Y-116108932D01*
X75379411Y-115996990D01*
X75622632Y-115834475D01*
X75829475Y-115627632D01*
X75946000Y-115453240D01*
X76062525Y-115627632D01*
X76269368Y-115834475D01*
X76512589Y-115996990D01*
X76782842Y-116108932D01*
X77069740Y-116166000D01*
X77362260Y-116166000D01*
X77649158Y-116108932D01*
X77919411Y-115996990D01*
X78162632Y-115834475D01*
X78369475Y-115627632D01*
X78486000Y-115453240D01*
X78602525Y-115627632D01*
X78809368Y-115834475D01*
X79052589Y-115996990D01*
X79322842Y-116108932D01*
X79609740Y-116166000D01*
X79902260Y-116166000D01*
X80189158Y-116108932D01*
X80459411Y-115996990D01*
X80702632Y-115834475D01*
X80909475Y-115627632D01*
X81026000Y-115453240D01*
X81142525Y-115627632D01*
X81349368Y-115834475D01*
X81592589Y-115996990D01*
X81862842Y-116108932D01*
X82149740Y-116166000D01*
X82442260Y-116166000D01*
X82729158Y-116108932D01*
X82999411Y-115996990D01*
X83242632Y-115834475D01*
X83449475Y-115627632D01*
X83566000Y-115453240D01*
X83682525Y-115627632D01*
X83889368Y-115834475D01*
X84132589Y-115996990D01*
X84402842Y-116108932D01*
X84689740Y-116166000D01*
X84982260Y-116166000D01*
X85269158Y-116108932D01*
X85539411Y-115996990D01*
X85782632Y-115834475D01*
X85989475Y-115627632D01*
X86106000Y-115453240D01*
X86222525Y-115627632D01*
X86429368Y-115834475D01*
X86672589Y-115996990D01*
X86942842Y-116108932D01*
X87229740Y-116166000D01*
X87522260Y-116166000D01*
X87809158Y-116108932D01*
X88079411Y-115996990D01*
X88322632Y-115834475D01*
X88529475Y-115627632D01*
X88646000Y-115453240D01*
X88762525Y-115627632D01*
X88969368Y-115834475D01*
X89212589Y-115996990D01*
X89482842Y-116108932D01*
X89769740Y-116166000D01*
X90062260Y-116166000D01*
X90349158Y-116108932D01*
X90619411Y-115996990D01*
X90862632Y-115834475D01*
X91069475Y-115627632D01*
X91186000Y-115453240D01*
X91302525Y-115627632D01*
X91509368Y-115834475D01*
X91752589Y-115996990D01*
X92022842Y-116108932D01*
X92309740Y-116166000D01*
X92602260Y-116166000D01*
X92889158Y-116108932D01*
X93159411Y-115996990D01*
X93402632Y-115834475D01*
X93609475Y-115627632D01*
X93726000Y-115453240D01*
X93842525Y-115627632D01*
X94049368Y-115834475D01*
X94292589Y-115996990D01*
X94562842Y-116108932D01*
X94849740Y-116166000D01*
X95142260Y-116166000D01*
X95429158Y-116108932D01*
X95699411Y-115996990D01*
X95942632Y-115834475D01*
X96149475Y-115627632D01*
X96266000Y-115453240D01*
X96382525Y-115627632D01*
X96589368Y-115834475D01*
X96832589Y-115996990D01*
X97102842Y-116108932D01*
X97389740Y-116166000D01*
X97682260Y-116166000D01*
X97969158Y-116108932D01*
X98239411Y-115996990D01*
X98482632Y-115834475D01*
X98689475Y-115627632D01*
X98806000Y-115453240D01*
X98922525Y-115627632D01*
X99129368Y-115834475D01*
X99372589Y-115996990D01*
X99642842Y-116108932D01*
X99929740Y-116166000D01*
X100222260Y-116166000D01*
X100509158Y-116108932D01*
X100779411Y-115996990D01*
X101022632Y-115834475D01*
X101229475Y-115627632D01*
X101346000Y-115453240D01*
X101462525Y-115627632D01*
X101669368Y-115834475D01*
X101912589Y-115996990D01*
X102182842Y-116108932D01*
X102469740Y-116166000D01*
X102762260Y-116166000D01*
X103049158Y-116108932D01*
X103319411Y-115996990D01*
X103562632Y-115834475D01*
X103769475Y-115627632D01*
X103886000Y-115453240D01*
X104002525Y-115627632D01*
X104209368Y-115834475D01*
X104452589Y-115996990D01*
X104722842Y-116108932D01*
X105009740Y-116166000D01*
X105302260Y-116166000D01*
X105589158Y-116108932D01*
X105859411Y-115996990D01*
X106102632Y-115834475D01*
X106309475Y-115627632D01*
X106426000Y-115453240D01*
X106542525Y-115627632D01*
X106749368Y-115834475D01*
X106992589Y-115996990D01*
X107262842Y-116108932D01*
X107549740Y-116166000D01*
X107842260Y-116166000D01*
X108129158Y-116108932D01*
X108399411Y-115996990D01*
X108642632Y-115834475D01*
X108849475Y-115627632D01*
X108966000Y-115453240D01*
X109082525Y-115627632D01*
X109289368Y-115834475D01*
X109532589Y-115996990D01*
X109802842Y-116108932D01*
X110089740Y-116166000D01*
X110382260Y-116166000D01*
X110669158Y-116108932D01*
X110939411Y-115996990D01*
X111182632Y-115834475D01*
X111389475Y-115627632D01*
X111506000Y-115453240D01*
X111622525Y-115627632D01*
X111829368Y-115834475D01*
X112072589Y-115996990D01*
X112342842Y-116108932D01*
X112629740Y-116166000D01*
X112922260Y-116166000D01*
X113209158Y-116108932D01*
X113479411Y-115996990D01*
X113722632Y-115834475D01*
X113929475Y-115627632D01*
X114091990Y-115384411D01*
X114203932Y-115114158D01*
X114261000Y-114827260D01*
X114261000Y-114534740D01*
X114203932Y-114247842D01*
X114091990Y-113977589D01*
X113929475Y-113734368D01*
X113722632Y-113527525D01*
X113479411Y-113365010D01*
X113432310Y-113345500D01*
X115374289Y-113345500D01*
X115418226Y-113389437D01*
X115587744Y-113502705D01*
X115776102Y-113580726D01*
X115976061Y-113620500D01*
X116179939Y-113620500D01*
X116379898Y-113580726D01*
X116568256Y-113502705D01*
X116737774Y-113389437D01*
X116781711Y-113345500D01*
X123939180Y-113345500D01*
X123976502Y-113349176D01*
X124013824Y-113345500D01*
X124013835Y-113345500D01*
X124125488Y-113334503D01*
X124268749Y-113291046D01*
X124400778Y-113220474D01*
X124516503Y-113125501D01*
X124540306Y-113096497D01*
X125458508Y-112178296D01*
X125661589Y-112313990D01*
X125931842Y-112425932D01*
X126218740Y-112483000D01*
X126511260Y-112483000D01*
X126798158Y-112425932D01*
X127068411Y-112313990D01*
X127311632Y-112151475D01*
X127518475Y-111944632D01*
X127680990Y-111701411D01*
X127792932Y-111431158D01*
X127850000Y-111144260D01*
X127850000Y-110851740D01*
X127792932Y-110564842D01*
X127680990Y-110294589D01*
X127518475Y-110051368D01*
X127311632Y-109844525D01*
X127129466Y-109722805D01*
X127246355Y-109653178D01*
X127462588Y-109458269D01*
X127636641Y-109224920D01*
X127761825Y-108962099D01*
X127806476Y-108814890D01*
X127685155Y-108585000D01*
X126492000Y-108585000D01*
X126492000Y-108605000D01*
X126238000Y-108605000D01*
X126238000Y-108585000D01*
X126218000Y-108585000D01*
X126218000Y-108331000D01*
X126238000Y-108331000D01*
X126238000Y-106045000D01*
X126492000Y-106045000D01*
X126492000Y-108331000D01*
X127685155Y-108331000D01*
X127806476Y-108101110D01*
X127761825Y-107953901D01*
X127636641Y-107691080D01*
X127462588Y-107457731D01*
X127246355Y-107262822D01*
X127120745Y-107188000D01*
X127246355Y-107113178D01*
X127462588Y-106918269D01*
X127636641Y-106684920D01*
X127761825Y-106422099D01*
X127806476Y-106274890D01*
X127685155Y-106045000D01*
X126492000Y-106045000D01*
X126238000Y-106045000D01*
X126218000Y-106045000D01*
X126218000Y-105791000D01*
X126238000Y-105791000D01*
X126238000Y-103505000D01*
X126492000Y-103505000D01*
X126492000Y-105791000D01*
X127685155Y-105791000D01*
X127806476Y-105561110D01*
X127761825Y-105413901D01*
X127636641Y-105151080D01*
X127462588Y-104917731D01*
X127246355Y-104722822D01*
X127120745Y-104648000D01*
X127246355Y-104573178D01*
X127462588Y-104378269D01*
X127636641Y-104144920D01*
X127761825Y-103882099D01*
X127806476Y-103734890D01*
X127685155Y-103505000D01*
X126492000Y-103505000D01*
X126238000Y-103505000D01*
X126218000Y-103505000D01*
X126218000Y-103251000D01*
X126238000Y-103251000D01*
X126238000Y-100965000D01*
X126492000Y-100965000D01*
X126492000Y-103251000D01*
X127685155Y-103251000D01*
X127806476Y-103021110D01*
X127761825Y-102873901D01*
X127636641Y-102611080D01*
X127462588Y-102377731D01*
X127246355Y-102182822D01*
X127120745Y-102108000D01*
X127246355Y-102033178D01*
X127462588Y-101838269D01*
X127636641Y-101604920D01*
X127761825Y-101342099D01*
X127806476Y-101194890D01*
X127685155Y-100965000D01*
X126492000Y-100965000D01*
X126238000Y-100965000D01*
X126218000Y-100965000D01*
X126218000Y-100711000D01*
X126238000Y-100711000D01*
X126238000Y-98425000D01*
X126492000Y-98425000D01*
X126492000Y-100711000D01*
X127685155Y-100711000D01*
X127806476Y-100481110D01*
X127761825Y-100333901D01*
X127636641Y-100071080D01*
X127462588Y-99837731D01*
X127246355Y-99642822D01*
X127120745Y-99568000D01*
X127246355Y-99493178D01*
X127462588Y-99298269D01*
X127636641Y-99064920D01*
X127761825Y-98802099D01*
X127806476Y-98654890D01*
X127685155Y-98425000D01*
X126492000Y-98425000D01*
X126238000Y-98425000D01*
X126218000Y-98425000D01*
X126218000Y-98171000D01*
X126238000Y-98171000D01*
X126238000Y-95885000D01*
X126492000Y-95885000D01*
X126492000Y-98171000D01*
X127685155Y-98171000D01*
X127806476Y-97941110D01*
X127761825Y-97793901D01*
X127636641Y-97531080D01*
X127462588Y-97297731D01*
X127246355Y-97102822D01*
X127120745Y-97028000D01*
X127246355Y-96953178D01*
X127462588Y-96758269D01*
X127636641Y-96524920D01*
X127761825Y-96262099D01*
X127806476Y-96114890D01*
X127685155Y-95885000D01*
X126492000Y-95885000D01*
X126238000Y-95885000D01*
X126218000Y-95885000D01*
X126218000Y-95631000D01*
X126238000Y-95631000D01*
X126238000Y-93345000D01*
X126492000Y-93345000D01*
X126492000Y-95631000D01*
X127685155Y-95631000D01*
X127806476Y-95401110D01*
X127761825Y-95253901D01*
X127636641Y-94991080D01*
X127462588Y-94757731D01*
X127246355Y-94562822D01*
X127120745Y-94488000D01*
X127246355Y-94413178D01*
X127462588Y-94218269D01*
X127636641Y-93984920D01*
X127761825Y-93722099D01*
X127806476Y-93574890D01*
X127685155Y-93345000D01*
X126492000Y-93345000D01*
X126238000Y-93345000D01*
X126218000Y-93345000D01*
X126218000Y-93091000D01*
X126238000Y-93091000D01*
X126238000Y-90805000D01*
X126492000Y-90805000D01*
X126492000Y-93091000D01*
X127685155Y-93091000D01*
X127806476Y-92861110D01*
X127761825Y-92713901D01*
X127636641Y-92451080D01*
X127462588Y-92217731D01*
X127246355Y-92022822D01*
X127120745Y-91948000D01*
X127246355Y-91873178D01*
X127462588Y-91678269D01*
X127636641Y-91444920D01*
X127761825Y-91182099D01*
X127806476Y-91034890D01*
X127685155Y-90805000D01*
X126492000Y-90805000D01*
X126238000Y-90805000D01*
X126218000Y-90805000D01*
X126218000Y-90551000D01*
X126238000Y-90551000D01*
X126238000Y-88265000D01*
X126492000Y-88265000D01*
X126492000Y-90551000D01*
X127685155Y-90551000D01*
X127806476Y-90321110D01*
X127761825Y-90173901D01*
X127636641Y-89911080D01*
X127462588Y-89677731D01*
X127246355Y-89482822D01*
X127120745Y-89408000D01*
X127246355Y-89333178D01*
X127462588Y-89138269D01*
X127636641Y-88904920D01*
X127761825Y-88642099D01*
X127806476Y-88494890D01*
X127685155Y-88265000D01*
X126492000Y-88265000D01*
X126238000Y-88265000D01*
X126218000Y-88265000D01*
X126218000Y-88011000D01*
X126238000Y-88011000D01*
X126238000Y-85725000D01*
X126492000Y-85725000D01*
X126492000Y-88011000D01*
X127685155Y-88011000D01*
X127806476Y-87781110D01*
X127761825Y-87633901D01*
X127636641Y-87371080D01*
X127462588Y-87137731D01*
X127246355Y-86942822D01*
X127120745Y-86868000D01*
X127246355Y-86793178D01*
X127462588Y-86598269D01*
X127636641Y-86364920D01*
X127761825Y-86102099D01*
X127806476Y-85954890D01*
X127685155Y-85725000D01*
X126492000Y-85725000D01*
X126238000Y-85725000D01*
X126218000Y-85725000D01*
X126218000Y-85471000D01*
X126238000Y-85471000D01*
X126238000Y-83185000D01*
X126492000Y-83185000D01*
X126492000Y-85471000D01*
X127685155Y-85471000D01*
X127806476Y-85241110D01*
X127761825Y-85093901D01*
X127636641Y-84831080D01*
X127462588Y-84597731D01*
X127246355Y-84402822D01*
X127120745Y-84328000D01*
X127246355Y-84253178D01*
X127462588Y-84058269D01*
X127636641Y-83824920D01*
X127761825Y-83562099D01*
X127806476Y-83414890D01*
X127685155Y-83185000D01*
X126492000Y-83185000D01*
X126238000Y-83185000D01*
X126218000Y-83185000D01*
X126218000Y-82931000D01*
X126238000Y-82931000D01*
X126238000Y-80645000D01*
X126492000Y-80645000D01*
X126492000Y-82931000D01*
X127685155Y-82931000D01*
X127806476Y-82701110D01*
X127761825Y-82553901D01*
X127636641Y-82291080D01*
X127462588Y-82057731D01*
X127246355Y-81862822D01*
X127120745Y-81788000D01*
X127246355Y-81713178D01*
X127462588Y-81518269D01*
X127636641Y-81284920D01*
X127761825Y-81022099D01*
X127806476Y-80874890D01*
X127685155Y-80645000D01*
X126492000Y-80645000D01*
X126238000Y-80645000D01*
X126218000Y-80645000D01*
X126218000Y-80391000D01*
X126238000Y-80391000D01*
X126238000Y-78105000D01*
X126492000Y-78105000D01*
X126492000Y-80391000D01*
X127685155Y-80391000D01*
X127806476Y-80161110D01*
X127761825Y-80013901D01*
X127636641Y-79751080D01*
X127462588Y-79517731D01*
X127246355Y-79322822D01*
X127120745Y-79248000D01*
X127246355Y-79173178D01*
X127462588Y-78978269D01*
X127636641Y-78744920D01*
X127761825Y-78482099D01*
X127806476Y-78334890D01*
X127685155Y-78105000D01*
X126492000Y-78105000D01*
X126238000Y-78105000D01*
X126218000Y-78105000D01*
X126218000Y-77851000D01*
X126238000Y-77851000D01*
X126238000Y-75565000D01*
X126492000Y-75565000D01*
X126492000Y-77851000D01*
X127685155Y-77851000D01*
X127806476Y-77621110D01*
X127761825Y-77473901D01*
X127636641Y-77211080D01*
X127462588Y-76977731D01*
X127246355Y-76782822D01*
X127120745Y-76708000D01*
X127246355Y-76633178D01*
X127462588Y-76438269D01*
X127636641Y-76204920D01*
X127761825Y-75942099D01*
X127806476Y-75794890D01*
X127685155Y-75565000D01*
X126492000Y-75565000D01*
X126238000Y-75565000D01*
X126218000Y-75565000D01*
X126218000Y-75311000D01*
X126238000Y-75311000D01*
X126238000Y-73025000D01*
X126492000Y-73025000D01*
X126492000Y-75311000D01*
X127685155Y-75311000D01*
X127806476Y-75081110D01*
X127761825Y-74933901D01*
X127636641Y-74671080D01*
X127462588Y-74437731D01*
X127246355Y-74242822D01*
X127120745Y-74168000D01*
X127246355Y-74093178D01*
X127462588Y-73898269D01*
X127636641Y-73664920D01*
X127761825Y-73402099D01*
X127806476Y-73254890D01*
X127685155Y-73025000D01*
X126492000Y-73025000D01*
X126238000Y-73025000D01*
X126218000Y-73025000D01*
X126218000Y-72771000D01*
X126238000Y-72771000D01*
X126238000Y-70485000D01*
X126492000Y-70485000D01*
X126492000Y-72771000D01*
X127685155Y-72771000D01*
X127806476Y-72541110D01*
X127761825Y-72393901D01*
X127636641Y-72131080D01*
X127462588Y-71897731D01*
X127246355Y-71702822D01*
X127120745Y-71628000D01*
X127246355Y-71553178D01*
X127462588Y-71358269D01*
X127636641Y-71124920D01*
X127761825Y-70862099D01*
X127806476Y-70714890D01*
X127685155Y-70485000D01*
X126492000Y-70485000D01*
X126238000Y-70485000D01*
X126218000Y-70485000D01*
X126218000Y-70231000D01*
X126238000Y-70231000D01*
X126238000Y-67945000D01*
X126492000Y-67945000D01*
X126492000Y-70231000D01*
X127685155Y-70231000D01*
X127806476Y-70001110D01*
X127761825Y-69853901D01*
X127636641Y-69591080D01*
X127462588Y-69357731D01*
X127246355Y-69162822D01*
X127120745Y-69088000D01*
X127246355Y-69013178D01*
X127462588Y-68818269D01*
X127636641Y-68584920D01*
X127761825Y-68322099D01*
X127806476Y-68174890D01*
X127685155Y-67945000D01*
X126492000Y-67945000D01*
X126238000Y-67945000D01*
X126218000Y-67945000D01*
X126218000Y-67691000D01*
X126238000Y-67691000D01*
X126238000Y-65405000D01*
X126492000Y-65405000D01*
X126492000Y-67691000D01*
X127685155Y-67691000D01*
X127806476Y-67461110D01*
X127761825Y-67313901D01*
X127636641Y-67051080D01*
X127462588Y-66817731D01*
X127246355Y-66622822D01*
X127120745Y-66548000D01*
X127246355Y-66473178D01*
X127462588Y-66278269D01*
X127636641Y-66044920D01*
X127761825Y-65782099D01*
X127806476Y-65634890D01*
X127685155Y-65405000D01*
X126492000Y-65405000D01*
X126238000Y-65405000D01*
X126218000Y-65405000D01*
X126218000Y-65151000D01*
X126238000Y-65151000D01*
X126238000Y-62865000D01*
X126492000Y-62865000D01*
X126492000Y-65151000D01*
X127685155Y-65151000D01*
X127806476Y-64921110D01*
X127761825Y-64773901D01*
X127636641Y-64511080D01*
X127462588Y-64277731D01*
X127246355Y-64082822D01*
X127120745Y-64008000D01*
X127246355Y-63933178D01*
X127462588Y-63738269D01*
X127636641Y-63504920D01*
X127761825Y-63242099D01*
X127806476Y-63094890D01*
X127685155Y-62865000D01*
X126492000Y-62865000D01*
X126238000Y-62865000D01*
X126218000Y-62865000D01*
X126218000Y-62611000D01*
X126238000Y-62611000D01*
X126238000Y-61417186D01*
X126492000Y-61417186D01*
X126492000Y-62611000D01*
X127685155Y-62611000D01*
X127806476Y-62381110D01*
X127761825Y-62233901D01*
X127636641Y-61971080D01*
X127462588Y-61737731D01*
X127246355Y-61542822D01*
X126996252Y-61393843D01*
X126721891Y-61296519D01*
X126492000Y-61417186D01*
X126238000Y-61417186D01*
X126008109Y-61296519D01*
X125733748Y-61393843D01*
X125483645Y-61542822D01*
X125287498Y-61719626D01*
X125264502Y-61643820D01*
X125205537Y-61533506D01*
X125126185Y-61436815D01*
X125029494Y-61357463D01*
X124919180Y-61298498D01*
X124799482Y-61262188D01*
X124675000Y-61249928D01*
X122975000Y-61249928D01*
X122850518Y-61262188D01*
X122730820Y-61298498D01*
X122620506Y-61357463D01*
X122523815Y-61436815D01*
X122444463Y-61533506D01*
X122385498Y-61643820D01*
X122349188Y-61763518D01*
X122336928Y-61888000D01*
X122336928Y-62962501D01*
X67029210Y-62962501D01*
X66985273Y-62918564D01*
X66815755Y-62805296D01*
X66627397Y-62727275D01*
X66427438Y-62687501D01*
X66223560Y-62687501D01*
X66023601Y-62727275D01*
X65835243Y-62805296D01*
X65665725Y-62918564D01*
X65621788Y-62962501D01*
X58129350Y-62962501D01*
X58146976Y-62904390D01*
X58025655Y-62674500D01*
X56832500Y-62674500D01*
X56832500Y-62694500D01*
X56578500Y-62694500D01*
X56578500Y-62674500D01*
X56558500Y-62674500D01*
X56558500Y-62420500D01*
X56578500Y-62420500D01*
X56578500Y-61226686D01*
X56832500Y-61226686D01*
X56832500Y-62420500D01*
X58025655Y-62420500D01*
X58146976Y-62190610D01*
X58102325Y-62043401D01*
X57977141Y-61780580D01*
X57803088Y-61547231D01*
X57671922Y-61429000D01*
X86332428Y-61429000D01*
X86344688Y-61553482D01*
X86380998Y-61673180D01*
X86439963Y-61783494D01*
X86519315Y-61880185D01*
X86616006Y-61959537D01*
X86726320Y-62018502D01*
X86846018Y-62054812D01*
X86970500Y-62067072D01*
X87534750Y-62064000D01*
X87693500Y-61905250D01*
X87693500Y-60706000D01*
X86494250Y-60706000D01*
X86335500Y-60864750D01*
X86332428Y-61429000D01*
X57671922Y-61429000D01*
X57586855Y-61352322D01*
X57336752Y-61203343D01*
X57062391Y-61106019D01*
X56832500Y-61226686D01*
X56578500Y-61226686D01*
X56348609Y-61106019D01*
X56074248Y-61203343D01*
X55824145Y-61352322D01*
X55627998Y-61529126D01*
X55605002Y-61453320D01*
X55546037Y-61343006D01*
X55466685Y-61246315D01*
X55369994Y-61166963D01*
X55259680Y-61107998D01*
X55139982Y-61071688D01*
X55015500Y-61059428D01*
X53315500Y-61059428D01*
X53191018Y-61071688D01*
X53071320Y-61107998D01*
X52961006Y-61166963D01*
X52864315Y-61246315D01*
X52784963Y-61343006D01*
X52725998Y-61453320D01*
X52689688Y-61573018D01*
X52677428Y-61697500D01*
X44665500Y-61697500D01*
X44665500Y-52222000D01*
X47470628Y-52222000D01*
X46872843Y-52469611D01*
%TA.AperFunction,Conductor*%
D16*
G36*
X46872843Y-52469611D02*
G01*
X46195591Y-52922136D01*
X45619636Y-53498091D01*
X45167111Y-54175343D01*
X44855406Y-54927865D01*
X44696500Y-55726738D01*
X44696500Y-56541262D01*
X44855406Y-57340135D01*
X45167111Y-58092657D01*
X45619636Y-58769909D01*
X46195591Y-59345864D01*
X46872843Y-59798389D01*
X47625365Y-60110094D01*
X48424238Y-60269000D01*
X49238762Y-60269000D01*
X50037635Y-60110094D01*
X50790157Y-59798389D01*
X50894005Y-59729000D01*
X86332428Y-59729000D01*
X86335500Y-60293250D01*
X86494250Y-60452000D01*
X87693500Y-60452000D01*
X87693500Y-59252750D01*
X87947500Y-59252750D01*
X87947500Y-60452000D01*
X87967500Y-60452000D01*
X87967500Y-60706000D01*
X87947500Y-60706000D01*
X87947500Y-61905250D01*
X88106250Y-62064000D01*
X88670500Y-62067072D01*
X88794982Y-62054812D01*
X88914680Y-62018502D01*
X89024994Y-61959537D01*
X89121685Y-61880185D01*
X89201037Y-61783494D01*
X89260002Y-61673180D01*
X89282013Y-61600620D01*
X89413868Y-61732475D01*
X89657089Y-61894990D01*
X89927342Y-62006932D01*
X90214240Y-62064000D01*
X90506760Y-62064000D01*
X90793658Y-62006932D01*
X91063911Y-61894990D01*
X91307132Y-61732475D01*
X91513975Y-61525632D01*
X91676490Y-61282411D01*
X91788432Y-61012158D01*
X91845500Y-60725260D01*
X91845500Y-60432740D01*
X91788432Y-60145842D01*
X91676490Y-59875589D01*
X91513975Y-59632368D01*
X91307132Y-59425525D01*
X91063911Y-59263010D01*
X90793658Y-59151068D01*
X90506760Y-59094000D01*
X90214240Y-59094000D01*
X89927342Y-59151068D01*
X89657089Y-59263010D01*
X89413868Y-59425525D01*
X89282013Y-59557380D01*
X89260002Y-59484820D01*
X89201037Y-59374506D01*
X89121685Y-59277815D01*
X89024994Y-59198463D01*
X88914680Y-59139498D01*
X88794982Y-59103188D01*
X88670500Y-59090928D01*
X88106250Y-59094000D01*
X87947500Y-59252750D01*
X87693500Y-59252750D01*
X87534750Y-59094000D01*
X86970500Y-59090928D01*
X86846018Y-59103188D01*
X86726320Y-59139498D01*
X86616006Y-59198463D01*
X86519315Y-59277815D01*
X86439963Y-59374506D01*
X86380998Y-59484820D01*
X86344688Y-59604518D01*
X86332428Y-59729000D01*
X50894005Y-59729000D01*
X51467409Y-59345864D01*
X52043364Y-58769909D01*
X52495889Y-58092657D01*
X52807594Y-57340135D01*
X52966500Y-56541262D01*
X52966500Y-56107738D01*
X123944500Y-56107738D01*
X123944500Y-56922262D01*
X124103406Y-57721135D01*
X124415111Y-58473657D01*
X124867636Y-59150909D01*
X125443591Y-59726864D01*
X126120843Y-60179389D01*
X126873365Y-60491094D01*
X127672238Y-60650000D01*
X128486762Y-60650000D01*
X129285635Y-60491094D01*
X130038157Y-60179389D01*
X130715409Y-59726864D01*
X131291364Y-59150909D01*
X131743889Y-58473657D01*
X132055594Y-57721135D01*
X132214500Y-56922262D01*
X132214500Y-56107738D01*
X132055594Y-55308865D01*
X131743889Y-54556343D01*
X131291364Y-53879091D01*
X130715409Y-53303136D01*
X130038157Y-52850611D01*
X129285635Y-52538906D01*
X128486762Y-52380000D01*
X127672238Y-52380000D01*
X126873365Y-52538906D01*
X126120843Y-52850611D01*
X125443591Y-53303136D01*
X124867636Y-53879091D01*
X124415111Y-54556343D01*
X124103406Y-55308865D01*
X123944500Y-56107738D01*
X52966500Y-56107738D01*
X52966500Y-55726738D01*
X52807594Y-54927865D01*
X52495889Y-54175343D01*
X52043364Y-53498091D01*
X51467409Y-52922136D01*
X50790157Y-52469611D01*
X50192372Y-52222000D01*
X132754014Y-52222000D01*
X132812205Y-127114354D01*
X132505889Y-126374843D01*
X132053364Y-125697591D01*
X131477409Y-125121636D01*
X130800157Y-124669111D01*
X130047635Y-124357406D01*
X129248762Y-124198500D01*
X128434238Y-124198500D01*
X127635365Y-124357406D01*
X126882843Y-124669111D01*
X126205591Y-125121636D01*
X125629636Y-125697591D01*
X125177111Y-126374843D01*
X124865406Y-127127365D01*
X124706500Y-127926238D01*
X124706500Y-128740762D01*
X124865406Y-129539635D01*
X125177111Y-130292157D01*
X125629636Y-130969409D01*
X126205591Y-131545364D01*
X126882843Y-131997889D01*
X127635365Y-132309594D01*
X128434238Y-132468500D01*
X129248762Y-132468500D01*
X130047635Y-132309594D01*
X130800157Y-131997889D01*
X131477409Y-131545364D01*
X132053364Y-130969409D01*
X132505889Y-130292157D01*
X132814096Y-129548081D01*
X132816488Y-132626500D01*
X49021150Y-132626500D01*
X49656635Y-132500094D01*
X50409157Y-132188389D01*
X51086409Y-131735864D01*
X51662364Y-131159909D01*
X52114889Y-130482657D01*
X52426594Y-129730135D01*
X52585500Y-128931262D01*
X52585500Y-128116738D01*
X52426594Y-127317865D01*
X52114889Y-126565343D01*
X51662364Y-125888091D01*
X51086409Y-125312136D01*
X50409157Y-124859611D01*
X49656635Y-124547906D01*
X48857762Y-124389000D01*
X48043238Y-124389000D01*
X47244365Y-124547906D01*
X46491843Y-124859611D01*
X45814591Y-125312136D01*
X45238636Y-125888091D01*
X44786111Y-126565343D01*
X44665500Y-126856524D01*
X44665500Y-61697500D01*
X52677428Y-61697500D01*
X52677428Y-63397500D01*
X52689688Y-63521982D01*
X52725998Y-63641680D01*
X52784963Y-63751994D01*
X52864315Y-63848685D01*
X52961006Y-63928037D01*
X53071320Y-63987002D01*
X53143880Y-64009013D01*
X53012025Y-64140868D01*
X52849510Y-64384089D01*
X52737568Y-64654342D01*
X52680500Y-64941240D01*
X52680500Y-65233760D01*
X52737568Y-65520658D01*
X52849510Y-65790911D01*
X53012025Y-66034132D01*
X53218868Y-66240975D01*
X53393260Y-66357500D01*
X53218868Y-66474025D01*
X53012025Y-66680868D01*
X52849510Y-66924089D01*
X52737568Y-67194342D01*
X52680500Y-67481240D01*
X52680500Y-67773760D01*
X52737568Y-68060658D01*
X52849510Y-68330911D01*
X53012025Y-68574132D01*
X53218868Y-68780975D01*
X53393260Y-68897500D01*
X53218868Y-69014025D01*
X53012025Y-69220868D01*
X52849510Y-69464089D01*
X52737568Y-69734342D01*
X52680500Y-70021240D01*
X52680500Y-70313760D01*
X52737568Y-70600658D01*
X52849510Y-70870911D01*
X53012025Y-71114132D01*
X53218868Y-71320975D01*
X53393260Y-71437500D01*
X53218868Y-71554025D01*
X53012025Y-71760868D01*
X52849510Y-72004089D01*
X52737568Y-72274342D01*
X52680500Y-72561240D01*
X52680500Y-72853760D01*
X52737568Y-73140658D01*
X52849510Y-73410911D01*
X53012025Y-73654132D01*
X53218868Y-73860975D01*
X53393260Y-73977500D01*
X53218868Y-74094025D01*
X53012025Y-74300868D01*
X52849510Y-74544089D01*
X52737568Y-74814342D01*
X52680500Y-75101240D01*
X52680500Y-75393760D01*
X52737568Y-75680658D01*
X52849510Y-75950911D01*
X53012025Y-76194132D01*
X53218868Y-76400975D01*
X53393260Y-76517500D01*
X53218868Y-76634025D01*
X53012025Y-76840868D01*
X52849510Y-77084089D01*
X52737568Y-77354342D01*
X52680500Y-77641240D01*
X52680500Y-77933760D01*
X52737568Y-78220658D01*
X52849510Y-78490911D01*
X53012025Y-78734132D01*
X53218868Y-78940975D01*
X53393260Y-79057500D01*
X53218868Y-79174025D01*
X53012025Y-79380868D01*
X52849510Y-79624089D01*
X52737568Y-79894342D01*
X52680500Y-80181240D01*
X52680500Y-80473760D01*
X52737568Y-80760658D01*
X52849510Y-81030911D01*
X53012025Y-81274132D01*
X53218868Y-81480975D01*
X53393260Y-81597500D01*
X53218868Y-81714025D01*
X53012025Y-81920868D01*
X52849510Y-82164089D01*
X52737568Y-82434342D01*
X52680500Y-82721240D01*
X52680500Y-83013760D01*
X52737568Y-83300658D01*
X52849510Y-83570911D01*
X53012025Y-83814132D01*
X53218868Y-84020975D01*
X53393260Y-84137500D01*
X53218868Y-84254025D01*
X53012025Y-84460868D01*
X52849510Y-84704089D01*
X52737568Y-84974342D01*
X52680500Y-85261240D01*
X52680500Y-85553760D01*
X52737568Y-85840658D01*
X52849510Y-86110911D01*
X53012025Y-86354132D01*
X53218868Y-86560975D01*
X53393260Y-86677500D01*
X53218868Y-86794025D01*
X53012025Y-87000868D01*
X52849510Y-87244089D01*
X52737568Y-87514342D01*
X52680500Y-87801240D01*
X52680500Y-88093760D01*
X52737568Y-88380658D01*
X52849510Y-88650911D01*
X53012025Y-88894132D01*
X53218868Y-89100975D01*
X53393260Y-89217500D01*
X53218868Y-89334025D01*
X53012025Y-89540868D01*
X52849510Y-89784089D01*
X52737568Y-90054342D01*
X52680500Y-90341240D01*
X52680500Y-90633760D01*
X52737568Y-90920658D01*
X52849510Y-91190911D01*
X53012025Y-91434132D01*
X53218868Y-91640975D01*
X53393260Y-91757500D01*
X53218868Y-91874025D01*
X53012025Y-92080868D01*
X52849510Y-92324089D01*
X52737568Y-92594342D01*
X52680500Y-92881240D01*
X52680500Y-93173760D01*
X52737568Y-93460658D01*
X52849510Y-93730911D01*
X53012025Y-93974132D01*
X53218868Y-94180975D01*
X53393260Y-94297500D01*
X53218868Y-94414025D01*
X53012025Y-94620868D01*
X52849510Y-94864089D01*
X52737568Y-95134342D01*
X52680500Y-95421240D01*
X52680500Y-95713760D01*
X52737568Y-96000658D01*
X52849510Y-96270911D01*
X53012025Y-96514132D01*
X53218868Y-96720975D01*
X53393260Y-96837500D01*
X53218868Y-96954025D01*
X53012025Y-97160868D01*
X52849510Y-97404089D01*
X52737568Y-97674342D01*
X52680500Y-97961240D01*
X52680500Y-98253760D01*
X52737568Y-98540658D01*
X52849510Y-98810911D01*
X53012025Y-99054132D01*
X53218868Y-99260975D01*
X53393260Y-99377500D01*
X53218868Y-99494025D01*
X53012025Y-99700868D01*
X52849510Y-99944089D01*
X52737568Y-100214342D01*
X52680500Y-100501240D01*
X52680500Y-100793760D01*
X52737568Y-101080658D01*
X52849510Y-101350911D01*
X53012025Y-101594132D01*
X53218868Y-101800975D01*
X53393260Y-101917500D01*
X53218868Y-102034025D01*
X53012025Y-102240868D01*
X52849510Y-102484089D01*
X52737568Y-102754342D01*
X52680500Y-103041240D01*
X52680500Y-103333760D01*
X52737568Y-103620658D01*
X52849510Y-103890911D01*
X53012025Y-104134132D01*
X53218868Y-104340975D01*
X53393260Y-104457500D01*
X53218868Y-104574025D01*
X53012025Y-104780868D01*
X52849510Y-105024089D01*
X52737568Y-105294342D01*
X52680500Y-105581240D01*
X52680500Y-105873760D01*
X52737568Y-106160658D01*
X52849510Y-106430911D01*
X53012025Y-106674132D01*
X53218868Y-106880975D01*
X53393260Y-106997500D01*
X53218868Y-107114025D01*
X53012025Y-107320868D01*
X52849510Y-107564089D01*
X52737568Y-107834342D01*
X52680500Y-108121240D01*
X52680500Y-108413760D01*
X52737568Y-108700658D01*
X52849510Y-108970911D01*
X53012025Y-109214132D01*
X53218868Y-109420975D01*
X53393260Y-109537500D01*
X53218868Y-109654025D01*
X53012025Y-109860868D01*
X52849510Y-110104089D01*
X52737568Y-110374342D01*
X52680500Y-110661240D01*
X52680500Y-110953760D01*
X52737568Y-111240658D01*
X52849510Y-111510911D01*
X53012025Y-111754132D01*
X53218868Y-111960975D01*
X53462089Y-112123490D01*
X53732342Y-112235432D01*
X54019240Y-112292500D01*
X54311760Y-112292500D01*
X54531908Y-112248710D01*
X54776702Y-112493504D01*
X54800500Y-112522502D01*
X54916225Y-112617475D01*
X55048254Y-112688047D01*
X55191515Y-112731504D01*
X55303168Y-112742501D01*
X55303177Y-112742501D01*
X55340500Y-112746177D01*
X55377823Y-112742501D01*
X55949534Y-112742501D01*
X55915295Y-112793744D01*
X55837274Y-112982102D01*
X55797500Y-113182061D01*
X55797500Y-113385939D01*
X55837274Y-113585898D01*
X55915295Y-113774256D01*
X56028563Y-113943774D01*
X56172726Y-114087937D01*
X56342244Y-114201205D01*
X56530602Y-114279226D01*
X56730561Y-114319000D01*
X56934439Y-114319000D01*
X57134398Y-114279226D01*
X57322756Y-114201205D01*
X57492274Y-114087937D01*
X57636437Y-113943774D01*
X57749705Y-113774256D01*
X57827726Y-113585898D01*
X57867500Y-113385939D01*
X57867500Y-113345500D01*
X65796628Y-113345500D01*
X65754815Y-113379815D01*
X65675463Y-113476506D01*
X65616498Y-113586820D01*
X65580188Y-113706518D01*
X65567928Y-113831000D01*
X65567928Y-115531000D01*
X65580188Y-115655482D01*
X65616498Y-115775180D01*
X65675463Y-115885494D01*
X65754815Y-115982185D01*
X65851506Y-116061537D01*
X65961820Y-116120502D01*
X66081518Y-116156812D01*
X66206000Y-116169072D01*
X67906000Y-116169072D01*
X68030482Y-116156812D01*
X68150180Y-116120502D01*
X68260494Y-116061537D01*
X68357185Y-115982185D01*
X68436537Y-115885494D01*
X68495502Y-115775180D01*
X68517513Y-115702620D01*
X68649368Y-115834475D01*
X68892589Y-115996990D01*
X69162842Y-116108932D01*
X69449740Y-116166000D01*
X69742260Y-116166000D01*
X70029158Y-116108932D01*
X70299411Y-115996990D01*
X70542632Y-115834475D01*
X70749475Y-115627632D01*
X70866000Y-115453240D01*
X70982525Y-115627632D01*
X71189368Y-115834475D01*
X71432589Y-115996990D01*
X71702842Y-116108932D01*
X71989740Y-116166000D01*
X72282260Y-116166000D01*
X72569158Y-116108932D01*
X72839411Y-115996990D01*
X73082632Y-115834475D01*
X73289475Y-115627632D01*
X73406000Y-115453240D01*
X73522525Y-115627632D01*
X73729368Y-115834475D01*
X73972589Y-115996990D01*
X74242842Y-116108932D01*
X74529740Y-116166000D01*
X74822260Y-116166000D01*
X75109158Y-116108932D01*
X75379411Y-115996990D01*
X75622632Y-115834475D01*
X75829475Y-115627632D01*
X75946000Y-115453240D01*
X76062525Y-115627632D01*
X76269368Y-115834475D01*
X76512589Y-115996990D01*
X76782842Y-116108932D01*
X77069740Y-116166000D01*
X77362260Y-116166000D01*
X77649158Y-116108932D01*
X77919411Y-115996990D01*
X78162632Y-115834475D01*
X78369475Y-115627632D01*
X78486000Y-115453240D01*
X78602525Y-115627632D01*
X78809368Y-115834475D01*
X79052589Y-115996990D01*
X79322842Y-116108932D01*
X79609740Y-116166000D01*
X79902260Y-116166000D01*
X80189158Y-116108932D01*
X80459411Y-115996990D01*
X80702632Y-115834475D01*
X80909475Y-115627632D01*
X81026000Y-115453240D01*
X81142525Y-115627632D01*
X81349368Y-115834475D01*
X81592589Y-115996990D01*
X81862842Y-116108932D01*
X82149740Y-116166000D01*
X82442260Y-116166000D01*
X82729158Y-116108932D01*
X82999411Y-115996990D01*
X83242632Y-115834475D01*
X83449475Y-115627632D01*
X83566000Y-115453240D01*
X83682525Y-115627632D01*
X83889368Y-115834475D01*
X84132589Y-115996990D01*
X84402842Y-116108932D01*
X84689740Y-116166000D01*
X84982260Y-116166000D01*
X85269158Y-116108932D01*
X85539411Y-115996990D01*
X85782632Y-115834475D01*
X85989475Y-115627632D01*
X86106000Y-115453240D01*
X86222525Y-115627632D01*
X86429368Y-115834475D01*
X86672589Y-115996990D01*
X86942842Y-116108932D01*
X87229740Y-116166000D01*
X87522260Y-116166000D01*
X87809158Y-116108932D01*
X88079411Y-115996990D01*
X88322632Y-115834475D01*
X88529475Y-115627632D01*
X88646000Y-115453240D01*
X88762525Y-115627632D01*
X88969368Y-115834475D01*
X89212589Y-115996990D01*
X89482842Y-116108932D01*
X89769740Y-116166000D01*
X90062260Y-116166000D01*
X90349158Y-116108932D01*
X90619411Y-115996990D01*
X90862632Y-115834475D01*
X91069475Y-115627632D01*
X91186000Y-115453240D01*
X91302525Y-115627632D01*
X91509368Y-115834475D01*
X91752589Y-115996990D01*
X92022842Y-116108932D01*
X92309740Y-116166000D01*
X92602260Y-116166000D01*
X92889158Y-116108932D01*
X93159411Y-115996990D01*
X93402632Y-115834475D01*
X93609475Y-115627632D01*
X93726000Y-115453240D01*
X93842525Y-115627632D01*
X94049368Y-115834475D01*
X94292589Y-115996990D01*
X94562842Y-116108932D01*
X94849740Y-116166000D01*
X95142260Y-116166000D01*
X95429158Y-116108932D01*
X95699411Y-115996990D01*
X95942632Y-115834475D01*
X96149475Y-115627632D01*
X96266000Y-115453240D01*
X96382525Y-115627632D01*
X96589368Y-115834475D01*
X96832589Y-115996990D01*
X97102842Y-116108932D01*
X97389740Y-116166000D01*
X97682260Y-116166000D01*
X97969158Y-116108932D01*
X98239411Y-115996990D01*
X98482632Y-115834475D01*
X98689475Y-115627632D01*
X98806000Y-115453240D01*
X98922525Y-115627632D01*
X99129368Y-115834475D01*
X99372589Y-115996990D01*
X99642842Y-116108932D01*
X99929740Y-116166000D01*
X100222260Y-116166000D01*
X100509158Y-116108932D01*
X100779411Y-115996990D01*
X101022632Y-115834475D01*
X101229475Y-115627632D01*
X101346000Y-115453240D01*
X101462525Y-115627632D01*
X101669368Y-115834475D01*
X101912589Y-115996990D01*
X102182842Y-116108932D01*
X102469740Y-116166000D01*
X102762260Y-116166000D01*
X103049158Y-116108932D01*
X103319411Y-115996990D01*
X103562632Y-115834475D01*
X103769475Y-115627632D01*
X103886000Y-115453240D01*
X104002525Y-115627632D01*
X104209368Y-115834475D01*
X104452589Y-115996990D01*
X104722842Y-116108932D01*
X105009740Y-116166000D01*
X105302260Y-116166000D01*
X105589158Y-116108932D01*
X105859411Y-115996990D01*
X106102632Y-115834475D01*
X106309475Y-115627632D01*
X106426000Y-115453240D01*
X106542525Y-115627632D01*
X106749368Y-115834475D01*
X106992589Y-115996990D01*
X107262842Y-116108932D01*
X107549740Y-116166000D01*
X107842260Y-116166000D01*
X108129158Y-116108932D01*
X108399411Y-115996990D01*
X108642632Y-115834475D01*
X108849475Y-115627632D01*
X108966000Y-115453240D01*
X109082525Y-115627632D01*
X109289368Y-115834475D01*
X109532589Y-115996990D01*
X109802842Y-116108932D01*
X110089740Y-116166000D01*
X110382260Y-116166000D01*
X110669158Y-116108932D01*
X110939411Y-115996990D01*
X111182632Y-115834475D01*
X111389475Y-115627632D01*
X111506000Y-115453240D01*
X111622525Y-115627632D01*
X111829368Y-115834475D01*
X112072589Y-115996990D01*
X112342842Y-116108932D01*
X112629740Y-116166000D01*
X112922260Y-116166000D01*
X113209158Y-116108932D01*
X113479411Y-115996990D01*
X113722632Y-115834475D01*
X113929475Y-115627632D01*
X114091990Y-115384411D01*
X114203932Y-115114158D01*
X114261000Y-114827260D01*
X114261000Y-114534740D01*
X114203932Y-114247842D01*
X114091990Y-113977589D01*
X113929475Y-113734368D01*
X113722632Y-113527525D01*
X113479411Y-113365010D01*
X113432310Y-113345500D01*
X115374289Y-113345500D01*
X115418226Y-113389437D01*
X115587744Y-113502705D01*
X115776102Y-113580726D01*
X115976061Y-113620500D01*
X116179939Y-113620500D01*
X116379898Y-113580726D01*
X116568256Y-113502705D01*
X116737774Y-113389437D01*
X116781711Y-113345500D01*
X123939180Y-113345500D01*
X123976502Y-113349176D01*
X124013824Y-113345500D01*
X124013835Y-113345500D01*
X124125488Y-113334503D01*
X124268749Y-113291046D01*
X124400778Y-113220474D01*
X124516503Y-113125501D01*
X124540306Y-113096497D01*
X125458508Y-112178296D01*
X125661589Y-112313990D01*
X125931842Y-112425932D01*
X126218740Y-112483000D01*
X126511260Y-112483000D01*
X126798158Y-112425932D01*
X127068411Y-112313990D01*
X127311632Y-112151475D01*
X127518475Y-111944632D01*
X127680990Y-111701411D01*
X127792932Y-111431158D01*
X127850000Y-111144260D01*
X127850000Y-110851740D01*
X127792932Y-110564842D01*
X127680990Y-110294589D01*
X127518475Y-110051368D01*
X127311632Y-109844525D01*
X127129466Y-109722805D01*
X127246355Y-109653178D01*
X127462588Y-109458269D01*
X127636641Y-109224920D01*
X127761825Y-108962099D01*
X127806476Y-108814890D01*
X127685155Y-108585000D01*
X126492000Y-108585000D01*
X126492000Y-108605000D01*
X126238000Y-108605000D01*
X126238000Y-108585000D01*
X126218000Y-108585000D01*
X126218000Y-108331000D01*
X126238000Y-108331000D01*
X126238000Y-106045000D01*
X126492000Y-106045000D01*
X126492000Y-108331000D01*
X127685155Y-108331000D01*
X127806476Y-108101110D01*
X127761825Y-107953901D01*
X127636641Y-107691080D01*
X127462588Y-107457731D01*
X127246355Y-107262822D01*
X127120745Y-107188000D01*
X127246355Y-107113178D01*
X127462588Y-106918269D01*
X127636641Y-106684920D01*
X127761825Y-106422099D01*
X127806476Y-106274890D01*
X127685155Y-106045000D01*
X126492000Y-106045000D01*
X126238000Y-106045000D01*
X126218000Y-106045000D01*
X126218000Y-105791000D01*
X126238000Y-105791000D01*
X126238000Y-103505000D01*
X126492000Y-103505000D01*
X126492000Y-105791000D01*
X127685155Y-105791000D01*
X127806476Y-105561110D01*
X127761825Y-105413901D01*
X127636641Y-105151080D01*
X127462588Y-104917731D01*
X127246355Y-104722822D01*
X127120745Y-104648000D01*
X127246355Y-104573178D01*
X127462588Y-104378269D01*
X127636641Y-104144920D01*
X127761825Y-103882099D01*
X127806476Y-103734890D01*
X127685155Y-103505000D01*
X126492000Y-103505000D01*
X126238000Y-103505000D01*
X126218000Y-103505000D01*
X126218000Y-103251000D01*
X126238000Y-103251000D01*
X126238000Y-100965000D01*
X126492000Y-100965000D01*
X126492000Y-103251000D01*
X127685155Y-103251000D01*
X127806476Y-103021110D01*
X127761825Y-102873901D01*
X127636641Y-102611080D01*
X127462588Y-102377731D01*
X127246355Y-102182822D01*
X127120745Y-102108000D01*
X127246355Y-102033178D01*
X127462588Y-101838269D01*
X127636641Y-101604920D01*
X127761825Y-101342099D01*
X127806476Y-101194890D01*
X127685155Y-100965000D01*
X126492000Y-100965000D01*
X126238000Y-100965000D01*
X126218000Y-100965000D01*
X126218000Y-100711000D01*
X126238000Y-100711000D01*
X126238000Y-98425000D01*
X126492000Y-98425000D01*
X126492000Y-100711000D01*
X127685155Y-100711000D01*
X127806476Y-100481110D01*
X127761825Y-100333901D01*
X127636641Y-100071080D01*
X127462588Y-99837731D01*
X127246355Y-99642822D01*
X127120745Y-99568000D01*
X127246355Y-99493178D01*
X127462588Y-99298269D01*
X127636641Y-99064920D01*
X127761825Y-98802099D01*
X127806476Y-98654890D01*
X127685155Y-98425000D01*
X126492000Y-98425000D01*
X126238000Y-98425000D01*
X126218000Y-98425000D01*
X126218000Y-98171000D01*
X126238000Y-98171000D01*
X126238000Y-95885000D01*
X126492000Y-95885000D01*
X126492000Y-98171000D01*
X127685155Y-98171000D01*
X127806476Y-97941110D01*
X127761825Y-97793901D01*
X127636641Y-97531080D01*
X127462588Y-97297731D01*
X127246355Y-97102822D01*
X127120745Y-97028000D01*
X127246355Y-96953178D01*
X127462588Y-96758269D01*
X127636641Y-96524920D01*
X127761825Y-96262099D01*
X127806476Y-96114890D01*
X127685155Y-95885000D01*
X126492000Y-95885000D01*
X126238000Y-95885000D01*
X126218000Y-95885000D01*
X126218000Y-95631000D01*
X126238000Y-95631000D01*
X126238000Y-93345000D01*
X126492000Y-93345000D01*
X126492000Y-95631000D01*
X127685155Y-95631000D01*
X127806476Y-95401110D01*
X127761825Y-95253901D01*
X127636641Y-94991080D01*
X127462588Y-94757731D01*
X127246355Y-94562822D01*
X127120745Y-94488000D01*
X127246355Y-94413178D01*
X127462588Y-94218269D01*
X127636641Y-93984920D01*
X127761825Y-93722099D01*
X127806476Y-93574890D01*
X127685155Y-93345000D01*
X126492000Y-93345000D01*
X126238000Y-93345000D01*
X126218000Y-93345000D01*
X126218000Y-93091000D01*
X126238000Y-93091000D01*
X126238000Y-90805000D01*
X126492000Y-90805000D01*
X126492000Y-93091000D01*
X127685155Y-93091000D01*
X127806476Y-92861110D01*
X127761825Y-92713901D01*
X127636641Y-92451080D01*
X127462588Y-92217731D01*
X127246355Y-92022822D01*
X127120745Y-91948000D01*
X127246355Y-91873178D01*
X127462588Y-91678269D01*
X127636641Y-91444920D01*
X127761825Y-91182099D01*
X127806476Y-91034890D01*
X127685155Y-90805000D01*
X126492000Y-90805000D01*
X126238000Y-90805000D01*
X126218000Y-90805000D01*
X126218000Y-90551000D01*
X126238000Y-90551000D01*
X126238000Y-88265000D01*
X126492000Y-88265000D01*
X126492000Y-90551000D01*
X127685155Y-90551000D01*
X127806476Y-90321110D01*
X127761825Y-90173901D01*
X127636641Y-89911080D01*
X127462588Y-89677731D01*
X127246355Y-89482822D01*
X127120745Y-89408000D01*
X127246355Y-89333178D01*
X127462588Y-89138269D01*
X127636641Y-88904920D01*
X127761825Y-88642099D01*
X127806476Y-88494890D01*
X127685155Y-88265000D01*
X126492000Y-88265000D01*
X126238000Y-88265000D01*
X126218000Y-88265000D01*
X126218000Y-88011000D01*
X126238000Y-88011000D01*
X126238000Y-85725000D01*
X126492000Y-85725000D01*
X126492000Y-88011000D01*
X127685155Y-88011000D01*
X127806476Y-87781110D01*
X127761825Y-87633901D01*
X127636641Y-87371080D01*
X127462588Y-87137731D01*
X127246355Y-86942822D01*
X127120745Y-86868000D01*
X127246355Y-86793178D01*
X127462588Y-86598269D01*
X127636641Y-86364920D01*
X127761825Y-86102099D01*
X127806476Y-85954890D01*
X127685155Y-85725000D01*
X126492000Y-85725000D01*
X126238000Y-85725000D01*
X126218000Y-85725000D01*
X126218000Y-85471000D01*
X126238000Y-85471000D01*
X126238000Y-83185000D01*
X126492000Y-83185000D01*
X126492000Y-85471000D01*
X127685155Y-85471000D01*
X127806476Y-85241110D01*
X127761825Y-85093901D01*
X127636641Y-84831080D01*
X127462588Y-84597731D01*
X127246355Y-84402822D01*
X127120745Y-84328000D01*
X127246355Y-84253178D01*
X127462588Y-84058269D01*
X127636641Y-83824920D01*
X127761825Y-83562099D01*
X127806476Y-83414890D01*
X127685155Y-83185000D01*
X126492000Y-83185000D01*
X126238000Y-83185000D01*
X126218000Y-83185000D01*
X126218000Y-82931000D01*
X126238000Y-82931000D01*
X126238000Y-80645000D01*
X126492000Y-80645000D01*
X126492000Y-82931000D01*
X127685155Y-82931000D01*
X127806476Y-82701110D01*
X127761825Y-82553901D01*
X127636641Y-82291080D01*
X127462588Y-82057731D01*
X127246355Y-81862822D01*
X127120745Y-81788000D01*
X127246355Y-81713178D01*
X127462588Y-81518269D01*
X127636641Y-81284920D01*
X127761825Y-81022099D01*
X127806476Y-80874890D01*
X127685155Y-80645000D01*
X126492000Y-80645000D01*
X126238000Y-80645000D01*
X126218000Y-80645000D01*
X126218000Y-80391000D01*
X126238000Y-80391000D01*
X126238000Y-78105000D01*
X126492000Y-78105000D01*
X126492000Y-80391000D01*
X127685155Y-80391000D01*
X127806476Y-80161110D01*
X127761825Y-80013901D01*
X127636641Y-79751080D01*
X127462588Y-79517731D01*
X127246355Y-79322822D01*
X127120745Y-79248000D01*
X127246355Y-79173178D01*
X127462588Y-78978269D01*
X127636641Y-78744920D01*
X127761825Y-78482099D01*
X127806476Y-78334890D01*
X127685155Y-78105000D01*
X126492000Y-78105000D01*
X126238000Y-78105000D01*
X126218000Y-78105000D01*
X126218000Y-77851000D01*
X126238000Y-77851000D01*
X126238000Y-75565000D01*
X126492000Y-75565000D01*
X126492000Y-77851000D01*
X127685155Y-77851000D01*
X127806476Y-77621110D01*
X127761825Y-77473901D01*
X127636641Y-77211080D01*
X127462588Y-76977731D01*
X127246355Y-76782822D01*
X127120745Y-76708000D01*
X127246355Y-76633178D01*
X127462588Y-76438269D01*
X127636641Y-76204920D01*
X127761825Y-75942099D01*
X127806476Y-75794890D01*
X127685155Y-75565000D01*
X126492000Y-75565000D01*
X126238000Y-75565000D01*
X126218000Y-75565000D01*
X126218000Y-75311000D01*
X126238000Y-75311000D01*
X126238000Y-73025000D01*
X126492000Y-73025000D01*
X126492000Y-75311000D01*
X127685155Y-75311000D01*
X127806476Y-75081110D01*
X127761825Y-74933901D01*
X127636641Y-74671080D01*
X127462588Y-74437731D01*
X127246355Y-74242822D01*
X127120745Y-74168000D01*
X127246355Y-74093178D01*
X127462588Y-73898269D01*
X127636641Y-73664920D01*
X127761825Y-73402099D01*
X127806476Y-73254890D01*
X127685155Y-73025000D01*
X126492000Y-73025000D01*
X126238000Y-73025000D01*
X126218000Y-73025000D01*
X126218000Y-72771000D01*
X126238000Y-72771000D01*
X126238000Y-70485000D01*
X126492000Y-70485000D01*
X126492000Y-72771000D01*
X127685155Y-72771000D01*
X127806476Y-72541110D01*
X127761825Y-72393901D01*
X127636641Y-72131080D01*
X127462588Y-71897731D01*
X127246355Y-71702822D01*
X127120745Y-71628000D01*
X127246355Y-71553178D01*
X127462588Y-71358269D01*
X127636641Y-71124920D01*
X127761825Y-70862099D01*
X127806476Y-70714890D01*
X127685155Y-70485000D01*
X126492000Y-70485000D01*
X126238000Y-70485000D01*
X126218000Y-70485000D01*
X126218000Y-70231000D01*
X126238000Y-70231000D01*
X126238000Y-67945000D01*
X126492000Y-67945000D01*
X126492000Y-70231000D01*
X127685155Y-70231000D01*
X127806476Y-70001110D01*
X127761825Y-69853901D01*
X127636641Y-69591080D01*
X127462588Y-69357731D01*
X127246355Y-69162822D01*
X127120745Y-69088000D01*
X127246355Y-69013178D01*
X127462588Y-68818269D01*
X127636641Y-68584920D01*
X127761825Y-68322099D01*
X127806476Y-68174890D01*
X127685155Y-67945000D01*
X126492000Y-67945000D01*
X126238000Y-67945000D01*
X126218000Y-67945000D01*
X126218000Y-67691000D01*
X126238000Y-67691000D01*
X126238000Y-65405000D01*
X126492000Y-65405000D01*
X126492000Y-67691000D01*
X127685155Y-67691000D01*
X127806476Y-67461110D01*
X127761825Y-67313901D01*
X127636641Y-67051080D01*
X127462588Y-66817731D01*
X127246355Y-66622822D01*
X127120745Y-66548000D01*
X127246355Y-66473178D01*
X127462588Y-66278269D01*
X127636641Y-66044920D01*
X127761825Y-65782099D01*
X127806476Y-65634890D01*
X127685155Y-65405000D01*
X126492000Y-65405000D01*
X126238000Y-65405000D01*
X126218000Y-65405000D01*
X126218000Y-65151000D01*
X126238000Y-65151000D01*
X126238000Y-62865000D01*
X126492000Y-62865000D01*
X126492000Y-65151000D01*
X127685155Y-65151000D01*
X127806476Y-64921110D01*
X127761825Y-64773901D01*
X127636641Y-64511080D01*
X127462588Y-64277731D01*
X127246355Y-64082822D01*
X127120745Y-64008000D01*
X127246355Y-63933178D01*
X127462588Y-63738269D01*
X127636641Y-63504920D01*
X127761825Y-63242099D01*
X127806476Y-63094890D01*
X127685155Y-62865000D01*
X126492000Y-62865000D01*
X126238000Y-62865000D01*
X126218000Y-62865000D01*
X126218000Y-62611000D01*
X126238000Y-62611000D01*
X126238000Y-61417186D01*
X126492000Y-61417186D01*
X126492000Y-62611000D01*
X127685155Y-62611000D01*
X127806476Y-62381110D01*
X127761825Y-62233901D01*
X127636641Y-61971080D01*
X127462588Y-61737731D01*
X127246355Y-61542822D01*
X126996252Y-61393843D01*
X126721891Y-61296519D01*
X126492000Y-61417186D01*
X126238000Y-61417186D01*
X126008109Y-61296519D01*
X125733748Y-61393843D01*
X125483645Y-61542822D01*
X125287498Y-61719626D01*
X125264502Y-61643820D01*
X125205537Y-61533506D01*
X125126185Y-61436815D01*
X125029494Y-61357463D01*
X124919180Y-61298498D01*
X124799482Y-61262188D01*
X124675000Y-61249928D01*
X122975000Y-61249928D01*
X122850518Y-61262188D01*
X122730820Y-61298498D01*
X122620506Y-61357463D01*
X122523815Y-61436815D01*
X122444463Y-61533506D01*
X122385498Y-61643820D01*
X122349188Y-61763518D01*
X122336928Y-61888000D01*
X122336928Y-62962501D01*
X67029210Y-62962501D01*
X66985273Y-62918564D01*
X66815755Y-62805296D01*
X66627397Y-62727275D01*
X66427438Y-62687501D01*
X66223560Y-62687501D01*
X66023601Y-62727275D01*
X65835243Y-62805296D01*
X65665725Y-62918564D01*
X65621788Y-62962501D01*
X58129350Y-62962501D01*
X58146976Y-62904390D01*
X58025655Y-62674500D01*
X56832500Y-62674500D01*
X56832500Y-62694500D01*
X56578500Y-62694500D01*
X56578500Y-62674500D01*
X56558500Y-62674500D01*
X56558500Y-62420500D01*
X56578500Y-62420500D01*
X56578500Y-61226686D01*
X56832500Y-61226686D01*
X56832500Y-62420500D01*
X58025655Y-62420500D01*
X58146976Y-62190610D01*
X58102325Y-62043401D01*
X57977141Y-61780580D01*
X57803088Y-61547231D01*
X57671922Y-61429000D01*
X86332428Y-61429000D01*
X86344688Y-61553482D01*
X86380998Y-61673180D01*
X86439963Y-61783494D01*
X86519315Y-61880185D01*
X86616006Y-61959537D01*
X86726320Y-62018502D01*
X86846018Y-62054812D01*
X86970500Y-62067072D01*
X87534750Y-62064000D01*
X87693500Y-61905250D01*
X87693500Y-60706000D01*
X86494250Y-60706000D01*
X86335500Y-60864750D01*
X86332428Y-61429000D01*
X57671922Y-61429000D01*
X57586855Y-61352322D01*
X57336752Y-61203343D01*
X57062391Y-61106019D01*
X56832500Y-61226686D01*
X56578500Y-61226686D01*
X56348609Y-61106019D01*
X56074248Y-61203343D01*
X55824145Y-61352322D01*
X55627998Y-61529126D01*
X55605002Y-61453320D01*
X55546037Y-61343006D01*
X55466685Y-61246315D01*
X55369994Y-61166963D01*
X55259680Y-61107998D01*
X55139982Y-61071688D01*
X55015500Y-61059428D01*
X53315500Y-61059428D01*
X53191018Y-61071688D01*
X53071320Y-61107998D01*
X52961006Y-61166963D01*
X52864315Y-61246315D01*
X52784963Y-61343006D01*
X52725998Y-61453320D01*
X52689688Y-61573018D01*
X52677428Y-61697500D01*
X44665500Y-61697500D01*
X44665500Y-52222000D01*
X47470628Y-52222000D01*
X46872843Y-52469611D01*
G37*
%TD.AperFunction*%
D15*
X104654725Y-107706438D02*
X104824243Y-107819706D01*
X105012601Y-107897727D01*
X105212560Y-107937501D01*
X105416438Y-107937501D01*
X105616397Y-107897727D01*
X105804755Y-107819706D01*
X105974273Y-107706438D01*
X106018210Y-107662501D01*
X122570541Y-107662501D01*
X122509010Y-107754589D01*
X122397068Y-108024842D01*
X122340000Y-108311740D01*
X122340000Y-108604260D01*
X122355563Y-108682501D01*
X108304210Y-108682501D01*
X108260273Y-108638564D01*
X108090755Y-108525296D01*
X107902397Y-108447275D01*
X107702438Y-108407501D01*
X107498560Y-108407501D01*
X107298601Y-108447275D01*
X107110243Y-108525296D01*
X106940725Y-108638564D01*
X106896788Y-108682501D01*
X58129350Y-108682501D01*
X58146976Y-108624390D01*
X58025655Y-108394500D01*
X56832500Y-108394500D01*
X56832500Y-108414500D01*
X56578500Y-108414500D01*
X56578500Y-108394500D01*
X56558500Y-108394500D01*
X56558500Y-108140500D01*
X56578500Y-108140500D01*
X56578500Y-108120500D01*
X56832500Y-108120500D01*
X56832500Y-108140500D01*
X58025655Y-108140500D01*
X58146976Y-107910610D01*
X58102325Y-107763401D01*
X58054265Y-107662501D01*
X104610788Y-107662501D01*
X104654725Y-107706438D01*
%TA.AperFunction,Conductor*%
D16*
G36*
X104654725Y-107706438D02*
G01*
X104824243Y-107819706D01*
X105012601Y-107897727D01*
X105212560Y-107937501D01*
X105416438Y-107937501D01*
X105616397Y-107897727D01*
X105804755Y-107819706D01*
X105974273Y-107706438D01*
X106018210Y-107662501D01*
X122570541Y-107662501D01*
X122509010Y-107754589D01*
X122397068Y-108024842D01*
X122340000Y-108311740D01*
X122340000Y-108604260D01*
X122355563Y-108682501D01*
X108304210Y-108682501D01*
X108260273Y-108638564D01*
X108090755Y-108525296D01*
X107902397Y-108447275D01*
X107702438Y-108407501D01*
X107498560Y-108407501D01*
X107298601Y-108447275D01*
X107110243Y-108525296D01*
X106940725Y-108638564D01*
X106896788Y-108682501D01*
X58129350Y-108682501D01*
X58146976Y-108624390D01*
X58025655Y-108394500D01*
X56832500Y-108394500D01*
X56832500Y-108414500D01*
X56578500Y-108414500D01*
X56578500Y-108394500D01*
X56558500Y-108394500D01*
X56558500Y-108140500D01*
X56578500Y-108140500D01*
X56578500Y-108120500D01*
X56832500Y-108120500D01*
X56832500Y-108140500D01*
X58025655Y-108140500D01*
X58146976Y-107910610D01*
X58102325Y-107763401D01*
X58054265Y-107662501D01*
X104610788Y-107662501D01*
X104654725Y-107706438D01*
G37*
%TD.AperFunction*%
D15*
X102305225Y-105166438D02*
X102474743Y-105279706D01*
X102663101Y-105357727D01*
X102863060Y-105397501D01*
X103066938Y-105397501D01*
X103266897Y-105357727D01*
X103455255Y-105279706D01*
X103624773Y-105166438D01*
X103668710Y-105122501D01*
X122570541Y-105122501D01*
X122509010Y-105214589D01*
X122397068Y-105484842D01*
X122340000Y-105771740D01*
X122340000Y-106064260D01*
X122355563Y-106142501D01*
X106018210Y-106142501D01*
X105974273Y-106098564D01*
X105804755Y-105985296D01*
X105616397Y-105907275D01*
X105416438Y-105867501D01*
X105212560Y-105867501D01*
X105012601Y-105907275D01*
X104824243Y-105985296D01*
X104654725Y-106098564D01*
X104610788Y-106142501D01*
X58129350Y-106142501D01*
X58146976Y-106084390D01*
X58025655Y-105854500D01*
X56832500Y-105854500D01*
X56832500Y-105874500D01*
X56578500Y-105874500D01*
X56578500Y-105854500D01*
X56558500Y-105854500D01*
X56558500Y-105600500D01*
X56578500Y-105600500D01*
X56578500Y-105580500D01*
X56832500Y-105580500D01*
X56832500Y-105600500D01*
X58025655Y-105600500D01*
X58146976Y-105370610D01*
X58102325Y-105223401D01*
X58054265Y-105122501D01*
X102261288Y-105122501D01*
X102305225Y-105166438D01*
%TA.AperFunction,Conductor*%
D16*
G36*
X102305225Y-105166438D02*
G01*
X102474743Y-105279706D01*
X102663101Y-105357727D01*
X102863060Y-105397501D01*
X103066938Y-105397501D01*
X103266897Y-105357727D01*
X103455255Y-105279706D01*
X103624773Y-105166438D01*
X103668710Y-105122501D01*
X122570541Y-105122501D01*
X122509010Y-105214589D01*
X122397068Y-105484842D01*
X122340000Y-105771740D01*
X122340000Y-106064260D01*
X122355563Y-106142501D01*
X106018210Y-106142501D01*
X105974273Y-106098564D01*
X105804755Y-105985296D01*
X105616397Y-105907275D01*
X105416438Y-105867501D01*
X105212560Y-105867501D01*
X105012601Y-105907275D01*
X104824243Y-105985296D01*
X104654725Y-106098564D01*
X104610788Y-106142501D01*
X58129350Y-106142501D01*
X58146976Y-106084390D01*
X58025655Y-105854500D01*
X56832500Y-105854500D01*
X56832500Y-105874500D01*
X56578500Y-105874500D01*
X56578500Y-105854500D01*
X56558500Y-105854500D01*
X56558500Y-105600500D01*
X56578500Y-105600500D01*
X56578500Y-105580500D01*
X56832500Y-105580500D01*
X56832500Y-105600500D01*
X58025655Y-105600500D01*
X58146976Y-105370610D01*
X58102325Y-105223401D01*
X58054265Y-105122501D01*
X102261288Y-105122501D01*
X102305225Y-105166438D01*
G37*
%TD.AperFunction*%
D15*
X99701725Y-102626438D02*
X99871243Y-102739706D01*
X100059601Y-102817727D01*
X100259560Y-102857501D01*
X100463438Y-102857501D01*
X100663397Y-102817727D01*
X100851755Y-102739706D01*
X101021273Y-102626438D01*
X101065210Y-102582501D01*
X122570541Y-102582501D01*
X122509010Y-102674589D01*
X122397068Y-102944842D01*
X122340000Y-103231740D01*
X122340000Y-103524260D01*
X122355563Y-103602501D01*
X103668710Y-103602501D01*
X103624773Y-103558564D01*
X103455255Y-103445296D01*
X103266897Y-103367275D01*
X103066938Y-103327501D01*
X102863060Y-103327501D01*
X102663101Y-103367275D01*
X102474743Y-103445296D01*
X102305225Y-103558564D01*
X102261288Y-103602501D01*
X58129350Y-103602501D01*
X58146976Y-103544390D01*
X58025655Y-103314500D01*
X56832500Y-103314500D01*
X56832500Y-103334500D01*
X56578500Y-103334500D01*
X56578500Y-103314500D01*
X56558500Y-103314500D01*
X56558500Y-103060500D01*
X56578500Y-103060500D01*
X56578500Y-103040500D01*
X56832500Y-103040500D01*
X56832500Y-103060500D01*
X58025655Y-103060500D01*
X58146976Y-102830610D01*
X58102325Y-102683401D01*
X58054265Y-102582501D01*
X99657788Y-102582501D01*
X99701725Y-102626438D01*
%TA.AperFunction,Conductor*%
D16*
G36*
X99701725Y-102626438D02*
G01*
X99871243Y-102739706D01*
X100059601Y-102817727D01*
X100259560Y-102857501D01*
X100463438Y-102857501D01*
X100663397Y-102817727D01*
X100851755Y-102739706D01*
X101021273Y-102626438D01*
X101065210Y-102582501D01*
X122570541Y-102582501D01*
X122509010Y-102674589D01*
X122397068Y-102944842D01*
X122340000Y-103231740D01*
X122340000Y-103524260D01*
X122355563Y-103602501D01*
X103668710Y-103602501D01*
X103624773Y-103558564D01*
X103455255Y-103445296D01*
X103266897Y-103367275D01*
X103066938Y-103327501D01*
X102863060Y-103327501D01*
X102663101Y-103367275D01*
X102474743Y-103445296D01*
X102305225Y-103558564D01*
X102261288Y-103602501D01*
X58129350Y-103602501D01*
X58146976Y-103544390D01*
X58025655Y-103314500D01*
X56832500Y-103314500D01*
X56832500Y-103334500D01*
X56578500Y-103334500D01*
X56578500Y-103314500D01*
X56558500Y-103314500D01*
X56558500Y-103060500D01*
X56578500Y-103060500D01*
X56578500Y-103040500D01*
X56832500Y-103040500D01*
X56832500Y-103060500D01*
X58025655Y-103060500D01*
X58146976Y-102830610D01*
X58102325Y-102683401D01*
X58054265Y-102582501D01*
X99657788Y-102582501D01*
X99701725Y-102626438D01*
G37*
%TD.AperFunction*%
D15*
X97542725Y-100086438D02*
X97712243Y-100199706D01*
X97900601Y-100277727D01*
X98100560Y-100317501D01*
X98304438Y-100317501D01*
X98504397Y-100277727D01*
X98692755Y-100199706D01*
X98862273Y-100086438D01*
X98906210Y-100042501D01*
X122570541Y-100042501D01*
X122509010Y-100134589D01*
X122397068Y-100404842D01*
X122340000Y-100691740D01*
X122340000Y-100984260D01*
X122355563Y-101062501D01*
X101065210Y-101062501D01*
X101021273Y-101018564D01*
X100851755Y-100905296D01*
X100663397Y-100827275D01*
X100463438Y-100787501D01*
X100259560Y-100787501D01*
X100059601Y-100827275D01*
X99871243Y-100905296D01*
X99701725Y-101018564D01*
X99657788Y-101062501D01*
X58129350Y-101062501D01*
X58146976Y-101004390D01*
X58025655Y-100774500D01*
X56832500Y-100774500D01*
X56832500Y-100794500D01*
X56578500Y-100794500D01*
X56578500Y-100774500D01*
X56558500Y-100774500D01*
X56558500Y-100520500D01*
X56578500Y-100520500D01*
X56578500Y-100500500D01*
X56832500Y-100500500D01*
X56832500Y-100520500D01*
X58025655Y-100520500D01*
X58146976Y-100290610D01*
X58102325Y-100143401D01*
X58054265Y-100042501D01*
X97498788Y-100042501D01*
X97542725Y-100086438D01*
%TA.AperFunction,Conductor*%
D16*
G36*
X97542725Y-100086438D02*
G01*
X97712243Y-100199706D01*
X97900601Y-100277727D01*
X98100560Y-100317501D01*
X98304438Y-100317501D01*
X98504397Y-100277727D01*
X98692755Y-100199706D01*
X98862273Y-100086438D01*
X98906210Y-100042501D01*
X122570541Y-100042501D01*
X122509010Y-100134589D01*
X122397068Y-100404842D01*
X122340000Y-100691740D01*
X122340000Y-100984260D01*
X122355563Y-101062501D01*
X101065210Y-101062501D01*
X101021273Y-101018564D01*
X100851755Y-100905296D01*
X100663397Y-100827275D01*
X100463438Y-100787501D01*
X100259560Y-100787501D01*
X100059601Y-100827275D01*
X99871243Y-100905296D01*
X99701725Y-101018564D01*
X99657788Y-101062501D01*
X58129350Y-101062501D01*
X58146976Y-101004390D01*
X58025655Y-100774500D01*
X56832500Y-100774500D01*
X56832500Y-100794500D01*
X56578500Y-100794500D01*
X56578500Y-100774500D01*
X56558500Y-100774500D01*
X56558500Y-100520500D01*
X56578500Y-100520500D01*
X56578500Y-100500500D01*
X56832500Y-100500500D01*
X56832500Y-100520500D01*
X58025655Y-100520500D01*
X58146976Y-100290610D01*
X58102325Y-100143401D01*
X58054265Y-100042501D01*
X97498788Y-100042501D01*
X97542725Y-100086438D01*
G37*
%TD.AperFunction*%
D15*
X94558225Y-97546438D02*
X94727743Y-97659706D01*
X94916101Y-97737727D01*
X95116060Y-97777501D01*
X95319938Y-97777501D01*
X95519897Y-97737727D01*
X95708255Y-97659706D01*
X95877773Y-97546438D01*
X95921710Y-97502501D01*
X122570541Y-97502501D01*
X122509010Y-97594589D01*
X122397068Y-97864842D01*
X122340000Y-98151740D01*
X122340000Y-98444260D01*
X122355563Y-98522501D01*
X98906210Y-98522501D01*
X98862273Y-98478564D01*
X98692755Y-98365296D01*
X98504397Y-98287275D01*
X98304438Y-98247501D01*
X98100560Y-98247501D01*
X97900601Y-98287275D01*
X97712243Y-98365296D01*
X97542725Y-98478564D01*
X97498788Y-98522501D01*
X58129350Y-98522501D01*
X58146976Y-98464390D01*
X58025655Y-98234500D01*
X56832500Y-98234500D01*
X56832500Y-98254500D01*
X56578500Y-98254500D01*
X56578500Y-98234500D01*
X56558500Y-98234500D01*
X56558500Y-97980500D01*
X56578500Y-97980500D01*
X56578500Y-97960500D01*
X56832500Y-97960500D01*
X56832500Y-97980500D01*
X58025655Y-97980500D01*
X58146976Y-97750610D01*
X58102325Y-97603401D01*
X58054265Y-97502501D01*
X94514288Y-97502501D01*
X94558225Y-97546438D01*
%TA.AperFunction,Conductor*%
D16*
G36*
X94558225Y-97546438D02*
G01*
X94727743Y-97659706D01*
X94916101Y-97737727D01*
X95116060Y-97777501D01*
X95319938Y-97777501D01*
X95519897Y-97737727D01*
X95708255Y-97659706D01*
X95877773Y-97546438D01*
X95921710Y-97502501D01*
X122570541Y-97502501D01*
X122509010Y-97594589D01*
X122397068Y-97864842D01*
X122340000Y-98151740D01*
X122340000Y-98444260D01*
X122355563Y-98522501D01*
X98906210Y-98522501D01*
X98862273Y-98478564D01*
X98692755Y-98365296D01*
X98504397Y-98287275D01*
X98304438Y-98247501D01*
X98100560Y-98247501D01*
X97900601Y-98287275D01*
X97712243Y-98365296D01*
X97542725Y-98478564D01*
X97498788Y-98522501D01*
X58129350Y-98522501D01*
X58146976Y-98464390D01*
X58025655Y-98234500D01*
X56832500Y-98234500D01*
X56832500Y-98254500D01*
X56578500Y-98254500D01*
X56578500Y-98234500D01*
X56558500Y-98234500D01*
X56558500Y-97980500D01*
X56578500Y-97980500D01*
X56578500Y-97960500D01*
X56832500Y-97960500D01*
X56832500Y-97980500D01*
X58025655Y-97980500D01*
X58146976Y-97750610D01*
X58102325Y-97603401D01*
X58054265Y-97502501D01*
X94514288Y-97502501D01*
X94558225Y-97546438D01*
G37*
%TD.AperFunction*%
D15*
X91827725Y-95006438D02*
X91997243Y-95119706D01*
X92185601Y-95197727D01*
X92385560Y-95237501D01*
X92589438Y-95237501D01*
X92789397Y-95197727D01*
X92977755Y-95119706D01*
X93147273Y-95006438D01*
X93191210Y-94962501D01*
X122570541Y-94962501D01*
X122509010Y-95054589D01*
X122397068Y-95324842D01*
X122340000Y-95611740D01*
X122340000Y-95904260D01*
X122355563Y-95982501D01*
X95921710Y-95982501D01*
X95877773Y-95938564D01*
X95708255Y-95825296D01*
X95519897Y-95747275D01*
X95319938Y-95707501D01*
X95116060Y-95707501D01*
X94916101Y-95747275D01*
X94727743Y-95825296D01*
X94558225Y-95938564D01*
X94514288Y-95982501D01*
X58129350Y-95982501D01*
X58146976Y-95924390D01*
X58025655Y-95694500D01*
X56832500Y-95694500D01*
X56832500Y-95714500D01*
X56578500Y-95714500D01*
X56578500Y-95694500D01*
X56558500Y-95694500D01*
X56558500Y-95440500D01*
X56578500Y-95440500D01*
X56578500Y-95420500D01*
X56832500Y-95420500D01*
X56832500Y-95440500D01*
X58025655Y-95440500D01*
X58146976Y-95210610D01*
X58102325Y-95063401D01*
X58054265Y-94962501D01*
X91783788Y-94962501D01*
X91827725Y-95006438D01*
%TA.AperFunction,Conductor*%
D16*
G36*
X91827725Y-95006438D02*
G01*
X91997243Y-95119706D01*
X92185601Y-95197727D01*
X92385560Y-95237501D01*
X92589438Y-95237501D01*
X92789397Y-95197727D01*
X92977755Y-95119706D01*
X93147273Y-95006438D01*
X93191210Y-94962501D01*
X122570541Y-94962501D01*
X122509010Y-95054589D01*
X122397068Y-95324842D01*
X122340000Y-95611740D01*
X122340000Y-95904260D01*
X122355563Y-95982501D01*
X95921710Y-95982501D01*
X95877773Y-95938564D01*
X95708255Y-95825296D01*
X95519897Y-95747275D01*
X95319938Y-95707501D01*
X95116060Y-95707501D01*
X94916101Y-95747275D01*
X94727743Y-95825296D01*
X94558225Y-95938564D01*
X94514288Y-95982501D01*
X58129350Y-95982501D01*
X58146976Y-95924390D01*
X58025655Y-95694500D01*
X56832500Y-95694500D01*
X56832500Y-95714500D01*
X56578500Y-95714500D01*
X56578500Y-95694500D01*
X56558500Y-95694500D01*
X56558500Y-95440500D01*
X56578500Y-95440500D01*
X56578500Y-95420500D01*
X56832500Y-95420500D01*
X56832500Y-95440500D01*
X58025655Y-95440500D01*
X58146976Y-95210610D01*
X58102325Y-95063401D01*
X58054265Y-94962501D01*
X91783788Y-94962501D01*
X91827725Y-95006438D01*
G37*
%TD.AperFunction*%
D15*
X89414725Y-92466438D02*
X89584243Y-92579706D01*
X89772601Y-92657727D01*
X89972560Y-92697501D01*
X90176438Y-92697501D01*
X90376397Y-92657727D01*
X90564755Y-92579706D01*
X90734273Y-92466438D01*
X90778210Y-92422501D01*
X122570541Y-92422501D01*
X122509010Y-92514589D01*
X122397068Y-92784842D01*
X122340000Y-93071740D01*
X122340000Y-93364260D01*
X122355563Y-93442501D01*
X93191210Y-93442501D01*
X93147273Y-93398564D01*
X92977755Y-93285296D01*
X92789397Y-93207275D01*
X92589438Y-93167501D01*
X92385560Y-93167501D01*
X92185601Y-93207275D01*
X91997243Y-93285296D01*
X91827725Y-93398564D01*
X91783788Y-93442501D01*
X58129350Y-93442501D01*
X58146976Y-93384390D01*
X58025655Y-93154500D01*
X56832500Y-93154500D01*
X56832500Y-93174500D01*
X56578500Y-93174500D01*
X56578500Y-93154500D01*
X56558500Y-93154500D01*
X56558500Y-92900500D01*
X56578500Y-92900500D01*
X56578500Y-92880500D01*
X56832500Y-92880500D01*
X56832500Y-92900500D01*
X58025655Y-92900500D01*
X58146976Y-92670610D01*
X58102325Y-92523401D01*
X58054265Y-92422501D01*
X89370788Y-92422501D01*
X89414725Y-92466438D01*
%TA.AperFunction,Conductor*%
D16*
G36*
X89414725Y-92466438D02*
G01*
X89584243Y-92579706D01*
X89772601Y-92657727D01*
X89972560Y-92697501D01*
X90176438Y-92697501D01*
X90376397Y-92657727D01*
X90564755Y-92579706D01*
X90734273Y-92466438D01*
X90778210Y-92422501D01*
X122570541Y-92422501D01*
X122509010Y-92514589D01*
X122397068Y-92784842D01*
X122340000Y-93071740D01*
X122340000Y-93364260D01*
X122355563Y-93442501D01*
X93191210Y-93442501D01*
X93147273Y-93398564D01*
X92977755Y-93285296D01*
X92789397Y-93207275D01*
X92589438Y-93167501D01*
X92385560Y-93167501D01*
X92185601Y-93207275D01*
X91997243Y-93285296D01*
X91827725Y-93398564D01*
X91783788Y-93442501D01*
X58129350Y-93442501D01*
X58146976Y-93384390D01*
X58025655Y-93154500D01*
X56832500Y-93154500D01*
X56832500Y-93174500D01*
X56578500Y-93174500D01*
X56578500Y-93154500D01*
X56558500Y-93154500D01*
X56558500Y-92900500D01*
X56578500Y-92900500D01*
X56578500Y-92880500D01*
X56832500Y-92880500D01*
X56832500Y-92900500D01*
X58025655Y-92900500D01*
X58146976Y-92670610D01*
X58102325Y-92523401D01*
X58054265Y-92422501D01*
X89370788Y-92422501D01*
X89414725Y-92466438D01*
G37*
%TD.AperFunction*%
D15*
X86620725Y-84846438D02*
X86790243Y-84959706D01*
X86978601Y-85037727D01*
X87178560Y-85077501D01*
X87382438Y-85077501D01*
X87582397Y-85037727D01*
X87770755Y-84959706D01*
X87940273Y-84846438D01*
X87984210Y-84802501D01*
X122570541Y-84802501D01*
X122509010Y-84894589D01*
X122397068Y-85164842D01*
X122340000Y-85451740D01*
X122340000Y-85744260D01*
X122397068Y-86031158D01*
X122509010Y-86301411D01*
X122671525Y-86544632D01*
X122878368Y-86751475D01*
X123052760Y-86868000D01*
X122878368Y-86984525D01*
X122671525Y-87191368D01*
X122509010Y-87434589D01*
X122397068Y-87704842D01*
X122340000Y-87991740D01*
X122340000Y-88284260D01*
X122397068Y-88571158D01*
X122509010Y-88841411D01*
X122671525Y-89084632D01*
X122878368Y-89291475D01*
X123052760Y-89408000D01*
X122878368Y-89524525D01*
X122671525Y-89731368D01*
X122509010Y-89974589D01*
X122397068Y-90244842D01*
X122340000Y-90531740D01*
X122340000Y-90824260D01*
X122355563Y-90902501D01*
X90778210Y-90902501D01*
X90734273Y-90858564D01*
X90564755Y-90745296D01*
X90376397Y-90667275D01*
X90176438Y-90627501D01*
X89972560Y-90627501D01*
X89772601Y-90667275D01*
X89584243Y-90745296D01*
X89414725Y-90858564D01*
X89370788Y-90902501D01*
X58129350Y-90902501D01*
X58146976Y-90844390D01*
X58025655Y-90614500D01*
X56832500Y-90614500D01*
X56832500Y-90634500D01*
X56578500Y-90634500D01*
X56578500Y-90614500D01*
X56558500Y-90614500D01*
X56558500Y-90360500D01*
X56578500Y-90360500D01*
X56578500Y-88074500D01*
X56832500Y-88074500D01*
X56832500Y-90360500D01*
X58025655Y-90360500D01*
X58146976Y-90130610D01*
X58102325Y-89983401D01*
X57977141Y-89720580D01*
X57803088Y-89487231D01*
X57586855Y-89292322D01*
X57461245Y-89217500D01*
X57586855Y-89142678D01*
X57803088Y-88947769D01*
X57977141Y-88714420D01*
X58102325Y-88451599D01*
X58146976Y-88304390D01*
X58025655Y-88074500D01*
X56832500Y-88074500D01*
X56578500Y-88074500D01*
X56558500Y-88074500D01*
X56558500Y-87820500D01*
X56578500Y-87820500D01*
X56578500Y-85534500D01*
X56832500Y-85534500D01*
X56832500Y-87820500D01*
X58025655Y-87820500D01*
X58146976Y-87590610D01*
X58102325Y-87443401D01*
X57977141Y-87180580D01*
X57803088Y-86947231D01*
X57586855Y-86752322D01*
X57461245Y-86677500D01*
X57586855Y-86602678D01*
X57803088Y-86407769D01*
X57977141Y-86174420D01*
X58102325Y-85911599D01*
X58146976Y-85764390D01*
X58025655Y-85534500D01*
X56832500Y-85534500D01*
X56578500Y-85534500D01*
X56558500Y-85534500D01*
X56558500Y-85280500D01*
X56578500Y-85280500D01*
X56578500Y-85260500D01*
X56832500Y-85260500D01*
X56832500Y-85280500D01*
X58025655Y-85280500D01*
X58146976Y-85050610D01*
X58102325Y-84903401D01*
X58054265Y-84802501D01*
X86576788Y-84802501D01*
X86620725Y-84846438D01*
%TA.AperFunction,Conductor*%
D16*
G36*
X86620725Y-84846438D02*
G01*
X86790243Y-84959706D01*
X86978601Y-85037727D01*
X87178560Y-85077501D01*
X87382438Y-85077501D01*
X87582397Y-85037727D01*
X87770755Y-84959706D01*
X87940273Y-84846438D01*
X87984210Y-84802501D01*
X122570541Y-84802501D01*
X122509010Y-84894589D01*
X122397068Y-85164842D01*
X122340000Y-85451740D01*
X122340000Y-85744260D01*
X122397068Y-86031158D01*
X122509010Y-86301411D01*
X122671525Y-86544632D01*
X122878368Y-86751475D01*
X123052760Y-86868000D01*
X122878368Y-86984525D01*
X122671525Y-87191368D01*
X122509010Y-87434589D01*
X122397068Y-87704842D01*
X122340000Y-87991740D01*
X122340000Y-88284260D01*
X122397068Y-88571158D01*
X122509010Y-88841411D01*
X122671525Y-89084632D01*
X122878368Y-89291475D01*
X123052760Y-89408000D01*
X122878368Y-89524525D01*
X122671525Y-89731368D01*
X122509010Y-89974589D01*
X122397068Y-90244842D01*
X122340000Y-90531740D01*
X122340000Y-90824260D01*
X122355563Y-90902501D01*
X90778210Y-90902501D01*
X90734273Y-90858564D01*
X90564755Y-90745296D01*
X90376397Y-90667275D01*
X90176438Y-90627501D01*
X89972560Y-90627501D01*
X89772601Y-90667275D01*
X89584243Y-90745296D01*
X89414725Y-90858564D01*
X89370788Y-90902501D01*
X58129350Y-90902501D01*
X58146976Y-90844390D01*
X58025655Y-90614500D01*
X56832500Y-90614500D01*
X56832500Y-90634500D01*
X56578500Y-90634500D01*
X56578500Y-90614500D01*
X56558500Y-90614500D01*
X56558500Y-90360500D01*
X56578500Y-90360500D01*
X56578500Y-88074500D01*
X56832500Y-88074500D01*
X56832500Y-90360500D01*
X58025655Y-90360500D01*
X58146976Y-90130610D01*
X58102325Y-89983401D01*
X57977141Y-89720580D01*
X57803088Y-89487231D01*
X57586855Y-89292322D01*
X57461245Y-89217500D01*
X57586855Y-89142678D01*
X57803088Y-88947769D01*
X57977141Y-88714420D01*
X58102325Y-88451599D01*
X58146976Y-88304390D01*
X58025655Y-88074500D01*
X56832500Y-88074500D01*
X56578500Y-88074500D01*
X56558500Y-88074500D01*
X56558500Y-87820500D01*
X56578500Y-87820500D01*
X56578500Y-85534500D01*
X56832500Y-85534500D01*
X56832500Y-87820500D01*
X58025655Y-87820500D01*
X58146976Y-87590610D01*
X58102325Y-87443401D01*
X57977141Y-87180580D01*
X57803088Y-86947231D01*
X57586855Y-86752322D01*
X57461245Y-86677500D01*
X57586855Y-86602678D01*
X57803088Y-86407769D01*
X57977141Y-86174420D01*
X58102325Y-85911599D01*
X58146976Y-85764390D01*
X58025655Y-85534500D01*
X56832500Y-85534500D01*
X56578500Y-85534500D01*
X56558500Y-85534500D01*
X56558500Y-85280500D01*
X56578500Y-85280500D01*
X56578500Y-85260500D01*
X56832500Y-85260500D01*
X56832500Y-85280500D01*
X58025655Y-85280500D01*
X58146976Y-85050610D01*
X58102325Y-84903401D01*
X58054265Y-84802501D01*
X86576788Y-84802501D01*
X86620725Y-84846438D01*
G37*
%TD.AperFunction*%
D15*
X84176226Y-82464937D02*
X84345744Y-82578205D01*
X84534102Y-82656226D01*
X84734061Y-82696000D01*
X84937939Y-82696000D01*
X85137898Y-82656226D01*
X85326256Y-82578205D01*
X85495774Y-82464937D01*
X85539711Y-82421000D01*
X122481502Y-82421000D01*
X122397068Y-82624842D01*
X122340000Y-82911740D01*
X122340000Y-83204260D01*
X122355563Y-83282501D01*
X87984210Y-83282501D01*
X87940273Y-83238564D01*
X87770755Y-83125296D01*
X87582397Y-83047275D01*
X87382438Y-83007501D01*
X87178560Y-83007501D01*
X86978601Y-83047275D01*
X86790243Y-83125296D01*
X86620725Y-83238564D01*
X86576788Y-83282501D01*
X58129350Y-83282501D01*
X58146976Y-83224390D01*
X58025655Y-82994500D01*
X56832500Y-82994500D01*
X56832500Y-83014500D01*
X56578500Y-83014500D01*
X56578500Y-82994500D01*
X56558500Y-82994500D01*
X56558500Y-82740500D01*
X56578500Y-82740500D01*
X56578500Y-82720500D01*
X56832500Y-82720500D01*
X56832500Y-82740500D01*
X58025655Y-82740500D01*
X58146976Y-82510610D01*
X58119796Y-82421000D01*
X84132289Y-82421000D01*
X84176226Y-82464937D01*
%TA.AperFunction,Conductor*%
D16*
G36*
X84176226Y-82464937D02*
G01*
X84345744Y-82578205D01*
X84534102Y-82656226D01*
X84734061Y-82696000D01*
X84937939Y-82696000D01*
X85137898Y-82656226D01*
X85326256Y-82578205D01*
X85495774Y-82464937D01*
X85539711Y-82421000D01*
X122481502Y-82421000D01*
X122397068Y-82624842D01*
X122340000Y-82911740D01*
X122340000Y-83204260D01*
X122355563Y-83282501D01*
X87984210Y-83282501D01*
X87940273Y-83238564D01*
X87770755Y-83125296D01*
X87582397Y-83047275D01*
X87382438Y-83007501D01*
X87178560Y-83007501D01*
X86978601Y-83047275D01*
X86790243Y-83125296D01*
X86620725Y-83238564D01*
X86576788Y-83282501D01*
X58129350Y-83282501D01*
X58146976Y-83224390D01*
X58025655Y-82994500D01*
X56832500Y-82994500D01*
X56832500Y-83014500D01*
X56578500Y-83014500D01*
X56578500Y-82994500D01*
X56558500Y-82994500D01*
X56558500Y-82740500D01*
X56578500Y-82740500D01*
X56578500Y-82720500D01*
X56832500Y-82720500D01*
X56832500Y-82740500D01*
X58025655Y-82740500D01*
X58146976Y-82510610D01*
X58119796Y-82421000D01*
X84132289Y-82421000D01*
X84176226Y-82464937D01*
G37*
%TD.AperFunction*%
D15*
X81350225Y-79766438D02*
X81519743Y-79879706D01*
X81708101Y-79957727D01*
X81908060Y-79997501D01*
X82111938Y-79997501D01*
X82311897Y-79957727D01*
X82500255Y-79879706D01*
X82669773Y-79766438D01*
X82713710Y-79722501D01*
X122570541Y-79722501D01*
X122509010Y-79814589D01*
X122397068Y-80084842D01*
X122340000Y-80371740D01*
X122340000Y-80664260D01*
X122383791Y-80884408D01*
X122367199Y-80901000D01*
X85539711Y-80901000D01*
X85495774Y-80857063D01*
X85326256Y-80743795D01*
X85137898Y-80665774D01*
X84937939Y-80626000D01*
X84734061Y-80626000D01*
X84534102Y-80665774D01*
X84345744Y-80743795D01*
X84176226Y-80857063D01*
X84132289Y-80901000D01*
X58069269Y-80901000D01*
X58102325Y-80831599D01*
X58146976Y-80684390D01*
X58025655Y-80454500D01*
X56832500Y-80454500D01*
X56832500Y-80474500D01*
X56578500Y-80474500D01*
X56578500Y-80454500D01*
X56558500Y-80454500D01*
X56558500Y-80200500D01*
X56578500Y-80200500D01*
X56578500Y-80180500D01*
X56832500Y-80180500D01*
X56832500Y-80200500D01*
X58025655Y-80200500D01*
X58146976Y-79970610D01*
X58102325Y-79823401D01*
X58054265Y-79722501D01*
X81306288Y-79722501D01*
X81350225Y-79766438D01*
%TA.AperFunction,Conductor*%
D16*
G36*
X81350225Y-79766438D02*
G01*
X81519743Y-79879706D01*
X81708101Y-79957727D01*
X81908060Y-79997501D01*
X82111938Y-79997501D01*
X82311897Y-79957727D01*
X82500255Y-79879706D01*
X82669773Y-79766438D01*
X82713710Y-79722501D01*
X122570541Y-79722501D01*
X122509010Y-79814589D01*
X122397068Y-80084842D01*
X122340000Y-80371740D01*
X122340000Y-80664260D01*
X122383791Y-80884408D01*
X122367199Y-80901000D01*
X85539711Y-80901000D01*
X85495774Y-80857063D01*
X85326256Y-80743795D01*
X85137898Y-80665774D01*
X84937939Y-80626000D01*
X84734061Y-80626000D01*
X84534102Y-80665774D01*
X84345744Y-80743795D01*
X84176226Y-80857063D01*
X84132289Y-80901000D01*
X58069269Y-80901000D01*
X58102325Y-80831599D01*
X58146976Y-80684390D01*
X58025655Y-80454500D01*
X56832500Y-80454500D01*
X56832500Y-80474500D01*
X56578500Y-80474500D01*
X56578500Y-80454500D01*
X56558500Y-80454500D01*
X56558500Y-80200500D01*
X56578500Y-80200500D01*
X56578500Y-80180500D01*
X56832500Y-80180500D01*
X56832500Y-80200500D01*
X58025655Y-80200500D01*
X58146976Y-79970610D01*
X58102325Y-79823401D01*
X58054265Y-79722501D01*
X81306288Y-79722501D01*
X81350225Y-79766438D01*
G37*
%TD.AperFunction*%
D15*
X78873725Y-77226438D02*
X79043243Y-77339706D01*
X79231601Y-77417727D01*
X79431560Y-77457501D01*
X79635438Y-77457501D01*
X79835397Y-77417727D01*
X80023755Y-77339706D01*
X80193273Y-77226438D01*
X80237210Y-77182501D01*
X122570541Y-77182501D01*
X122509010Y-77274589D01*
X122397068Y-77544842D01*
X122340000Y-77831740D01*
X122340000Y-78124260D01*
X122355563Y-78202501D01*
X82713710Y-78202501D01*
X82669773Y-78158564D01*
X82500255Y-78045296D01*
X82311897Y-77967275D01*
X82111938Y-77927501D01*
X81908060Y-77927501D01*
X81708101Y-77967275D01*
X81519743Y-78045296D01*
X81350225Y-78158564D01*
X81306288Y-78202501D01*
X58129350Y-78202501D01*
X58146976Y-78144390D01*
X58025655Y-77914500D01*
X56832500Y-77914500D01*
X56832500Y-77934500D01*
X56578500Y-77934500D01*
X56578500Y-77914500D01*
X56558500Y-77914500D01*
X56558500Y-77660500D01*
X56578500Y-77660500D01*
X56578500Y-77640500D01*
X56832500Y-77640500D01*
X56832500Y-77660500D01*
X58025655Y-77660500D01*
X58146976Y-77430610D01*
X58102325Y-77283401D01*
X58054265Y-77182501D01*
X78829788Y-77182501D01*
X78873725Y-77226438D01*
%TA.AperFunction,Conductor*%
D16*
G36*
X78873725Y-77226438D02*
G01*
X79043243Y-77339706D01*
X79231601Y-77417727D01*
X79431560Y-77457501D01*
X79635438Y-77457501D01*
X79835397Y-77417727D01*
X80023755Y-77339706D01*
X80193273Y-77226438D01*
X80237210Y-77182501D01*
X122570541Y-77182501D01*
X122509010Y-77274589D01*
X122397068Y-77544842D01*
X122340000Y-77831740D01*
X122340000Y-78124260D01*
X122355563Y-78202501D01*
X82713710Y-78202501D01*
X82669773Y-78158564D01*
X82500255Y-78045296D01*
X82311897Y-77967275D01*
X82111938Y-77927501D01*
X81908060Y-77927501D01*
X81708101Y-77967275D01*
X81519743Y-78045296D01*
X81350225Y-78158564D01*
X81306288Y-78202501D01*
X58129350Y-78202501D01*
X58146976Y-78144390D01*
X58025655Y-77914500D01*
X56832500Y-77914500D01*
X56832500Y-77934500D01*
X56578500Y-77934500D01*
X56578500Y-77914500D01*
X56558500Y-77914500D01*
X56558500Y-77660500D01*
X56578500Y-77660500D01*
X56578500Y-77640500D01*
X56832500Y-77640500D01*
X56832500Y-77660500D01*
X58025655Y-77660500D01*
X58146976Y-77430610D01*
X58102325Y-77283401D01*
X58054265Y-77182501D01*
X78829788Y-77182501D01*
X78873725Y-77226438D01*
G37*
%TD.AperFunction*%
D15*
X76270225Y-74686438D02*
X76439743Y-74799706D01*
X76628101Y-74877727D01*
X76828060Y-74917501D01*
X77031938Y-74917501D01*
X77231897Y-74877727D01*
X77420255Y-74799706D01*
X77589773Y-74686438D01*
X77633710Y-74642501D01*
X122570541Y-74642501D01*
X122509010Y-74734589D01*
X122397068Y-75004842D01*
X122340000Y-75291740D01*
X122340000Y-75584260D01*
X122355563Y-75662501D01*
X80237210Y-75662501D01*
X80193273Y-75618564D01*
X80023755Y-75505296D01*
X79835397Y-75427275D01*
X79635438Y-75387501D01*
X79431560Y-75387501D01*
X79231601Y-75427275D01*
X79043243Y-75505296D01*
X78873725Y-75618564D01*
X78829788Y-75662501D01*
X58129350Y-75662501D01*
X58146976Y-75604390D01*
X58025655Y-75374500D01*
X56832500Y-75374500D01*
X56832500Y-75394500D01*
X56578500Y-75394500D01*
X56578500Y-75374500D01*
X56558500Y-75374500D01*
X56558500Y-75120500D01*
X56578500Y-75120500D01*
X56578500Y-75100500D01*
X56832500Y-75100500D01*
X56832500Y-75120500D01*
X58025655Y-75120500D01*
X58146976Y-74890610D01*
X58102325Y-74743401D01*
X58054265Y-74642501D01*
X76226288Y-74642501D01*
X76270225Y-74686438D01*
%TA.AperFunction,Conductor*%
D16*
G36*
X76270225Y-74686438D02*
G01*
X76439743Y-74799706D01*
X76628101Y-74877727D01*
X76828060Y-74917501D01*
X77031938Y-74917501D01*
X77231897Y-74877727D01*
X77420255Y-74799706D01*
X77589773Y-74686438D01*
X77633710Y-74642501D01*
X122570541Y-74642501D01*
X122509010Y-74734589D01*
X122397068Y-75004842D01*
X122340000Y-75291740D01*
X122340000Y-75584260D01*
X122355563Y-75662501D01*
X80237210Y-75662501D01*
X80193273Y-75618564D01*
X80023755Y-75505296D01*
X79835397Y-75427275D01*
X79635438Y-75387501D01*
X79431560Y-75387501D01*
X79231601Y-75427275D01*
X79043243Y-75505296D01*
X78873725Y-75618564D01*
X78829788Y-75662501D01*
X58129350Y-75662501D01*
X58146976Y-75604390D01*
X58025655Y-75374500D01*
X56832500Y-75374500D01*
X56832500Y-75394500D01*
X56578500Y-75394500D01*
X56578500Y-75374500D01*
X56558500Y-75374500D01*
X56558500Y-75120500D01*
X56578500Y-75120500D01*
X56578500Y-75100500D01*
X56832500Y-75100500D01*
X56832500Y-75120500D01*
X58025655Y-75120500D01*
X58146976Y-74890610D01*
X58102325Y-74743401D01*
X58054265Y-74642501D01*
X76226288Y-74642501D01*
X76270225Y-74686438D01*
G37*
%TD.AperFunction*%
D15*
X73666725Y-72146438D02*
X73836243Y-72259706D01*
X74024601Y-72337727D01*
X74224560Y-72377501D01*
X74428438Y-72377501D01*
X74628397Y-72337727D01*
X74816755Y-72259706D01*
X74986273Y-72146438D01*
X75030210Y-72102501D01*
X122570541Y-72102501D01*
X122509010Y-72194589D01*
X122397068Y-72464842D01*
X122340000Y-72751740D01*
X122340000Y-73044260D01*
X122355563Y-73122501D01*
X77633710Y-73122501D01*
X77589773Y-73078564D01*
X77420255Y-72965296D01*
X77231897Y-72887275D01*
X77031938Y-72847501D01*
X76828060Y-72847501D01*
X76628101Y-72887275D01*
X76439743Y-72965296D01*
X76270225Y-73078564D01*
X76226288Y-73122501D01*
X58129350Y-73122501D01*
X58146976Y-73064390D01*
X58025655Y-72834500D01*
X56832500Y-72834500D01*
X56832500Y-72854500D01*
X56578500Y-72854500D01*
X56578500Y-72834500D01*
X56558500Y-72834500D01*
X56558500Y-72580500D01*
X56578500Y-72580500D01*
X56578500Y-72560500D01*
X56832500Y-72560500D01*
X56832500Y-72580500D01*
X58025655Y-72580500D01*
X58146976Y-72350610D01*
X58102325Y-72203401D01*
X58054265Y-72102501D01*
X73622788Y-72102501D01*
X73666725Y-72146438D01*
%TA.AperFunction,Conductor*%
D16*
G36*
X73666725Y-72146438D02*
G01*
X73836243Y-72259706D01*
X74024601Y-72337727D01*
X74224560Y-72377501D01*
X74428438Y-72377501D01*
X74628397Y-72337727D01*
X74816755Y-72259706D01*
X74986273Y-72146438D01*
X75030210Y-72102501D01*
X122570541Y-72102501D01*
X122509010Y-72194589D01*
X122397068Y-72464842D01*
X122340000Y-72751740D01*
X122340000Y-73044260D01*
X122355563Y-73122501D01*
X77633710Y-73122501D01*
X77589773Y-73078564D01*
X77420255Y-72965296D01*
X77231897Y-72887275D01*
X77031938Y-72847501D01*
X76828060Y-72847501D01*
X76628101Y-72887275D01*
X76439743Y-72965296D01*
X76270225Y-73078564D01*
X76226288Y-73122501D01*
X58129350Y-73122501D01*
X58146976Y-73064390D01*
X58025655Y-72834500D01*
X56832500Y-72834500D01*
X56832500Y-72854500D01*
X56578500Y-72854500D01*
X56578500Y-72834500D01*
X56558500Y-72834500D01*
X56558500Y-72580500D01*
X56578500Y-72580500D01*
X56578500Y-72560500D01*
X56832500Y-72560500D01*
X56832500Y-72580500D01*
X58025655Y-72580500D01*
X58146976Y-72350610D01*
X58102325Y-72203401D01*
X58054265Y-72102501D01*
X73622788Y-72102501D01*
X73666725Y-72146438D01*
G37*
%TD.AperFunction*%
D15*
X71063225Y-69606438D02*
X71232743Y-69719706D01*
X71421101Y-69797727D01*
X71621060Y-69837501D01*
X71824938Y-69837501D01*
X72024897Y-69797727D01*
X72213255Y-69719706D01*
X72382773Y-69606438D01*
X72426710Y-69562501D01*
X122570541Y-69562501D01*
X122509010Y-69654589D01*
X122397068Y-69924842D01*
X122340000Y-70211740D01*
X122340000Y-70504260D01*
X122355563Y-70582501D01*
X75030210Y-70582501D01*
X74986273Y-70538564D01*
X74816755Y-70425296D01*
X74628397Y-70347275D01*
X74428438Y-70307501D01*
X74224560Y-70307501D01*
X74024601Y-70347275D01*
X73836243Y-70425296D01*
X73666725Y-70538564D01*
X73622788Y-70582501D01*
X58129350Y-70582501D01*
X58146976Y-70524390D01*
X58025655Y-70294500D01*
X56832500Y-70294500D01*
X56832500Y-70314500D01*
X56578500Y-70314500D01*
X56578500Y-70294500D01*
X56558500Y-70294500D01*
X56558500Y-70040500D01*
X56578500Y-70040500D01*
X56578500Y-70020500D01*
X56832500Y-70020500D01*
X56832500Y-70040500D01*
X58025655Y-70040500D01*
X58146976Y-69810610D01*
X58102325Y-69663401D01*
X58054265Y-69562501D01*
X71019288Y-69562501D01*
X71063225Y-69606438D01*
%TA.AperFunction,Conductor*%
D16*
G36*
X71063225Y-69606438D02*
G01*
X71232743Y-69719706D01*
X71421101Y-69797727D01*
X71621060Y-69837501D01*
X71824938Y-69837501D01*
X72024897Y-69797727D01*
X72213255Y-69719706D01*
X72382773Y-69606438D01*
X72426710Y-69562501D01*
X122570541Y-69562501D01*
X122509010Y-69654589D01*
X122397068Y-69924842D01*
X122340000Y-70211740D01*
X122340000Y-70504260D01*
X122355563Y-70582501D01*
X75030210Y-70582501D01*
X74986273Y-70538564D01*
X74816755Y-70425296D01*
X74628397Y-70347275D01*
X74428438Y-70307501D01*
X74224560Y-70307501D01*
X74024601Y-70347275D01*
X73836243Y-70425296D01*
X73666725Y-70538564D01*
X73622788Y-70582501D01*
X58129350Y-70582501D01*
X58146976Y-70524390D01*
X58025655Y-70294500D01*
X56832500Y-70294500D01*
X56832500Y-70314500D01*
X56578500Y-70314500D01*
X56578500Y-70294500D01*
X56558500Y-70294500D01*
X56558500Y-70040500D01*
X56578500Y-70040500D01*
X56578500Y-70020500D01*
X56832500Y-70020500D01*
X56832500Y-70040500D01*
X58025655Y-70040500D01*
X58146976Y-69810610D01*
X58102325Y-69663401D01*
X58054265Y-69562501D01*
X71019288Y-69562501D01*
X71063225Y-69606438D01*
G37*
%TD.AperFunction*%
D15*
X68650727Y-67256436D02*
X68820245Y-67369704D01*
X69008603Y-67447725D01*
X69208562Y-67487499D01*
X69412440Y-67487499D01*
X69612399Y-67447725D01*
X69800757Y-67369704D01*
X69970275Y-67256436D01*
X70014212Y-67212499D01*
X122468455Y-67212499D01*
X122397068Y-67384842D01*
X122340000Y-67671740D01*
X122340000Y-67964260D01*
X122355563Y-68042501D01*
X72426710Y-68042501D01*
X72382773Y-67998564D01*
X72213255Y-67885296D01*
X72024897Y-67807275D01*
X71824938Y-67767501D01*
X71621060Y-67767501D01*
X71421101Y-67807275D01*
X71232743Y-67885296D01*
X71063225Y-67998564D01*
X71019288Y-68042501D01*
X58129350Y-68042501D01*
X58146976Y-67984390D01*
X58025655Y-67754500D01*
X56832500Y-67754500D01*
X56832500Y-67774500D01*
X56578500Y-67774500D01*
X56578500Y-67754500D01*
X56558500Y-67754500D01*
X56558500Y-67500500D01*
X56578500Y-67500500D01*
X56578500Y-67480500D01*
X56832500Y-67480500D01*
X56832500Y-67500500D01*
X58025655Y-67500500D01*
X58146976Y-67270610D01*
X58129350Y-67212499D01*
X68606790Y-67212499D01*
X68650727Y-67256436D01*
%TA.AperFunction,Conductor*%
D16*
G36*
X68650727Y-67256436D02*
G01*
X68820245Y-67369704D01*
X69008603Y-67447725D01*
X69208562Y-67487499D01*
X69412440Y-67487499D01*
X69612399Y-67447725D01*
X69800757Y-67369704D01*
X69970275Y-67256436D01*
X70014212Y-67212499D01*
X122468455Y-67212499D01*
X122397068Y-67384842D01*
X122340000Y-67671740D01*
X122340000Y-67964260D01*
X122355563Y-68042501D01*
X72426710Y-68042501D01*
X72382773Y-67998564D01*
X72213255Y-67885296D01*
X72024897Y-67807275D01*
X71824938Y-67767501D01*
X71621060Y-67767501D01*
X71421101Y-67807275D01*
X71232743Y-67885296D01*
X71063225Y-67998564D01*
X71019288Y-68042501D01*
X58129350Y-68042501D01*
X58146976Y-67984390D01*
X58025655Y-67754500D01*
X56832500Y-67754500D01*
X56832500Y-67774500D01*
X56578500Y-67774500D01*
X56578500Y-67754500D01*
X56558500Y-67754500D01*
X56558500Y-67500500D01*
X56578500Y-67500500D01*
X56578500Y-67480500D01*
X56832500Y-67480500D01*
X56832500Y-67500500D01*
X58025655Y-67500500D01*
X58146976Y-67270610D01*
X58129350Y-67212499D01*
X68606790Y-67212499D01*
X68650727Y-67256436D01*
G37*
%TD.AperFunction*%
D15*
X65665725Y-64526438D02*
X65835243Y-64639706D01*
X66023601Y-64717727D01*
X66223560Y-64757501D01*
X66427438Y-64757501D01*
X66627397Y-64717727D01*
X66815755Y-64639706D01*
X66985273Y-64526438D01*
X67029210Y-64482501D01*
X122570541Y-64482501D01*
X122509010Y-64574589D01*
X122397068Y-64844842D01*
X122340000Y-65131740D01*
X122340000Y-65424260D01*
X122383791Y-65644408D01*
X122335700Y-65692499D01*
X70014212Y-65692499D01*
X69970275Y-65648562D01*
X69800757Y-65535294D01*
X69612399Y-65457273D01*
X69412440Y-65417499D01*
X69208562Y-65417499D01*
X69008603Y-65457273D01*
X68820245Y-65535294D01*
X68650727Y-65648562D01*
X68606790Y-65692499D01*
X58054265Y-65692499D01*
X58102325Y-65591599D01*
X58146976Y-65444390D01*
X58025655Y-65214500D01*
X56832500Y-65214500D01*
X56832500Y-65234500D01*
X56578500Y-65234500D01*
X56578500Y-65214500D01*
X56558500Y-65214500D01*
X56558500Y-64960500D01*
X56578500Y-64960500D01*
X56578500Y-64940500D01*
X56832500Y-64940500D01*
X56832500Y-64960500D01*
X58025655Y-64960500D01*
X58146976Y-64730610D01*
X58102325Y-64583401D01*
X58054265Y-64482501D01*
X65621788Y-64482501D01*
X65665725Y-64526438D01*
%TA.AperFunction,Conductor*%
D16*
G36*
X65665725Y-64526438D02*
G01*
X65835243Y-64639706D01*
X66023601Y-64717727D01*
X66223560Y-64757501D01*
X66427438Y-64757501D01*
X66627397Y-64717727D01*
X66815755Y-64639706D01*
X66985273Y-64526438D01*
X67029210Y-64482501D01*
X122570541Y-64482501D01*
X122509010Y-64574589D01*
X122397068Y-64844842D01*
X122340000Y-65131740D01*
X122340000Y-65424260D01*
X122383791Y-65644408D01*
X122335700Y-65692499D01*
X70014212Y-65692499D01*
X69970275Y-65648562D01*
X69800757Y-65535294D01*
X69612399Y-65457273D01*
X69412440Y-65417499D01*
X69208562Y-65417499D01*
X69008603Y-65457273D01*
X68820245Y-65535294D01*
X68650727Y-65648562D01*
X68606790Y-65692499D01*
X58054265Y-65692499D01*
X58102325Y-65591599D01*
X58146976Y-65444390D01*
X58025655Y-65214500D01*
X56832500Y-65214500D01*
X56832500Y-65234500D01*
X56578500Y-65234500D01*
X56578500Y-65214500D01*
X56558500Y-65214500D01*
X56558500Y-64960500D01*
X56578500Y-64960500D01*
X56578500Y-64940500D01*
X56832500Y-64940500D01*
X56832500Y-64960500D01*
X58025655Y-64960500D01*
X58146976Y-64730610D01*
X58102325Y-64583401D01*
X58054265Y-64482501D01*
X65621788Y-64482501D01*
X65665725Y-64526438D01*
G37*
%TD.AperFunction*%
%TD*%
M02*
