%TF.GenerationSoftware,KiCad,Pcbnew,(5.1.10)-1*%
%TF.CreationDate,2022-03-29T20:22:55-05:00*%
%TF.ProjectId,FMT Rescue,464d5420-5265-4736-9375-652e6b696361,rev?*%
%TF.SameCoordinates,Original*%
%TF.FileFunction,Legend,Top*%
%TF.FilePolarity,Positive*%
%FSLAX46Y46*%
G04 Gerber Fmt 4.6, Leading zero omitted, Abs format (unit mm)*
G04 Created by KiCad (PCBNEW (5.1.10)-1) date 2022-03-29 20:22:55*
%MOMM*%
%LPD*%
G01*
G04 APERTURE LIST*
%ADD10C,0.150000*%
%ADD11C,0.120000*%
G04 APERTURE END LIST*
D10*
X130849619Y-78090214D02*
X130849619Y-78661642D01*
X129849619Y-78375928D02*
X130849619Y-78375928D01*
X129849619Y-79137833D02*
X129897238Y-79042595D01*
X129944857Y-78994976D01*
X130040095Y-78947357D01*
X130325809Y-78947357D01*
X130421047Y-78994976D01*
X130468666Y-79042595D01*
X130516285Y-79137833D01*
X130516285Y-79280690D01*
X130468666Y-79375928D01*
X130421047Y-79423547D01*
X130325809Y-79471166D01*
X130040095Y-79471166D01*
X129944857Y-79423547D01*
X129897238Y-79375928D01*
X129849619Y-79280690D01*
X129849619Y-79137833D01*
X130516285Y-79804500D02*
X129849619Y-79994976D01*
X130325809Y-80185452D01*
X129849619Y-80375928D01*
X130516285Y-80566404D01*
X129849619Y-81375928D02*
X130373428Y-81375928D01*
X130468666Y-81328309D01*
X130516285Y-81233071D01*
X130516285Y-81042595D01*
X130468666Y-80947357D01*
X129897238Y-81375928D02*
X129849619Y-81280690D01*
X129849619Y-81042595D01*
X129897238Y-80947357D01*
X129992476Y-80899738D01*
X130087714Y-80899738D01*
X130182952Y-80947357D01*
X130230571Y-81042595D01*
X130230571Y-81280690D01*
X130278190Y-81375928D01*
X129849619Y-81852119D02*
X130516285Y-81852119D01*
X130325809Y-81852119D02*
X130421047Y-81899738D01*
X130468666Y-81947357D01*
X130516285Y-82042595D01*
X130516285Y-82137833D01*
X129849619Y-82899738D02*
X130849619Y-82899738D01*
X129897238Y-82899738D02*
X129849619Y-82804500D01*
X129849619Y-82614023D01*
X129897238Y-82518785D01*
X129944857Y-82471166D01*
X130040095Y-82423547D01*
X130325809Y-82423547D01*
X130421047Y-82471166D01*
X130468666Y-82518785D01*
X130516285Y-82614023D01*
X130516285Y-82804500D01*
X130468666Y-82899738D01*
X129897238Y-83328309D02*
X129849619Y-83423547D01*
X129849619Y-83614023D01*
X129897238Y-83709261D01*
X129992476Y-83756880D01*
X130040095Y-83756880D01*
X130135333Y-83709261D01*
X130182952Y-83614023D01*
X130182952Y-83471166D01*
X130230571Y-83375928D01*
X130325809Y-83328309D01*
X130373428Y-83328309D01*
X130468666Y-83375928D01*
X130516285Y-83471166D01*
X130516285Y-83614023D01*
X130468666Y-83709261D01*
X129944857Y-85518785D02*
X129897238Y-85471166D01*
X129849619Y-85328309D01*
X129849619Y-85233071D01*
X129897238Y-85090214D01*
X129992476Y-84994976D01*
X130087714Y-84947357D01*
X130278190Y-84899738D01*
X130421047Y-84899738D01*
X130611523Y-84947357D01*
X130706761Y-84994976D01*
X130802000Y-85090214D01*
X130849619Y-85233071D01*
X130849619Y-85328309D01*
X130802000Y-85471166D01*
X130754380Y-85518785D01*
X129849619Y-85947357D02*
X130849619Y-85947357D01*
X130849619Y-86185452D01*
X130802000Y-86328309D01*
X130706761Y-86423547D01*
X130611523Y-86471166D01*
X130421047Y-86518785D01*
X130278190Y-86518785D01*
X130087714Y-86471166D01*
X129992476Y-86423547D01*
X129897238Y-86328309D01*
X129849619Y-86185452D01*
X129849619Y-85947357D01*
X130230571Y-86947357D02*
X130230571Y-87709261D01*
X129849619Y-88756880D02*
X130325809Y-88423547D01*
X129849619Y-88185452D02*
X130849619Y-88185452D01*
X130849619Y-88566404D01*
X130802000Y-88661642D01*
X130754380Y-88709261D01*
X130659142Y-88756880D01*
X130516285Y-88756880D01*
X130421047Y-88709261D01*
X130373428Y-88661642D01*
X130325809Y-88566404D01*
X130325809Y-88185452D01*
X130849619Y-89375928D02*
X130849619Y-89566404D01*
X130802000Y-89661642D01*
X130706761Y-89756880D01*
X130516285Y-89804500D01*
X130182952Y-89804500D01*
X129992476Y-89756880D01*
X129897238Y-89661642D01*
X129849619Y-89566404D01*
X129849619Y-89375928D01*
X129897238Y-89280690D01*
X129992476Y-89185452D01*
X130182952Y-89137833D01*
X130516285Y-89137833D01*
X130706761Y-89185452D01*
X130802000Y-89280690D01*
X130849619Y-89375928D01*
X129849619Y-90233071D02*
X130849619Y-90233071D01*
X130135333Y-90566404D01*
X130849619Y-90899738D01*
X129849619Y-90899738D01*
X129849619Y-92137833D02*
X130849619Y-92137833D01*
X130849619Y-92375928D01*
X130802000Y-92518785D01*
X130706761Y-92614023D01*
X130611523Y-92661642D01*
X130421047Y-92709261D01*
X130278190Y-92709261D01*
X130087714Y-92661642D01*
X129992476Y-92614023D01*
X129897238Y-92518785D01*
X129849619Y-92375928D01*
X129849619Y-92137833D01*
X129849619Y-93137833D02*
X130516285Y-93137833D01*
X130325809Y-93137833D02*
X130421047Y-93185452D01*
X130468666Y-93233071D01*
X130516285Y-93328309D01*
X130516285Y-93423547D01*
X129849619Y-93756880D02*
X130516285Y-93756880D01*
X130849619Y-93756880D02*
X130802000Y-93709261D01*
X130754380Y-93756880D01*
X130802000Y-93804500D01*
X130849619Y-93756880D01*
X130754380Y-93756880D01*
X130516285Y-94137833D02*
X129849619Y-94375928D01*
X130516285Y-94614023D01*
X129897238Y-95375928D02*
X129849619Y-95280690D01*
X129849619Y-95090214D01*
X129897238Y-94994976D01*
X129992476Y-94947357D01*
X130373428Y-94947357D01*
X130468666Y-94994976D01*
X130516285Y-95090214D01*
X130516285Y-95280690D01*
X130468666Y-95375928D01*
X130373428Y-95423547D01*
X130278190Y-95423547D01*
X130182952Y-94947357D01*
X47966380Y-96090523D02*
X47966380Y-95519095D01*
X48966380Y-95804809D02*
X47966380Y-95804809D01*
X48966380Y-95042904D02*
X48918761Y-95138142D01*
X48871142Y-95185761D01*
X48775904Y-95233380D01*
X48490190Y-95233380D01*
X48394952Y-95185761D01*
X48347333Y-95138142D01*
X48299714Y-95042904D01*
X48299714Y-94900047D01*
X48347333Y-94804809D01*
X48394952Y-94757190D01*
X48490190Y-94709571D01*
X48775904Y-94709571D01*
X48871142Y-94757190D01*
X48918761Y-94804809D01*
X48966380Y-94900047D01*
X48966380Y-95042904D01*
X48299714Y-94376238D02*
X48966380Y-94185761D01*
X48490190Y-93995285D01*
X48966380Y-93804809D01*
X48299714Y-93614333D01*
X48966380Y-92804809D02*
X48442571Y-92804809D01*
X48347333Y-92852428D01*
X48299714Y-92947666D01*
X48299714Y-93138142D01*
X48347333Y-93233380D01*
X48918761Y-92804809D02*
X48966380Y-92900047D01*
X48966380Y-93138142D01*
X48918761Y-93233380D01*
X48823523Y-93281000D01*
X48728285Y-93281000D01*
X48633047Y-93233380D01*
X48585428Y-93138142D01*
X48585428Y-92900047D01*
X48537809Y-92804809D01*
X48966380Y-92328619D02*
X48299714Y-92328619D01*
X48490190Y-92328619D02*
X48394952Y-92281000D01*
X48347333Y-92233380D01*
X48299714Y-92138142D01*
X48299714Y-92042904D01*
X48966380Y-91281000D02*
X47966380Y-91281000D01*
X48918761Y-91281000D02*
X48966380Y-91376238D01*
X48966380Y-91566714D01*
X48918761Y-91661952D01*
X48871142Y-91709571D01*
X48775904Y-91757190D01*
X48490190Y-91757190D01*
X48394952Y-91709571D01*
X48347333Y-91661952D01*
X48299714Y-91566714D01*
X48299714Y-91376238D01*
X48347333Y-91281000D01*
X48918761Y-90852428D02*
X48966380Y-90757190D01*
X48966380Y-90566714D01*
X48918761Y-90471476D01*
X48823523Y-90423857D01*
X48775904Y-90423857D01*
X48680666Y-90471476D01*
X48633047Y-90566714D01*
X48633047Y-90709571D01*
X48585428Y-90804809D01*
X48490190Y-90852428D01*
X48442571Y-90852428D01*
X48347333Y-90804809D01*
X48299714Y-90709571D01*
X48299714Y-90566714D01*
X48347333Y-90471476D01*
X48871142Y-88661952D02*
X48918761Y-88709571D01*
X48966380Y-88852428D01*
X48966380Y-88947666D01*
X48918761Y-89090523D01*
X48823523Y-89185761D01*
X48728285Y-89233380D01*
X48537809Y-89281000D01*
X48394952Y-89281000D01*
X48204476Y-89233380D01*
X48109238Y-89185761D01*
X48014000Y-89090523D01*
X47966380Y-88947666D01*
X47966380Y-88852428D01*
X48014000Y-88709571D01*
X48061619Y-88661952D01*
X48966380Y-88090523D02*
X48918761Y-88185761D01*
X48871142Y-88233380D01*
X48775904Y-88281000D01*
X48490190Y-88281000D01*
X48394952Y-88233380D01*
X48347333Y-88185761D01*
X48299714Y-88090523D01*
X48299714Y-87947666D01*
X48347333Y-87852428D01*
X48394952Y-87804809D01*
X48490190Y-87757190D01*
X48775904Y-87757190D01*
X48871142Y-87804809D01*
X48918761Y-87852428D01*
X48966380Y-87947666D01*
X48966380Y-88090523D01*
X48966380Y-87328619D02*
X48299714Y-87328619D01*
X48394952Y-87328619D02*
X48347333Y-87281000D01*
X48299714Y-87185761D01*
X48299714Y-87042904D01*
X48347333Y-86947666D01*
X48442571Y-86900047D01*
X48966380Y-86900047D01*
X48442571Y-86900047D02*
X48347333Y-86852428D01*
X48299714Y-86757190D01*
X48299714Y-86614333D01*
X48347333Y-86519095D01*
X48442571Y-86471476D01*
X48966380Y-86471476D01*
X48299714Y-85995285D02*
X49299714Y-85995285D01*
X48347333Y-85995285D02*
X48299714Y-85900047D01*
X48299714Y-85709571D01*
X48347333Y-85614333D01*
X48394952Y-85566714D01*
X48490190Y-85519095D01*
X48775904Y-85519095D01*
X48871142Y-85566714D01*
X48918761Y-85614333D01*
X48966380Y-85709571D01*
X48966380Y-85900047D01*
X48918761Y-85995285D01*
X48299714Y-84661952D02*
X48966380Y-84661952D01*
X48299714Y-85090523D02*
X48823523Y-85090523D01*
X48918761Y-85042904D01*
X48966380Y-84947666D01*
X48966380Y-84804809D01*
X48918761Y-84709571D01*
X48871142Y-84661952D01*
X48299714Y-84328619D02*
X48299714Y-83947666D01*
X47966380Y-84185761D02*
X48823523Y-84185761D01*
X48918761Y-84138142D01*
X48966380Y-84042904D01*
X48966380Y-83947666D01*
X48918761Y-83233380D02*
X48966380Y-83328619D01*
X48966380Y-83519095D01*
X48918761Y-83614333D01*
X48823523Y-83661952D01*
X48442571Y-83661952D01*
X48347333Y-83614333D01*
X48299714Y-83519095D01*
X48299714Y-83328619D01*
X48347333Y-83233380D01*
X48442571Y-83185761D01*
X48537809Y-83185761D01*
X48633047Y-83661952D01*
X48966380Y-82757190D02*
X48299714Y-82757190D01*
X48490190Y-82757190D02*
X48394952Y-82709571D01*
X48347333Y-82661952D01*
X48299714Y-82566714D01*
X48299714Y-82471476D01*
X117570476Y-63380880D02*
X117570476Y-62380880D01*
X117951428Y-62380880D01*
X118046666Y-62428500D01*
X118094285Y-62476119D01*
X118141904Y-62571357D01*
X118141904Y-62714214D01*
X118094285Y-62809452D01*
X118046666Y-62857071D01*
X117951428Y-62904690D01*
X117570476Y-62904690D01*
X118570476Y-63380880D02*
X118570476Y-62714214D01*
X118570476Y-62380880D02*
X118522857Y-62428500D01*
X118570476Y-62476119D01*
X118618095Y-62428500D01*
X118570476Y-62380880D01*
X118570476Y-62476119D01*
X119046666Y-62714214D02*
X119046666Y-63380880D01*
X119046666Y-62809452D02*
X119094285Y-62761833D01*
X119189523Y-62714214D01*
X119332380Y-62714214D01*
X119427619Y-62761833D01*
X119475238Y-62857071D01*
X119475238Y-63380880D01*
X121237142Y-63380880D02*
X120665714Y-63380880D01*
X120951428Y-63380880D02*
X120951428Y-62380880D01*
X120856190Y-62523738D01*
X120760952Y-62618976D01*
X120665714Y-62666595D01*
X48863428Y-62936380D02*
X48863428Y-61936380D01*
X49244380Y-61936380D01*
X49339619Y-61984000D01*
X49387238Y-62031619D01*
X49434857Y-62126857D01*
X49434857Y-62269714D01*
X49387238Y-62364952D01*
X49339619Y-62412571D01*
X49244380Y-62460190D01*
X48863428Y-62460190D01*
X49863428Y-62936380D02*
X49863428Y-62269714D01*
X49863428Y-61936380D02*
X49815809Y-61984000D01*
X49863428Y-62031619D01*
X49911047Y-61984000D01*
X49863428Y-61936380D01*
X49863428Y-62031619D01*
X50339619Y-62269714D02*
X50339619Y-62936380D01*
X50339619Y-62364952D02*
X50387238Y-62317333D01*
X50482476Y-62269714D01*
X50625333Y-62269714D01*
X50720571Y-62317333D01*
X50768190Y-62412571D01*
X50768190Y-62936380D01*
X51768190Y-62936380D02*
X51196761Y-62936380D01*
X51482476Y-62936380D02*
X51482476Y-61936380D01*
X51387238Y-62079238D01*
X51292000Y-62174476D01*
X51196761Y-62222095D01*
X90361952Y-93944761D02*
X89695285Y-92992380D01*
X89219095Y-93944761D02*
X89219095Y-91944761D01*
X89981000Y-91944761D01*
X90171476Y-92040000D01*
X90266714Y-92135238D01*
X90361952Y-92325714D01*
X90361952Y-92611428D01*
X90266714Y-92801904D01*
X90171476Y-92897142D01*
X89981000Y-92992380D01*
X89219095Y-92992380D01*
X91981000Y-93849523D02*
X91790523Y-93944761D01*
X91409571Y-93944761D01*
X91219095Y-93849523D01*
X91123857Y-93659047D01*
X91123857Y-92897142D01*
X91219095Y-92706666D01*
X91409571Y-92611428D01*
X91790523Y-92611428D01*
X91981000Y-92706666D01*
X92076238Y-92897142D01*
X92076238Y-93087619D01*
X91123857Y-93278095D01*
X92838142Y-93849523D02*
X93028619Y-93944761D01*
X93409571Y-93944761D01*
X93600047Y-93849523D01*
X93695285Y-93659047D01*
X93695285Y-93563809D01*
X93600047Y-93373333D01*
X93409571Y-93278095D01*
X93123857Y-93278095D01*
X92933380Y-93182857D01*
X92838142Y-92992380D01*
X92838142Y-92897142D01*
X92933380Y-92706666D01*
X93123857Y-92611428D01*
X93409571Y-92611428D01*
X93600047Y-92706666D01*
X95409571Y-93849523D02*
X95219095Y-93944761D01*
X94838142Y-93944761D01*
X94647666Y-93849523D01*
X94552428Y-93754285D01*
X94457190Y-93563809D01*
X94457190Y-92992380D01*
X94552428Y-92801904D01*
X94647666Y-92706666D01*
X94838142Y-92611428D01*
X95219095Y-92611428D01*
X95409571Y-92706666D01*
X97123857Y-92611428D02*
X97123857Y-93944761D01*
X96266714Y-92611428D02*
X96266714Y-93659047D01*
X96361952Y-93849523D01*
X96552428Y-93944761D01*
X96838142Y-93944761D01*
X97028619Y-93849523D01*
X97123857Y-93754285D01*
X98838142Y-93849523D02*
X98647666Y-93944761D01*
X98266714Y-93944761D01*
X98076238Y-93849523D01*
X97981000Y-93659047D01*
X97981000Y-92897142D01*
X98076238Y-92706666D01*
X98266714Y-92611428D01*
X98647666Y-92611428D01*
X98838142Y-92706666D01*
X98933380Y-92897142D01*
X98933380Y-93087619D01*
X97981000Y-93278095D01*
X101695285Y-91944761D02*
X102076238Y-91944761D01*
X102266714Y-92040000D01*
X102457190Y-92230476D01*
X102552428Y-92611428D01*
X102552428Y-93278095D01*
X102457190Y-93659047D01*
X102266714Y-93849523D01*
X102076238Y-93944761D01*
X101695285Y-93944761D01*
X101504809Y-93849523D01*
X101314333Y-93659047D01*
X101219095Y-93278095D01*
X101219095Y-92611428D01*
X101314333Y-92230476D01*
X101504809Y-92040000D01*
X101695285Y-91944761D01*
X103409571Y-92611428D02*
X103409571Y-94611428D01*
X103409571Y-92706666D02*
X103600047Y-92611428D01*
X103981000Y-92611428D01*
X104171476Y-92706666D01*
X104266714Y-92801904D01*
X104361952Y-92992380D01*
X104361952Y-93563809D01*
X104266714Y-93754285D01*
X104171476Y-93849523D01*
X103981000Y-93944761D01*
X103600047Y-93944761D01*
X103409571Y-93849523D01*
X105981000Y-93849523D02*
X105790523Y-93944761D01*
X105409571Y-93944761D01*
X105219095Y-93849523D01*
X105123857Y-93659047D01*
X105123857Y-92897142D01*
X105219095Y-92706666D01*
X105409571Y-92611428D01*
X105790523Y-92611428D01*
X105981000Y-92706666D01*
X106076238Y-92897142D01*
X106076238Y-93087619D01*
X105123857Y-93278095D01*
X106933380Y-93944761D02*
X106933380Y-92611428D01*
X106933380Y-92992380D02*
X107028619Y-92801904D01*
X107123857Y-92706666D01*
X107314333Y-92611428D01*
X107504809Y-92611428D01*
X109028619Y-93944761D02*
X109028619Y-92897142D01*
X108933380Y-92706666D01*
X108742904Y-92611428D01*
X108361952Y-92611428D01*
X108171476Y-92706666D01*
X109028619Y-93849523D02*
X108838142Y-93944761D01*
X108361952Y-93944761D01*
X108171476Y-93849523D01*
X108076238Y-93659047D01*
X108076238Y-93468571D01*
X108171476Y-93278095D01*
X108361952Y-93182857D01*
X108838142Y-93182857D01*
X109028619Y-93087619D01*
X109695285Y-92611428D02*
X110457190Y-92611428D01*
X109981000Y-91944761D02*
X109981000Y-93659047D01*
X110076238Y-93849523D01*
X110266714Y-93944761D01*
X110457190Y-93944761D01*
X111123857Y-93944761D02*
X111123857Y-92611428D01*
X111123857Y-91944761D02*
X111028619Y-92040000D01*
X111123857Y-92135238D01*
X111219095Y-92040000D01*
X111123857Y-91944761D01*
X111123857Y-92135238D01*
X112361952Y-93944761D02*
X112171476Y-93849523D01*
X112076238Y-93754285D01*
X111981000Y-93563809D01*
X111981000Y-92992380D01*
X112076238Y-92801904D01*
X112171476Y-92706666D01*
X112361952Y-92611428D01*
X112647666Y-92611428D01*
X112838142Y-92706666D01*
X112933380Y-92801904D01*
X113028619Y-92992380D01*
X113028619Y-93563809D01*
X112933380Y-93754285D01*
X112838142Y-93849523D01*
X112647666Y-93944761D01*
X112361952Y-93944761D01*
X113885761Y-92611428D02*
X113885761Y-93944761D01*
X113885761Y-92801904D02*
X113981000Y-92706666D01*
X114171476Y-92611428D01*
X114457190Y-92611428D01*
X114647666Y-92706666D01*
X114742904Y-92897142D01*
X114742904Y-93944761D01*
X95457190Y-95094761D02*
X96123857Y-97094761D01*
X96790523Y-95094761D01*
X97838142Y-95094761D02*
X98028619Y-95094761D01*
X98219095Y-95190000D01*
X98314333Y-95285238D01*
X98409571Y-95475714D01*
X98504809Y-95856666D01*
X98504809Y-96332857D01*
X98409571Y-96713809D01*
X98314333Y-96904285D01*
X98219095Y-96999523D01*
X98028619Y-97094761D01*
X97838142Y-97094761D01*
X97647666Y-96999523D01*
X97552428Y-96904285D01*
X97457190Y-96713809D01*
X97361952Y-96332857D01*
X97361952Y-95856666D01*
X97457190Y-95475714D01*
X97552428Y-95285238D01*
X97647666Y-95190000D01*
X97838142Y-95094761D01*
X99361952Y-96904285D02*
X99457190Y-96999523D01*
X99361952Y-97094761D01*
X99266714Y-96999523D01*
X99361952Y-96904285D01*
X99361952Y-97094761D01*
X101361952Y-97094761D02*
X100219095Y-97094761D01*
X100790523Y-97094761D02*
X100790523Y-95094761D01*
X100600047Y-95380476D01*
X100409571Y-95570952D01*
X100219095Y-95666190D01*
X104695285Y-97094761D02*
X103742904Y-97094761D01*
X103742904Y-95094761D01*
X105266714Y-95285238D02*
X105361952Y-95190000D01*
X105552428Y-95094761D01*
X106028619Y-95094761D01*
X106219095Y-95190000D01*
X106314333Y-95285238D01*
X106409571Y-95475714D01*
X106409571Y-95666190D01*
X106314333Y-95951904D01*
X105171476Y-97094761D01*
X106409571Y-97094761D01*
X107647666Y-95094761D02*
X107838142Y-95094761D01*
X108028619Y-95190000D01*
X108123857Y-95285238D01*
X108219095Y-95475714D01*
X108314333Y-95856666D01*
X108314333Y-96332857D01*
X108219095Y-96713809D01*
X108123857Y-96904285D01*
X108028619Y-96999523D01*
X107838142Y-97094761D01*
X107647666Y-97094761D01*
X107457190Y-96999523D01*
X107361952Y-96904285D01*
X107266714Y-96713809D01*
X107171476Y-96332857D01*
X107171476Y-95856666D01*
X107266714Y-95475714D01*
X107361952Y-95285238D01*
X107457190Y-95190000D01*
X107647666Y-95094761D01*
X83375595Y-60269500D02*
X83280357Y-60221880D01*
X83137500Y-60221880D01*
X82994642Y-60269500D01*
X82899404Y-60364738D01*
X82851785Y-60459976D01*
X82804166Y-60650452D01*
X82804166Y-60793309D01*
X82851785Y-60983785D01*
X82899404Y-61079023D01*
X82994642Y-61174261D01*
X83137500Y-61221880D01*
X83232738Y-61221880D01*
X83375595Y-61174261D01*
X83423214Y-61126642D01*
X83423214Y-60793309D01*
X83232738Y-60793309D01*
X83851785Y-61221880D02*
X83851785Y-60221880D01*
X84423214Y-61221880D01*
X84423214Y-60221880D01*
X84899404Y-61221880D02*
X84899404Y-60221880D01*
X85137500Y-60221880D01*
X85280357Y-60269500D01*
X85375595Y-60364738D01*
X85423214Y-60459976D01*
X85470833Y-60650452D01*
X85470833Y-60793309D01*
X85423214Y-60983785D01*
X85375595Y-61079023D01*
X85280357Y-61174261D01*
X85137500Y-61221880D01*
X84899404Y-61221880D01*
X93487952Y-61158380D02*
X92916523Y-61158380D01*
X93202238Y-61158380D02*
X93202238Y-60158380D01*
X93107000Y-60301238D01*
X93011761Y-60396476D01*
X92916523Y-60444095D01*
X93868904Y-60253619D02*
X93916523Y-60206000D01*
X94011761Y-60158380D01*
X94249857Y-60158380D01*
X94345095Y-60206000D01*
X94392714Y-60253619D01*
X94440333Y-60348857D01*
X94440333Y-60444095D01*
X94392714Y-60586952D01*
X93821285Y-61158380D01*
X94440333Y-61158380D01*
X94726047Y-60158380D02*
X95059380Y-61158380D01*
X95392714Y-60158380D01*
X67943809Y-126094785D02*
X66343809Y-126094785D01*
X66343809Y-125523357D01*
X66420000Y-125380500D01*
X66496190Y-125309071D01*
X66648571Y-125237642D01*
X66877142Y-125237642D01*
X67029523Y-125309071D01*
X67105714Y-125380500D01*
X67181904Y-125523357D01*
X67181904Y-126094785D01*
X67943809Y-124594785D02*
X66877142Y-124594785D01*
X66343809Y-124594785D02*
X66420000Y-124666214D01*
X66496190Y-124594785D01*
X66420000Y-124523357D01*
X66343809Y-124594785D01*
X66496190Y-124594785D01*
X66877142Y-123880500D02*
X67943809Y-123880500D01*
X67029523Y-123880500D02*
X66953333Y-123809071D01*
X66877142Y-123666214D01*
X66877142Y-123451928D01*
X66953333Y-123309071D01*
X67105714Y-123237642D01*
X67943809Y-123237642D01*
X67943809Y-120594785D02*
X67943809Y-121451928D01*
X67943809Y-121023357D02*
X66343809Y-121023357D01*
X66572380Y-121166214D01*
X66724761Y-121309071D01*
X66800952Y-121451928D01*
X70493809Y-126094785D02*
X68893809Y-126094785D01*
X68893809Y-125523357D01*
X68970000Y-125380500D01*
X69046190Y-125309071D01*
X69198571Y-125237642D01*
X69427142Y-125237642D01*
X69579523Y-125309071D01*
X69655714Y-125380500D01*
X69731904Y-125523357D01*
X69731904Y-126094785D01*
X70493809Y-124594785D02*
X69427142Y-124594785D01*
X68893809Y-124594785D02*
X68970000Y-124666214D01*
X69046190Y-124594785D01*
X68970000Y-124523357D01*
X68893809Y-124594785D01*
X69046190Y-124594785D01*
X69427142Y-123880500D02*
X70493809Y-123880500D01*
X69579523Y-123880500D02*
X69503333Y-123809071D01*
X69427142Y-123666214D01*
X69427142Y-123451928D01*
X69503333Y-123309071D01*
X69655714Y-123237642D01*
X70493809Y-123237642D01*
X68893809Y-121523357D02*
X68893809Y-120594785D01*
X69503333Y-121094785D01*
X69503333Y-120880500D01*
X69579523Y-120737642D01*
X69655714Y-120666214D01*
X69808095Y-120594785D01*
X70189047Y-120594785D01*
X70341428Y-120666214D01*
X70417619Y-120737642D01*
X70493809Y-120880500D01*
X70493809Y-121309071D01*
X70417619Y-121451928D01*
X70341428Y-121523357D01*
X73043809Y-126094785D02*
X71443809Y-126094785D01*
X71443809Y-125523357D01*
X71520000Y-125380500D01*
X71596190Y-125309071D01*
X71748571Y-125237642D01*
X71977142Y-125237642D01*
X72129523Y-125309071D01*
X72205714Y-125380500D01*
X72281904Y-125523357D01*
X72281904Y-126094785D01*
X73043809Y-124594785D02*
X71977142Y-124594785D01*
X71443809Y-124594785D02*
X71520000Y-124666214D01*
X71596190Y-124594785D01*
X71520000Y-124523357D01*
X71443809Y-124594785D01*
X71596190Y-124594785D01*
X71977142Y-123880500D02*
X73043809Y-123880500D01*
X72129523Y-123880500D02*
X72053333Y-123809071D01*
X71977142Y-123666214D01*
X71977142Y-123451928D01*
X72053333Y-123309071D01*
X72205714Y-123237642D01*
X73043809Y-123237642D01*
X71443809Y-120666214D02*
X71443809Y-121380500D01*
X72205714Y-121451928D01*
X72129523Y-121380500D01*
X72053333Y-121237642D01*
X72053333Y-120880500D01*
X72129523Y-120737642D01*
X72205714Y-120666214D01*
X72358095Y-120594785D01*
X72739047Y-120594785D01*
X72891428Y-120666214D01*
X72967619Y-120737642D01*
X73043809Y-120880500D01*
X73043809Y-121237642D01*
X72967619Y-121380500D01*
X72891428Y-121451928D01*
X75593809Y-126094785D02*
X73993809Y-126094785D01*
X73993809Y-125523357D01*
X74070000Y-125380500D01*
X74146190Y-125309071D01*
X74298571Y-125237642D01*
X74527142Y-125237642D01*
X74679523Y-125309071D01*
X74755714Y-125380500D01*
X74831904Y-125523357D01*
X74831904Y-126094785D01*
X75593809Y-124594785D02*
X74527142Y-124594785D01*
X73993809Y-124594785D02*
X74070000Y-124666214D01*
X74146190Y-124594785D01*
X74070000Y-124523357D01*
X73993809Y-124594785D01*
X74146190Y-124594785D01*
X74527142Y-123880500D02*
X75593809Y-123880500D01*
X74679523Y-123880500D02*
X74603333Y-123809071D01*
X74527142Y-123666214D01*
X74527142Y-123451928D01*
X74603333Y-123309071D01*
X74755714Y-123237642D01*
X75593809Y-123237642D01*
X73993809Y-121523357D02*
X73993809Y-120523357D01*
X75593809Y-121166214D01*
X78143809Y-126094785D02*
X76543809Y-126094785D01*
X76543809Y-125523357D01*
X76620000Y-125380500D01*
X76696190Y-125309071D01*
X76848571Y-125237642D01*
X77077142Y-125237642D01*
X77229523Y-125309071D01*
X77305714Y-125380500D01*
X77381904Y-125523357D01*
X77381904Y-126094785D01*
X78143809Y-124594785D02*
X77077142Y-124594785D01*
X76543809Y-124594785D02*
X76620000Y-124666214D01*
X76696190Y-124594785D01*
X76620000Y-124523357D01*
X76543809Y-124594785D01*
X76696190Y-124594785D01*
X77077142Y-123880500D02*
X78143809Y-123880500D01*
X77229523Y-123880500D02*
X77153333Y-123809071D01*
X77077142Y-123666214D01*
X77077142Y-123451928D01*
X77153333Y-123309071D01*
X77305714Y-123237642D01*
X78143809Y-123237642D01*
X78143809Y-121309071D02*
X78143809Y-121023357D01*
X78067619Y-120880500D01*
X77991428Y-120809071D01*
X77762857Y-120666214D01*
X77458095Y-120594785D01*
X76848571Y-120594785D01*
X76696190Y-120666214D01*
X76620000Y-120737642D01*
X76543809Y-120880500D01*
X76543809Y-121166214D01*
X76620000Y-121309071D01*
X76696190Y-121380500D01*
X76848571Y-121451928D01*
X77229523Y-121451928D01*
X77381904Y-121380500D01*
X77458095Y-121309071D01*
X77534285Y-121166214D01*
X77534285Y-120880500D01*
X77458095Y-120737642D01*
X77381904Y-120666214D01*
X77229523Y-120594785D01*
X80693809Y-126809071D02*
X79093809Y-126809071D01*
X79093809Y-126237642D01*
X79170000Y-126094785D01*
X79246190Y-126023357D01*
X79398571Y-125951928D01*
X79627142Y-125951928D01*
X79779523Y-126023357D01*
X79855714Y-126094785D01*
X79931904Y-126237642D01*
X79931904Y-126809071D01*
X80693809Y-125309071D02*
X79627142Y-125309071D01*
X79093809Y-125309071D02*
X79170000Y-125380500D01*
X79246190Y-125309071D01*
X79170000Y-125237642D01*
X79093809Y-125309071D01*
X79246190Y-125309071D01*
X79627142Y-124594785D02*
X80693809Y-124594785D01*
X79779523Y-124594785D02*
X79703333Y-124523357D01*
X79627142Y-124380500D01*
X79627142Y-124166214D01*
X79703333Y-124023357D01*
X79855714Y-123951928D01*
X80693809Y-123951928D01*
X80693809Y-121309071D02*
X80693809Y-122166214D01*
X80693809Y-121737642D02*
X79093809Y-121737642D01*
X79322380Y-121880500D01*
X79474761Y-122023357D01*
X79550952Y-122166214D01*
X80693809Y-119880500D02*
X80693809Y-120737642D01*
X80693809Y-120309071D02*
X79093809Y-120309071D01*
X79322380Y-120451928D01*
X79474761Y-120594785D01*
X79550952Y-120737642D01*
X83243809Y-126809071D02*
X81643809Y-126809071D01*
X81643809Y-126237642D01*
X81720000Y-126094785D01*
X81796190Y-126023357D01*
X81948571Y-125951928D01*
X82177142Y-125951928D01*
X82329523Y-126023357D01*
X82405714Y-126094785D01*
X82481904Y-126237642D01*
X82481904Y-126809071D01*
X83243809Y-125309071D02*
X82177142Y-125309071D01*
X81643809Y-125309071D02*
X81720000Y-125380500D01*
X81796190Y-125309071D01*
X81720000Y-125237642D01*
X81643809Y-125309071D01*
X81796190Y-125309071D01*
X82177142Y-124594785D02*
X83243809Y-124594785D01*
X82329523Y-124594785D02*
X82253333Y-124523357D01*
X82177142Y-124380500D01*
X82177142Y-124166214D01*
X82253333Y-124023357D01*
X82405714Y-123951928D01*
X83243809Y-123951928D01*
X83243809Y-121309071D02*
X83243809Y-122166214D01*
X83243809Y-121737642D02*
X81643809Y-121737642D01*
X81872380Y-121880500D01*
X82024761Y-122023357D01*
X82100952Y-122166214D01*
X81643809Y-120809071D02*
X81643809Y-119880500D01*
X82253333Y-120380500D01*
X82253333Y-120166214D01*
X82329523Y-120023357D01*
X82405714Y-119951928D01*
X82558095Y-119880500D01*
X82939047Y-119880500D01*
X83091428Y-119951928D01*
X83167619Y-120023357D01*
X83243809Y-120166214D01*
X83243809Y-120594785D01*
X83167619Y-120737642D01*
X83091428Y-120809071D01*
X85793809Y-126809071D02*
X84193809Y-126809071D01*
X84193809Y-126237642D01*
X84270000Y-126094785D01*
X84346190Y-126023357D01*
X84498571Y-125951928D01*
X84727142Y-125951928D01*
X84879523Y-126023357D01*
X84955714Y-126094785D01*
X85031904Y-126237642D01*
X85031904Y-126809071D01*
X85793809Y-125309071D02*
X84727142Y-125309071D01*
X84193809Y-125309071D02*
X84270000Y-125380500D01*
X84346190Y-125309071D01*
X84270000Y-125237642D01*
X84193809Y-125309071D01*
X84346190Y-125309071D01*
X84727142Y-124594785D02*
X85793809Y-124594785D01*
X84879523Y-124594785D02*
X84803333Y-124523357D01*
X84727142Y-124380500D01*
X84727142Y-124166214D01*
X84803333Y-124023357D01*
X84955714Y-123951928D01*
X85793809Y-123951928D01*
X85793809Y-121309071D02*
X85793809Y-122166214D01*
X85793809Y-121737642D02*
X84193809Y-121737642D01*
X84422380Y-121880500D01*
X84574761Y-122023357D01*
X84650952Y-122166214D01*
X84193809Y-119951928D02*
X84193809Y-120666214D01*
X84955714Y-120737642D01*
X84879523Y-120666214D01*
X84803333Y-120523357D01*
X84803333Y-120166214D01*
X84879523Y-120023357D01*
X84955714Y-119951928D01*
X85108095Y-119880500D01*
X85489047Y-119880500D01*
X85641428Y-119951928D01*
X85717619Y-120023357D01*
X85793809Y-120166214D01*
X85793809Y-120523357D01*
X85717619Y-120666214D01*
X85641428Y-120737642D01*
X88343809Y-126809071D02*
X86743809Y-126809071D01*
X86743809Y-126237642D01*
X86820000Y-126094785D01*
X86896190Y-126023357D01*
X87048571Y-125951928D01*
X87277142Y-125951928D01*
X87429523Y-126023357D01*
X87505714Y-126094785D01*
X87581904Y-126237642D01*
X87581904Y-126809071D01*
X88343809Y-125309071D02*
X87277142Y-125309071D01*
X86743809Y-125309071D02*
X86820000Y-125380500D01*
X86896190Y-125309071D01*
X86820000Y-125237642D01*
X86743809Y-125309071D01*
X86896190Y-125309071D01*
X87277142Y-124594785D02*
X88343809Y-124594785D01*
X87429523Y-124594785D02*
X87353333Y-124523357D01*
X87277142Y-124380500D01*
X87277142Y-124166214D01*
X87353333Y-124023357D01*
X87505714Y-123951928D01*
X88343809Y-123951928D01*
X88343809Y-121309071D02*
X88343809Y-122166214D01*
X88343809Y-121737642D02*
X86743809Y-121737642D01*
X86972380Y-121880500D01*
X87124761Y-122023357D01*
X87200952Y-122166214D01*
X86743809Y-120809071D02*
X86743809Y-119809071D01*
X88343809Y-120451928D01*
X90893809Y-126809071D02*
X89293809Y-126809071D01*
X89293809Y-126237642D01*
X89370000Y-126094785D01*
X89446190Y-126023357D01*
X89598571Y-125951928D01*
X89827142Y-125951928D01*
X89979523Y-126023357D01*
X90055714Y-126094785D01*
X90131904Y-126237642D01*
X90131904Y-126809071D01*
X90893809Y-125309071D02*
X89827142Y-125309071D01*
X89293809Y-125309071D02*
X89370000Y-125380500D01*
X89446190Y-125309071D01*
X89370000Y-125237642D01*
X89293809Y-125309071D01*
X89446190Y-125309071D01*
X89827142Y-124594785D02*
X90893809Y-124594785D01*
X89979523Y-124594785D02*
X89903333Y-124523357D01*
X89827142Y-124380500D01*
X89827142Y-124166214D01*
X89903333Y-124023357D01*
X90055714Y-123951928D01*
X90893809Y-123951928D01*
X89446190Y-122166214D02*
X89370000Y-122094785D01*
X89293809Y-121951928D01*
X89293809Y-121594785D01*
X89370000Y-121451928D01*
X89446190Y-121380500D01*
X89598571Y-121309071D01*
X89750952Y-121309071D01*
X89979523Y-121380500D01*
X90893809Y-122237642D01*
X90893809Y-121309071D01*
X89293809Y-120809071D02*
X89293809Y-119880500D01*
X89903333Y-120380500D01*
X89903333Y-120166214D01*
X89979523Y-120023357D01*
X90055714Y-119951928D01*
X90208095Y-119880500D01*
X90589047Y-119880500D01*
X90741428Y-119951928D01*
X90817619Y-120023357D01*
X90893809Y-120166214D01*
X90893809Y-120594785D01*
X90817619Y-120737642D01*
X90741428Y-120809071D01*
X93443809Y-126809071D02*
X91843809Y-126809071D01*
X91843809Y-126237642D01*
X91920000Y-126094785D01*
X91996190Y-126023357D01*
X92148571Y-125951928D01*
X92377142Y-125951928D01*
X92529523Y-126023357D01*
X92605714Y-126094785D01*
X92681904Y-126237642D01*
X92681904Y-126809071D01*
X93443809Y-125309071D02*
X92377142Y-125309071D01*
X91843809Y-125309071D02*
X91920000Y-125380500D01*
X91996190Y-125309071D01*
X91920000Y-125237642D01*
X91843809Y-125309071D01*
X91996190Y-125309071D01*
X92377142Y-124594785D02*
X93443809Y-124594785D01*
X92529523Y-124594785D02*
X92453333Y-124523357D01*
X92377142Y-124380500D01*
X92377142Y-124166214D01*
X92453333Y-124023357D01*
X92605714Y-123951928D01*
X93443809Y-123951928D01*
X91996190Y-122166214D02*
X91920000Y-122094785D01*
X91843809Y-121951928D01*
X91843809Y-121594785D01*
X91920000Y-121451928D01*
X91996190Y-121380500D01*
X92148571Y-121309071D01*
X92300952Y-121309071D01*
X92529523Y-121380500D01*
X93443809Y-122237642D01*
X93443809Y-121309071D01*
X91843809Y-119951928D02*
X91843809Y-120666214D01*
X92605714Y-120737642D01*
X92529523Y-120666214D01*
X92453333Y-120523357D01*
X92453333Y-120166214D01*
X92529523Y-120023357D01*
X92605714Y-119951928D01*
X92758095Y-119880500D01*
X93139047Y-119880500D01*
X93291428Y-119951928D01*
X93367619Y-120023357D01*
X93443809Y-120166214D01*
X93443809Y-120523357D01*
X93367619Y-120666214D01*
X93291428Y-120737642D01*
X95993809Y-126809071D02*
X94393809Y-126809071D01*
X94393809Y-126237642D01*
X94470000Y-126094785D01*
X94546190Y-126023357D01*
X94698571Y-125951928D01*
X94927142Y-125951928D01*
X95079523Y-126023357D01*
X95155714Y-126094785D01*
X95231904Y-126237642D01*
X95231904Y-126809071D01*
X95993809Y-125309071D02*
X94927142Y-125309071D01*
X94393809Y-125309071D02*
X94470000Y-125380500D01*
X94546190Y-125309071D01*
X94470000Y-125237642D01*
X94393809Y-125309071D01*
X94546190Y-125309071D01*
X94927142Y-124594785D02*
X95993809Y-124594785D01*
X95079523Y-124594785D02*
X95003333Y-124523357D01*
X94927142Y-124380500D01*
X94927142Y-124166214D01*
X95003333Y-124023357D01*
X95155714Y-123951928D01*
X95993809Y-123951928D01*
X94546190Y-122166214D02*
X94470000Y-122094785D01*
X94393809Y-121951928D01*
X94393809Y-121594785D01*
X94470000Y-121451928D01*
X94546190Y-121380500D01*
X94698571Y-121309071D01*
X94850952Y-121309071D01*
X95079523Y-121380500D01*
X95993809Y-122237642D01*
X95993809Y-121309071D01*
X94393809Y-120809071D02*
X94393809Y-119809071D01*
X95993809Y-120451928D01*
X98543809Y-126809071D02*
X96943809Y-126809071D01*
X96943809Y-126237642D01*
X97020000Y-126094785D01*
X97096190Y-126023357D01*
X97248571Y-125951928D01*
X97477142Y-125951928D01*
X97629523Y-126023357D01*
X97705714Y-126094785D01*
X97781904Y-126237642D01*
X97781904Y-126809071D01*
X98543809Y-125309071D02*
X97477142Y-125309071D01*
X96943809Y-125309071D02*
X97020000Y-125380500D01*
X97096190Y-125309071D01*
X97020000Y-125237642D01*
X96943809Y-125309071D01*
X97096190Y-125309071D01*
X97477142Y-124594785D02*
X98543809Y-124594785D01*
X97629523Y-124594785D02*
X97553333Y-124523357D01*
X97477142Y-124380500D01*
X97477142Y-124166214D01*
X97553333Y-124023357D01*
X97705714Y-123951928D01*
X98543809Y-123951928D01*
X97096190Y-122166214D02*
X97020000Y-122094785D01*
X96943809Y-121951928D01*
X96943809Y-121594785D01*
X97020000Y-121451928D01*
X97096190Y-121380500D01*
X97248571Y-121309071D01*
X97400952Y-121309071D01*
X97629523Y-121380500D01*
X98543809Y-122237642D01*
X98543809Y-121309071D01*
X98543809Y-120594785D02*
X98543809Y-120309071D01*
X98467619Y-120166214D01*
X98391428Y-120094785D01*
X98162857Y-119951928D01*
X97858095Y-119880500D01*
X97248571Y-119880500D01*
X97096190Y-119951928D01*
X97020000Y-120023357D01*
X96943809Y-120166214D01*
X96943809Y-120451928D01*
X97020000Y-120594785D01*
X97096190Y-120666214D01*
X97248571Y-120737642D01*
X97629523Y-120737642D01*
X97781904Y-120666214D01*
X97858095Y-120594785D01*
X97934285Y-120451928D01*
X97934285Y-120166214D01*
X97858095Y-120023357D01*
X97781904Y-119951928D01*
X97629523Y-119880500D01*
X101093809Y-126809071D02*
X99493809Y-126809071D01*
X99493809Y-126237642D01*
X99570000Y-126094785D01*
X99646190Y-126023357D01*
X99798571Y-125951928D01*
X100027142Y-125951928D01*
X100179523Y-126023357D01*
X100255714Y-126094785D01*
X100331904Y-126237642D01*
X100331904Y-126809071D01*
X101093809Y-125309071D02*
X100027142Y-125309071D01*
X99493809Y-125309071D02*
X99570000Y-125380500D01*
X99646190Y-125309071D01*
X99570000Y-125237642D01*
X99493809Y-125309071D01*
X99646190Y-125309071D01*
X100027142Y-124594785D02*
X101093809Y-124594785D01*
X100179523Y-124594785D02*
X100103333Y-124523357D01*
X100027142Y-124380500D01*
X100027142Y-124166214D01*
X100103333Y-124023357D01*
X100255714Y-123951928D01*
X101093809Y-123951928D01*
X99493809Y-122237642D02*
X99493809Y-121309071D01*
X100103333Y-121809071D01*
X100103333Y-121594785D01*
X100179523Y-121451928D01*
X100255714Y-121380500D01*
X100408095Y-121309071D01*
X100789047Y-121309071D01*
X100941428Y-121380500D01*
X101017619Y-121451928D01*
X101093809Y-121594785D01*
X101093809Y-122023357D01*
X101017619Y-122166214D01*
X100941428Y-122237642D01*
X101093809Y-119880500D02*
X101093809Y-120737642D01*
X101093809Y-120309071D02*
X99493809Y-120309071D01*
X99722380Y-120451928D01*
X99874761Y-120594785D01*
X99950952Y-120737642D01*
X103643809Y-126809071D02*
X102043809Y-126809071D01*
X102043809Y-126237642D01*
X102120000Y-126094785D01*
X102196190Y-126023357D01*
X102348571Y-125951928D01*
X102577142Y-125951928D01*
X102729523Y-126023357D01*
X102805714Y-126094785D01*
X102881904Y-126237642D01*
X102881904Y-126809071D01*
X103643809Y-125309071D02*
X102577142Y-125309071D01*
X102043809Y-125309071D02*
X102120000Y-125380500D01*
X102196190Y-125309071D01*
X102120000Y-125237642D01*
X102043809Y-125309071D01*
X102196190Y-125309071D01*
X102577142Y-124594785D02*
X103643809Y-124594785D01*
X102729523Y-124594785D02*
X102653333Y-124523357D01*
X102577142Y-124380500D01*
X102577142Y-124166214D01*
X102653333Y-124023357D01*
X102805714Y-123951928D01*
X103643809Y-123951928D01*
X102043809Y-122237642D02*
X102043809Y-121309071D01*
X102653333Y-121809071D01*
X102653333Y-121594785D01*
X102729523Y-121451928D01*
X102805714Y-121380500D01*
X102958095Y-121309071D01*
X103339047Y-121309071D01*
X103491428Y-121380500D01*
X103567619Y-121451928D01*
X103643809Y-121594785D01*
X103643809Y-122023357D01*
X103567619Y-122166214D01*
X103491428Y-122237642D01*
X102043809Y-120809071D02*
X102043809Y-119880500D01*
X102653333Y-120380500D01*
X102653333Y-120166214D01*
X102729523Y-120023357D01*
X102805714Y-119951928D01*
X102958095Y-119880500D01*
X103339047Y-119880500D01*
X103491428Y-119951928D01*
X103567619Y-120023357D01*
X103643809Y-120166214D01*
X103643809Y-120594785D01*
X103567619Y-120737642D01*
X103491428Y-120809071D01*
X106193809Y-126809071D02*
X104593809Y-126809071D01*
X104593809Y-126237642D01*
X104670000Y-126094785D01*
X104746190Y-126023357D01*
X104898571Y-125951928D01*
X105127142Y-125951928D01*
X105279523Y-126023357D01*
X105355714Y-126094785D01*
X105431904Y-126237642D01*
X105431904Y-126809071D01*
X106193809Y-125309071D02*
X105127142Y-125309071D01*
X104593809Y-125309071D02*
X104670000Y-125380500D01*
X104746190Y-125309071D01*
X104670000Y-125237642D01*
X104593809Y-125309071D01*
X104746190Y-125309071D01*
X105127142Y-124594785D02*
X106193809Y-124594785D01*
X105279523Y-124594785D02*
X105203333Y-124523357D01*
X105127142Y-124380500D01*
X105127142Y-124166214D01*
X105203333Y-124023357D01*
X105355714Y-123951928D01*
X106193809Y-123951928D01*
X104593809Y-122237642D02*
X104593809Y-121309071D01*
X105203333Y-121809071D01*
X105203333Y-121594785D01*
X105279523Y-121451928D01*
X105355714Y-121380500D01*
X105508095Y-121309071D01*
X105889047Y-121309071D01*
X106041428Y-121380500D01*
X106117619Y-121451928D01*
X106193809Y-121594785D01*
X106193809Y-122023357D01*
X106117619Y-122166214D01*
X106041428Y-122237642D01*
X104593809Y-119951928D02*
X104593809Y-120666214D01*
X105355714Y-120737642D01*
X105279523Y-120666214D01*
X105203333Y-120523357D01*
X105203333Y-120166214D01*
X105279523Y-120023357D01*
X105355714Y-119951928D01*
X105508095Y-119880500D01*
X105889047Y-119880500D01*
X106041428Y-119951928D01*
X106117619Y-120023357D01*
X106193809Y-120166214D01*
X106193809Y-120523357D01*
X106117619Y-120666214D01*
X106041428Y-120737642D01*
X108743809Y-126809071D02*
X107143809Y-126809071D01*
X107143809Y-126237642D01*
X107220000Y-126094785D01*
X107296190Y-126023357D01*
X107448571Y-125951928D01*
X107677142Y-125951928D01*
X107829523Y-126023357D01*
X107905714Y-126094785D01*
X107981904Y-126237642D01*
X107981904Y-126809071D01*
X108743809Y-125309071D02*
X107677142Y-125309071D01*
X107143809Y-125309071D02*
X107220000Y-125380500D01*
X107296190Y-125309071D01*
X107220000Y-125237642D01*
X107143809Y-125309071D01*
X107296190Y-125309071D01*
X107677142Y-124594785D02*
X108743809Y-124594785D01*
X107829523Y-124594785D02*
X107753333Y-124523357D01*
X107677142Y-124380500D01*
X107677142Y-124166214D01*
X107753333Y-124023357D01*
X107905714Y-123951928D01*
X108743809Y-123951928D01*
X107143809Y-122237642D02*
X107143809Y-121309071D01*
X107753333Y-121809071D01*
X107753333Y-121594785D01*
X107829523Y-121451928D01*
X107905714Y-121380500D01*
X108058095Y-121309071D01*
X108439047Y-121309071D01*
X108591428Y-121380500D01*
X108667619Y-121451928D01*
X108743809Y-121594785D01*
X108743809Y-122023357D01*
X108667619Y-122166214D01*
X108591428Y-122237642D01*
X107143809Y-120809071D02*
X107143809Y-119809071D01*
X108743809Y-120451928D01*
X111293809Y-126809071D02*
X109693809Y-126809071D01*
X109693809Y-126237642D01*
X109770000Y-126094785D01*
X109846190Y-126023357D01*
X109998571Y-125951928D01*
X110227142Y-125951928D01*
X110379523Y-126023357D01*
X110455714Y-126094785D01*
X110531904Y-126237642D01*
X110531904Y-126809071D01*
X111293809Y-125309071D02*
X110227142Y-125309071D01*
X109693809Y-125309071D02*
X109770000Y-125380500D01*
X109846190Y-125309071D01*
X109770000Y-125237642D01*
X109693809Y-125309071D01*
X109846190Y-125309071D01*
X110227142Y-124594785D02*
X111293809Y-124594785D01*
X110379523Y-124594785D02*
X110303333Y-124523357D01*
X110227142Y-124380500D01*
X110227142Y-124166214D01*
X110303333Y-124023357D01*
X110455714Y-123951928D01*
X111293809Y-123951928D01*
X109693809Y-122237642D02*
X109693809Y-121309071D01*
X110303333Y-121809071D01*
X110303333Y-121594785D01*
X110379523Y-121451928D01*
X110455714Y-121380500D01*
X110608095Y-121309071D01*
X110989047Y-121309071D01*
X111141428Y-121380500D01*
X111217619Y-121451928D01*
X111293809Y-121594785D01*
X111293809Y-122023357D01*
X111217619Y-122166214D01*
X111141428Y-122237642D01*
X111293809Y-120594785D02*
X111293809Y-120309071D01*
X111217619Y-120166214D01*
X111141428Y-120094785D01*
X110912857Y-119951928D01*
X110608095Y-119880500D01*
X109998571Y-119880500D01*
X109846190Y-119951928D01*
X109770000Y-120023357D01*
X109693809Y-120166214D01*
X109693809Y-120451928D01*
X109770000Y-120594785D01*
X109846190Y-120666214D01*
X109998571Y-120737642D01*
X110379523Y-120737642D01*
X110531904Y-120666214D01*
X110608095Y-120594785D01*
X110684285Y-120451928D01*
X110684285Y-120166214D01*
X110608095Y-120023357D01*
X110531904Y-119951928D01*
X110379523Y-119880500D01*
X112243809Y-129951928D02*
X112243809Y-129666214D01*
X112320000Y-129523357D01*
X112472380Y-129380500D01*
X112777142Y-129309071D01*
X113310476Y-129309071D01*
X113615238Y-129380500D01*
X113767619Y-129523357D01*
X113843809Y-129666214D01*
X113843809Y-129951928D01*
X113767619Y-130094785D01*
X113615238Y-130237642D01*
X113310476Y-130309071D01*
X112777142Y-130309071D01*
X112472380Y-130237642D01*
X112320000Y-130094785D01*
X112243809Y-129951928D01*
X112777142Y-128666214D02*
X114377142Y-128666214D01*
X112853333Y-128666214D02*
X112777142Y-128523357D01*
X112777142Y-128237642D01*
X112853333Y-128094785D01*
X112929523Y-128023357D01*
X113081904Y-127951928D01*
X113539047Y-127951928D01*
X113691428Y-128023357D01*
X113767619Y-128094785D01*
X113843809Y-128237642D01*
X113843809Y-128523357D01*
X113767619Y-128666214D01*
X113767619Y-126737642D02*
X113843809Y-126880500D01*
X113843809Y-127166214D01*
X113767619Y-127309071D01*
X113615238Y-127380500D01*
X113005714Y-127380500D01*
X112853333Y-127309071D01*
X112777142Y-127166214D01*
X112777142Y-126880500D01*
X112853333Y-126737642D01*
X113005714Y-126666214D01*
X113158095Y-126666214D01*
X113310476Y-127380500D01*
X112777142Y-126023357D02*
X113843809Y-126023357D01*
X112929523Y-126023357D02*
X112853333Y-125951928D01*
X112777142Y-125809071D01*
X112777142Y-125594785D01*
X112853333Y-125451928D01*
X113005714Y-125380500D01*
X113843809Y-125380500D01*
X112167619Y-123594785D02*
X114224761Y-124880500D01*
X113691428Y-122237642D02*
X113767619Y-122309071D01*
X113843809Y-122523357D01*
X113843809Y-122666214D01*
X113767619Y-122880500D01*
X113615238Y-123023357D01*
X113462857Y-123094785D01*
X113158095Y-123166214D01*
X112929523Y-123166214D01*
X112624761Y-123094785D01*
X112472380Y-123023357D01*
X112320000Y-122880500D01*
X112243809Y-122666214D01*
X112243809Y-122523357D01*
X112320000Y-122309071D01*
X112396190Y-122237642D01*
X113843809Y-121380500D02*
X113767619Y-121523357D01*
X113615238Y-121594785D01*
X112243809Y-121594785D01*
X113843809Y-120594785D02*
X113767619Y-120737642D01*
X113691428Y-120809071D01*
X113539047Y-120880500D01*
X113081904Y-120880500D01*
X112929523Y-120809071D01*
X112853333Y-120737642D01*
X112777142Y-120594785D01*
X112777142Y-120380500D01*
X112853333Y-120237642D01*
X112929523Y-120166214D01*
X113081904Y-120094785D01*
X113539047Y-120094785D01*
X113691428Y-120166214D01*
X113767619Y-120237642D01*
X113843809Y-120380500D01*
X113843809Y-120594785D01*
X113767619Y-119523357D02*
X113843809Y-119380500D01*
X113843809Y-119094785D01*
X113767619Y-118951928D01*
X113615238Y-118880500D01*
X113539047Y-118880500D01*
X113386666Y-118951928D01*
X113310476Y-119094785D01*
X113310476Y-119309071D01*
X113234285Y-119451928D01*
X113081904Y-119523357D01*
X113005714Y-119523357D01*
X112853333Y-119451928D01*
X112777142Y-119309071D01*
X112777142Y-119094785D01*
X112853333Y-118951928D01*
X113767619Y-117666214D02*
X113843809Y-117809071D01*
X113843809Y-118094785D01*
X113767619Y-118237642D01*
X113615238Y-118309071D01*
X113005714Y-118309071D01*
X112853333Y-118237642D01*
X112777142Y-118094785D01*
X112777142Y-117809071D01*
X112853333Y-117666214D01*
X113005714Y-117594785D01*
X113158095Y-117594785D01*
X113310476Y-118309071D01*
D11*
%TO.C,J3*%
X68326000Y-116011000D02*
X68326000Y-113351000D01*
X68326000Y-116011000D02*
X114106000Y-116011000D01*
X114106000Y-116011000D02*
X114106000Y-113351000D01*
X68326000Y-113351000D02*
X114106000Y-113351000D01*
X65726000Y-113351000D02*
X67056000Y-113351000D01*
X65726000Y-114681000D02*
X65726000Y-113351000D01*
%TO.C,PWR1*%
X86490500Y-61909000D02*
X86490500Y-60579000D01*
X87820500Y-61909000D02*
X86490500Y-61909000D01*
X89090500Y-61909000D02*
X89090500Y-59249000D01*
X89090500Y-59249000D02*
X91690500Y-59249000D01*
X89090500Y-61909000D02*
X91690500Y-61909000D01*
X91690500Y-61909000D02*
X91690500Y-59249000D01*
%TO.C,J2*%
X122495000Y-61408000D02*
X123825000Y-61408000D01*
X122495000Y-62738000D02*
X122495000Y-61408000D01*
X125095000Y-61408000D02*
X127695000Y-61408000D01*
X125095000Y-64008000D02*
X125095000Y-61408000D01*
X122495000Y-64008000D02*
X125095000Y-64008000D01*
X127695000Y-61408000D02*
X127695000Y-112328000D01*
X122495000Y-64008000D02*
X122495000Y-112328000D01*
X122495000Y-112328000D02*
X127695000Y-112328000D01*
%TO.C,J1*%
X52835500Y-61217500D02*
X54165500Y-61217500D01*
X52835500Y-62547500D02*
X52835500Y-61217500D01*
X55435500Y-61217500D02*
X58035500Y-61217500D01*
X55435500Y-63817500D02*
X55435500Y-61217500D01*
X52835500Y-63817500D02*
X55435500Y-63817500D01*
X58035500Y-61217500D02*
X58035500Y-112137500D01*
X52835500Y-63817500D02*
X52835500Y-112137500D01*
X52835500Y-112137500D02*
X58035500Y-112137500D01*
%TO.C,J3*%
D10*
X63738380Y-115014333D02*
X64452666Y-115014333D01*
X64595523Y-115061952D01*
X64690761Y-115157190D01*
X64738380Y-115300047D01*
X64738380Y-115395285D01*
X63738380Y-114633380D02*
X63738380Y-114014333D01*
X64119333Y-114347666D01*
X64119333Y-114204809D01*
X64166952Y-114109571D01*
X64214571Y-114061952D01*
X64309809Y-114014333D01*
X64547904Y-114014333D01*
X64643142Y-114061952D01*
X64690761Y-114109571D01*
X64738380Y-114204809D01*
X64738380Y-114490523D01*
X64690761Y-114585761D01*
X64643142Y-114633380D01*
%TO.C,J2*%
X124761666Y-59860380D02*
X124761666Y-60574666D01*
X124714047Y-60717523D01*
X124618809Y-60812761D01*
X124475952Y-60860380D01*
X124380714Y-60860380D01*
X125190238Y-59955619D02*
X125237857Y-59908000D01*
X125333095Y-59860380D01*
X125571190Y-59860380D01*
X125666428Y-59908000D01*
X125714047Y-59955619D01*
X125761666Y-60050857D01*
X125761666Y-60146095D01*
X125714047Y-60288952D01*
X125142619Y-60860380D01*
X125761666Y-60860380D01*
%TO.C,J1*%
X55102166Y-59669880D02*
X55102166Y-60384166D01*
X55054547Y-60527023D01*
X54959309Y-60622261D01*
X54816452Y-60669880D01*
X54721214Y-60669880D01*
X56102166Y-60669880D02*
X55530738Y-60669880D01*
X55816452Y-60669880D02*
X55816452Y-59669880D01*
X55721214Y-59812738D01*
X55625976Y-59907976D01*
X55530738Y-59955595D01*
%TD*%
M02*
