%TF.GenerationSoftware,KiCad,Pcbnew,(5.1.10)-1*%
%TF.CreationDate,2022-03-29T20:22:55-05:00*%
%TF.ProjectId,FMT Rescue,464d5420-5265-4736-9375-652e6b696361,rev?*%
%TF.SameCoordinates,Original*%
%TF.FileFunction,Soldermask,Top*%
%TF.FilePolarity,Negative*%
%FSLAX46Y46*%
G04 Gerber Fmt 4.6, Leading zero omitted, Abs format (unit mm)*
G04 Created by KiCad (PCBNEW (5.1.10)-1) date 2022-03-29 20:22:55*
%MOMM*%
%LPD*%
G01*
G04 APERTURE LIST*
%ADD10C,0.010000*%
%ADD11O,1.700000X1.700000*%
%ADD12R,1.700000X1.700000*%
%ADD13C,7.000000*%
G04 APERTURE END LIST*
D10*
%TO.C,G\u002A\u002A\u002A*%
G36*
X113066450Y-85994077D02*
G01*
X113443225Y-86034054D01*
X113648809Y-86091046D01*
X113665000Y-86106000D01*
X113636209Y-86214724D01*
X113545495Y-86233000D01*
X113460352Y-86266892D01*
X113403189Y-86395132D01*
X113368798Y-86657565D01*
X113351971Y-87094037D01*
X113347500Y-87744394D01*
X113347500Y-87747687D01*
X113351411Y-88396649D01*
X113367198Y-88834691D01*
X113400939Y-89104828D01*
X113458712Y-89250074D01*
X113546596Y-89313445D01*
X113569750Y-89320455D01*
X113550181Y-89344961D01*
X113318997Y-89364356D01*
X112918568Y-89376141D01*
X112585500Y-89378535D01*
X112097318Y-89373079D01*
X111750677Y-89358377D01*
X111587946Y-89336930D01*
X111601250Y-89320455D01*
X111696322Y-89268952D01*
X111759990Y-89144721D01*
X111798333Y-88904748D01*
X111817430Y-88506019D01*
X111823359Y-87905518D01*
X111823491Y-87757000D01*
X112331500Y-87757000D01*
X112333992Y-88400323D01*
X112346145Y-88831751D01*
X112374974Y-89093377D01*
X112427494Y-89227290D01*
X112510722Y-89275584D01*
X112585500Y-89281000D01*
X112692720Y-89266047D01*
X112764625Y-89193129D01*
X112808229Y-89020154D01*
X112830548Y-88705030D01*
X112838597Y-88205666D01*
X112839500Y-87757000D01*
X112837007Y-87113676D01*
X112824854Y-86682248D01*
X112796025Y-86420622D01*
X112743505Y-86286709D01*
X112660277Y-86238415D01*
X112585500Y-86233000D01*
X112478279Y-86247952D01*
X112406374Y-86320870D01*
X112362770Y-86493845D01*
X112340451Y-86808969D01*
X112332402Y-87308333D01*
X112331500Y-87757000D01*
X111823491Y-87757000D01*
X111823500Y-87747687D01*
X111819069Y-87096332D01*
X111802306Y-86659031D01*
X111768002Y-86395939D01*
X111710947Y-86267210D01*
X111625935Y-86233000D01*
X111625504Y-86233000D01*
X111494052Y-86171431D01*
X111506000Y-86106000D01*
X111661823Y-86046163D01*
X112004526Y-86001495D01*
X112467095Y-85979881D01*
X112585500Y-85979000D01*
X113066450Y-85994077D01*
G37*
X113066450Y-85994077D02*
X113443225Y-86034054D01*
X113648809Y-86091046D01*
X113665000Y-86106000D01*
X113636209Y-86214724D01*
X113545495Y-86233000D01*
X113460352Y-86266892D01*
X113403189Y-86395132D01*
X113368798Y-86657565D01*
X113351971Y-87094037D01*
X113347500Y-87744394D01*
X113347500Y-87747687D01*
X113351411Y-88396649D01*
X113367198Y-88834691D01*
X113400939Y-89104828D01*
X113458712Y-89250074D01*
X113546596Y-89313445D01*
X113569750Y-89320455D01*
X113550181Y-89344961D01*
X113318997Y-89364356D01*
X112918568Y-89376141D01*
X112585500Y-89378535D01*
X112097318Y-89373079D01*
X111750677Y-89358377D01*
X111587946Y-89336930D01*
X111601250Y-89320455D01*
X111696322Y-89268952D01*
X111759990Y-89144721D01*
X111798333Y-88904748D01*
X111817430Y-88506019D01*
X111823359Y-87905518D01*
X111823491Y-87757000D01*
X112331500Y-87757000D01*
X112333992Y-88400323D01*
X112346145Y-88831751D01*
X112374974Y-89093377D01*
X112427494Y-89227290D01*
X112510722Y-89275584D01*
X112585500Y-89281000D01*
X112692720Y-89266047D01*
X112764625Y-89193129D01*
X112808229Y-89020154D01*
X112830548Y-88705030D01*
X112838597Y-88205666D01*
X112839500Y-87757000D01*
X112837007Y-87113676D01*
X112824854Y-86682248D01*
X112796025Y-86420622D01*
X112743505Y-86286709D01*
X112660277Y-86238415D01*
X112585500Y-86233000D01*
X112478279Y-86247952D01*
X112406374Y-86320870D01*
X112362770Y-86493845D01*
X112340451Y-86808969D01*
X112332402Y-87308333D01*
X112331500Y-87757000D01*
X111823491Y-87757000D01*
X111823500Y-87747687D01*
X111819069Y-87096332D01*
X111802306Y-86659031D01*
X111768002Y-86395939D01*
X111710947Y-86267210D01*
X111625935Y-86233000D01*
X111625504Y-86233000D01*
X111494052Y-86171431D01*
X111506000Y-86106000D01*
X111661823Y-86046163D01*
X112004526Y-86001495D01*
X112467095Y-85979881D01*
X112585500Y-85979000D01*
X113066450Y-85994077D01*
G36*
X109465052Y-86006285D02*
G01*
X110617000Y-86042500D01*
X110657185Y-86391750D01*
X110697371Y-86741000D01*
X109577685Y-86759030D01*
X108458000Y-86777061D01*
X109312941Y-86864258D01*
X109926719Y-86964908D01*
X110348303Y-87141409D01*
X110636190Y-87428754D01*
X110808209Y-87758712D01*
X110895161Y-88127638D01*
X110823732Y-88532695D01*
X110813397Y-88564628D01*
X110654081Y-88919348D01*
X110421714Y-89161928D01*
X110071642Y-89311484D01*
X109559211Y-89387136D01*
X108843468Y-89408000D01*
X107632500Y-89408000D01*
X107632500Y-88646000D01*
X108686600Y-88646000D01*
X109300372Y-88628489D01*
X109702243Y-88564121D01*
X109932637Y-88435137D01*
X110031981Y-88223781D01*
X110045500Y-88049100D01*
X110028595Y-87895147D01*
X109940774Y-87807625D01*
X109726376Y-87767888D01*
X109329740Y-87757287D01*
X109173627Y-87757000D01*
X108645254Y-87738250D01*
X108288566Y-87670317D01*
X108023231Y-87535676D01*
X107967127Y-87493782D01*
X107686456Y-87141772D01*
X107640507Y-86749547D01*
X107829026Y-86373342D01*
X107972802Y-86237753D01*
X108168016Y-86108573D01*
X108392677Y-86032432D01*
X108711991Y-85999217D01*
X109191163Y-85998813D01*
X109465052Y-86006285D01*
G37*
X109465052Y-86006285D02*
X110617000Y-86042500D01*
X110657185Y-86391750D01*
X110697371Y-86741000D01*
X109577685Y-86759030D01*
X108458000Y-86777061D01*
X109312941Y-86864258D01*
X109926719Y-86964908D01*
X110348303Y-87141409D01*
X110636190Y-87428754D01*
X110808209Y-87758712D01*
X110895161Y-88127638D01*
X110823732Y-88532695D01*
X110813397Y-88564628D01*
X110654081Y-88919348D01*
X110421714Y-89161928D01*
X110071642Y-89311484D01*
X109559211Y-89387136D01*
X108843468Y-89408000D01*
X107632500Y-89408000D01*
X107632500Y-88646000D01*
X108686600Y-88646000D01*
X109300372Y-88628489D01*
X109702243Y-88564121D01*
X109932637Y-88435137D01*
X110031981Y-88223781D01*
X110045500Y-88049100D01*
X110028595Y-87895147D01*
X109940774Y-87807625D01*
X109726376Y-87767888D01*
X109329740Y-87757287D01*
X109173627Y-87757000D01*
X108645254Y-87738250D01*
X108288566Y-87670317D01*
X108023231Y-87535676D01*
X107967127Y-87493782D01*
X107686456Y-87141772D01*
X107640507Y-86749547D01*
X107829026Y-86373342D01*
X107972802Y-86237753D01*
X108168016Y-86108573D01*
X108392677Y-86032432D01*
X108711991Y-85999217D01*
X109191163Y-85998813D01*
X109465052Y-86006285D01*
G36*
X105279373Y-86035211D02*
G01*
X105516010Y-86201315D01*
X105718336Y-86519553D01*
X105934918Y-87029297D01*
X106006280Y-87215796D01*
X106426000Y-88324252D01*
X106553000Y-86042500D01*
X107315000Y-86042500D01*
X107385966Y-89421532D01*
X106045000Y-89344500D01*
X105552224Y-88106250D01*
X105277333Y-87453232D01*
X105065278Y-87044789D01*
X104909461Y-86881170D01*
X104803285Y-86962624D01*
X104740150Y-87289400D01*
X104713459Y-87861748D01*
X104711500Y-88138000D01*
X104711500Y-89408000D01*
X103942127Y-89408000D01*
X103977563Y-87725250D01*
X104013000Y-86042500D01*
X104508893Y-86001912D01*
X104959857Y-85981867D01*
X105279373Y-86035211D01*
G37*
X105279373Y-86035211D02*
X105516010Y-86201315D01*
X105718336Y-86519553D01*
X105934918Y-87029297D01*
X106006280Y-87215796D01*
X106426000Y-88324252D01*
X106553000Y-86042500D01*
X107315000Y-86042500D01*
X107385966Y-89421532D01*
X106045000Y-89344500D01*
X105552224Y-88106250D01*
X105277333Y-87453232D01*
X105065278Y-87044789D01*
X104909461Y-86881170D01*
X104803285Y-86962624D01*
X104740150Y-87289400D01*
X104713459Y-87861748D01*
X104711500Y-88138000D01*
X104711500Y-89408000D01*
X103942127Y-89408000D01*
X103977563Y-87725250D01*
X104013000Y-86042500D01*
X104508893Y-86001912D01*
X104959857Y-85981867D01*
X105279373Y-86035211D01*
G36*
X102858227Y-89471500D02*
G01*
X101981000Y-89471500D01*
X101730619Y-88519000D01*
X101480239Y-87566500D01*
X101286119Y-88392000D01*
X101148327Y-88935350D01*
X101026971Y-89274836D01*
X100893992Y-89456664D01*
X100721333Y-89527040D01*
X100592055Y-89535000D01*
X100308088Y-89471646D01*
X100174811Y-89376250D01*
X100109965Y-89211264D01*
X100004702Y-88858952D01*
X99874239Y-88379819D01*
X99733790Y-87834373D01*
X99598570Y-87283119D01*
X99483795Y-86786564D01*
X99404680Y-86405214D01*
X99376411Y-86201250D01*
X99487409Y-86133340D01*
X99744272Y-86106000D01*
X99930215Y-86119981D01*
X100058217Y-86195571D01*
X100159716Y-86383242D01*
X100266154Y-86733464D01*
X100357403Y-87090250D01*
X100603763Y-88074500D01*
X100839352Y-87090250D01*
X100960188Y-86601346D01*
X101055854Y-86309022D01*
X101159835Y-86162724D01*
X101305621Y-86111898D01*
X101491326Y-86106000D01*
X101690943Y-86117734D01*
X101836184Y-86180814D01*
X101949473Y-86337055D01*
X102053233Y-86628271D01*
X102169886Y-87096279D01*
X102274517Y-87566500D01*
X102385815Y-88074500D01*
X102524890Y-87566500D01*
X102647505Y-87107742D01*
X102763040Y-86659119D01*
X102774299Y-86614000D01*
X102888032Y-86303843D01*
X103074830Y-86166199D01*
X103272127Y-86131041D01*
X103659621Y-86092582D01*
X102858227Y-89471500D01*
G37*
X102858227Y-89471500D02*
X101981000Y-89471500D01*
X101730619Y-88519000D01*
X101480239Y-87566500D01*
X101286119Y-88392000D01*
X101148327Y-88935350D01*
X101026971Y-89274836D01*
X100893992Y-89456664D01*
X100721333Y-89527040D01*
X100592055Y-89535000D01*
X100308088Y-89471646D01*
X100174811Y-89376250D01*
X100109965Y-89211264D01*
X100004702Y-88858952D01*
X99874239Y-88379819D01*
X99733790Y-87834373D01*
X99598570Y-87283119D01*
X99483795Y-86786564D01*
X99404680Y-86405214D01*
X99376411Y-86201250D01*
X99487409Y-86133340D01*
X99744272Y-86106000D01*
X99930215Y-86119981D01*
X100058217Y-86195571D01*
X100159716Y-86383242D01*
X100266154Y-86733464D01*
X100357403Y-87090250D01*
X100603763Y-88074500D01*
X100839352Y-87090250D01*
X100960188Y-86601346D01*
X101055854Y-86309022D01*
X101159835Y-86162724D01*
X101305621Y-86111898D01*
X101491326Y-86106000D01*
X101690943Y-86117734D01*
X101836184Y-86180814D01*
X101949473Y-86337055D01*
X102053233Y-86628271D01*
X102169886Y-87096279D01*
X102274517Y-87566500D01*
X102385815Y-88074500D01*
X102524890Y-87566500D01*
X102647505Y-87107742D01*
X102763040Y-86659119D01*
X102774299Y-86614000D01*
X102888032Y-86303843D01*
X103074830Y-86166199D01*
X103272127Y-86131041D01*
X103659621Y-86092582D01*
X102858227Y-89471500D01*
G36*
X98059960Y-86062538D02*
G01*
X98372504Y-86141250D01*
X98625111Y-86306531D01*
X98685135Y-86360000D01*
X99038928Y-86795317D01*
X99287926Y-87310657D01*
X99377500Y-87776323D01*
X99288528Y-88202988D01*
X99062264Y-88678603D01*
X98759684Y-89095801D01*
X98503352Y-89315524D01*
X97999198Y-89492706D01*
X97417816Y-89520585D01*
X96874268Y-89400696D01*
X96660338Y-89290946D01*
X96167140Y-88831748D01*
X95886120Y-88275191D01*
X95845516Y-87890608D01*
X96607389Y-87890608D01*
X96765313Y-88322690D01*
X96846717Y-88438372D01*
X97202694Y-88705620D01*
X97645271Y-88780713D01*
X98091192Y-88660349D01*
X98321564Y-88496862D01*
X98569753Y-88106984D01*
X98607824Y-87653378D01*
X98436734Y-87213608D01*
X98303772Y-87052727D01*
X97907440Y-86792198D01*
X97502908Y-86742751D01*
X97130407Y-86866127D01*
X96830166Y-87124068D01*
X96642417Y-87478314D01*
X96607389Y-87890608D01*
X95845516Y-87890608D01*
X95822320Y-87670915D01*
X95980779Y-87068563D01*
X96366536Y-86517777D01*
X96377642Y-86506590D01*
X96665041Y-86241818D01*
X96914929Y-86102995D01*
X97232183Y-86050021D01*
X97591385Y-86042500D01*
X98059960Y-86062538D01*
G37*
X98059960Y-86062538D02*
X98372504Y-86141250D01*
X98625111Y-86306531D01*
X98685135Y-86360000D01*
X99038928Y-86795317D01*
X99287926Y-87310657D01*
X99377500Y-87776323D01*
X99288528Y-88202988D01*
X99062264Y-88678603D01*
X98759684Y-89095801D01*
X98503352Y-89315524D01*
X97999198Y-89492706D01*
X97417816Y-89520585D01*
X96874268Y-89400696D01*
X96660338Y-89290946D01*
X96167140Y-88831748D01*
X95886120Y-88275191D01*
X95845516Y-87890608D01*
X96607389Y-87890608D01*
X96765313Y-88322690D01*
X96846717Y-88438372D01*
X97202694Y-88705620D01*
X97645271Y-88780713D01*
X98091192Y-88660349D01*
X98321564Y-88496862D01*
X98569753Y-88106984D01*
X98607824Y-87653378D01*
X98436734Y-87213608D01*
X98303772Y-87052727D01*
X97907440Y-86792198D01*
X97502908Y-86742751D01*
X97130407Y-86866127D01*
X96830166Y-87124068D01*
X96642417Y-87478314D01*
X96607389Y-87890608D01*
X95845516Y-87890608D01*
X95822320Y-87670915D01*
X95980779Y-87068563D01*
X96366536Y-86517777D01*
X96377642Y-86506590D01*
X96665041Y-86241818D01*
X96914929Y-86102995D01*
X97232183Y-86050021D01*
X97591385Y-86042500D01*
X98059960Y-86062538D01*
G36*
X95925185Y-86455250D02*
G01*
X95870870Y-86678877D01*
X95725814Y-86789657D01*
X95414352Y-86838251D01*
X95345250Y-86843552D01*
X94805500Y-86882604D01*
X94805500Y-89535000D01*
X93916500Y-89535000D01*
X93916500Y-86882604D01*
X93376750Y-86843552D01*
X93032220Y-86800129D01*
X92866000Y-86702490D01*
X92802425Y-86499974D01*
X92796814Y-86455250D01*
X92756628Y-86106000D01*
X95965371Y-86106000D01*
X95925185Y-86455250D01*
G37*
X95925185Y-86455250D02*
X95870870Y-86678877D01*
X95725814Y-86789657D01*
X95414352Y-86838251D01*
X95345250Y-86843552D01*
X94805500Y-86882604D01*
X94805500Y-89535000D01*
X93916500Y-89535000D01*
X93916500Y-86882604D01*
X93376750Y-86843552D01*
X93032220Y-86800129D01*
X92866000Y-86702490D01*
X92802425Y-86499974D01*
X92796814Y-86455250D01*
X92756628Y-86106000D01*
X95965371Y-86106000D01*
X95925185Y-86455250D01*
G36*
X91746378Y-87806762D02*
G01*
X91945342Y-88002828D01*
X92033121Y-88168121D01*
X92227824Y-88579242D01*
X92440423Y-88168121D01*
X92653092Y-87868748D01*
X92916624Y-87761050D01*
X93003253Y-87757000D01*
X93188472Y-87766657D01*
X93291776Y-87833245D01*
X93335004Y-88013185D01*
X93339996Y-88362903D01*
X93335083Y-88614250D01*
X93316683Y-89471500D01*
X92902003Y-89512496D01*
X92623149Y-89523611D01*
X92532439Y-89438984D01*
X92566529Y-89198526D01*
X92567316Y-89194996D01*
X92647309Y-88836500D01*
X92452348Y-89185750D01*
X92249614Y-89464703D01*
X92071483Y-89498642D01*
X91892170Y-89285013D01*
X91810941Y-89122250D01*
X91622645Y-88709500D01*
X91700163Y-89122250D01*
X91733406Y-89403629D01*
X91655307Y-89515761D01*
X91450090Y-89535000D01*
X91202979Y-89524347D01*
X91114079Y-89503250D01*
X91106085Y-89370330D01*
X91093196Y-89052194D01*
X91078192Y-88617508D01*
X91078088Y-88614250D01*
X91050516Y-87757000D01*
X91444467Y-87757000D01*
X91746378Y-87806762D01*
G37*
X91746378Y-87806762D02*
X91945342Y-88002828D01*
X92033121Y-88168121D01*
X92227824Y-88579242D01*
X92440423Y-88168121D01*
X92653092Y-87868748D01*
X92916624Y-87761050D01*
X93003253Y-87757000D01*
X93188472Y-87766657D01*
X93291776Y-87833245D01*
X93335004Y-88013185D01*
X93339996Y-88362903D01*
X93335083Y-88614250D01*
X93316683Y-89471500D01*
X92902003Y-89512496D01*
X92623149Y-89523611D01*
X92532439Y-89438984D01*
X92566529Y-89198526D01*
X92567316Y-89194996D01*
X92647309Y-88836500D01*
X92452348Y-89185750D01*
X92249614Y-89464703D01*
X92071483Y-89498642D01*
X91892170Y-89285013D01*
X91810941Y-89122250D01*
X91622645Y-88709500D01*
X91700163Y-89122250D01*
X91733406Y-89403629D01*
X91655307Y-89515761D01*
X91450090Y-89535000D01*
X91202979Y-89524347D01*
X91114079Y-89503250D01*
X91106085Y-89370330D01*
X91093196Y-89052194D01*
X91078192Y-88617508D01*
X91078088Y-88614250D01*
X91050516Y-87757000D01*
X91444467Y-87757000D01*
X91746378Y-87806762D01*
G36*
X90422298Y-87761292D02*
G01*
X90697259Y-87786678D01*
X90827037Y-87851915D01*
X90866035Y-87975764D01*
X90868500Y-88074500D01*
X90791136Y-88317907D01*
X90617367Y-88399367D01*
X90434672Y-88281388D01*
X90424000Y-88265000D01*
X90248496Y-88165792D01*
X90043000Y-88138000D01*
X89777061Y-88185939D01*
X89662000Y-88265000D01*
X89707691Y-88358496D01*
X89917817Y-88392000D01*
X90160281Y-88460649D01*
X90215927Y-88618232D01*
X90093999Y-88792202D01*
X89853113Y-88899855D01*
X89652560Y-88981945D01*
X89695030Y-89071668D01*
X89859945Y-89258236D01*
X89804164Y-89428498D01*
X89558018Y-89527403D01*
X89439750Y-89535000D01*
X89027000Y-89535000D01*
X89027000Y-87757000D01*
X89947750Y-87757000D01*
X90422298Y-87761292D01*
G37*
X90422298Y-87761292D02*
X90697259Y-87786678D01*
X90827037Y-87851915D01*
X90866035Y-87975764D01*
X90868500Y-88074500D01*
X90791136Y-88317907D01*
X90617367Y-88399367D01*
X90434672Y-88281388D01*
X90424000Y-88265000D01*
X90248496Y-88165792D01*
X90043000Y-88138000D01*
X89777061Y-88185939D01*
X89662000Y-88265000D01*
X89707691Y-88358496D01*
X89917817Y-88392000D01*
X90160281Y-88460649D01*
X90215927Y-88618232D01*
X90093999Y-88792202D01*
X89853113Y-88899855D01*
X89652560Y-88981945D01*
X89695030Y-89071668D01*
X89859945Y-89258236D01*
X89804164Y-89428498D01*
X89558018Y-89527403D01*
X89439750Y-89535000D01*
X89027000Y-89535000D01*
X89027000Y-87757000D01*
X89947750Y-87757000D01*
X90422298Y-87761292D01*
%TD*%
D11*
%TO.C,J3*%
X112776000Y-114681000D03*
X110236000Y-114681000D03*
X107696000Y-114681000D03*
X105156000Y-114681000D03*
X102616000Y-114681000D03*
X100076000Y-114681000D03*
X97536000Y-114681000D03*
X94996000Y-114681000D03*
X92456000Y-114681000D03*
X89916000Y-114681000D03*
X87376000Y-114681000D03*
X84836000Y-114681000D03*
X82296000Y-114681000D03*
X79756000Y-114681000D03*
X77216000Y-114681000D03*
X74676000Y-114681000D03*
X72136000Y-114681000D03*
X69596000Y-114681000D03*
D12*
X67056000Y-114681000D03*
%TD*%
D13*
%TO.C,REF\u002A\u002A*%
X48831500Y-56134000D03*
%TD*%
%TO.C,REF\u002A\u002A*%
X128841500Y-128333500D03*
%TD*%
%TO.C,REF\u002A\u002A*%
X48450500Y-128524000D03*
%TD*%
%TO.C,REF\u002A\u002A*%
X128079500Y-56515000D03*
%TD*%
D11*
%TO.C,PWR1*%
X90360500Y-60579000D03*
D12*
X87820500Y-60579000D03*
%TD*%
D11*
%TO.C,J2*%
X126365000Y-110998000D03*
X123825000Y-110998000D03*
X126365000Y-108458000D03*
X123825000Y-108458000D03*
X126365000Y-105918000D03*
X123825000Y-105918000D03*
X126365000Y-103378000D03*
X123825000Y-103378000D03*
X126365000Y-100838000D03*
X123825000Y-100838000D03*
X126365000Y-98298000D03*
X123825000Y-98298000D03*
X126365000Y-95758000D03*
X123825000Y-95758000D03*
X126365000Y-93218000D03*
X123825000Y-93218000D03*
X126365000Y-90678000D03*
X123825000Y-90678000D03*
X126365000Y-88138000D03*
X123825000Y-88138000D03*
X126365000Y-85598000D03*
X123825000Y-85598000D03*
X126365000Y-83058000D03*
X123825000Y-83058000D03*
X126365000Y-80518000D03*
X123825000Y-80518000D03*
X126365000Y-77978000D03*
X123825000Y-77978000D03*
X126365000Y-75438000D03*
X123825000Y-75438000D03*
X126365000Y-72898000D03*
X123825000Y-72898000D03*
X126365000Y-70358000D03*
X123825000Y-70358000D03*
X126365000Y-67818000D03*
X123825000Y-67818000D03*
X126365000Y-65278000D03*
X123825000Y-65278000D03*
X126365000Y-62738000D03*
D12*
X123825000Y-62738000D03*
%TD*%
D11*
%TO.C,J1*%
X56705500Y-110807500D03*
X54165500Y-110807500D03*
X56705500Y-108267500D03*
X54165500Y-108267500D03*
X56705500Y-105727500D03*
X54165500Y-105727500D03*
X56705500Y-103187500D03*
X54165500Y-103187500D03*
X56705500Y-100647500D03*
X54165500Y-100647500D03*
X56705500Y-98107500D03*
X54165500Y-98107500D03*
X56705500Y-95567500D03*
X54165500Y-95567500D03*
X56705500Y-93027500D03*
X54165500Y-93027500D03*
X56705500Y-90487500D03*
X54165500Y-90487500D03*
X56705500Y-87947500D03*
X54165500Y-87947500D03*
X56705500Y-85407500D03*
X54165500Y-85407500D03*
X56705500Y-82867500D03*
X54165500Y-82867500D03*
X56705500Y-80327500D03*
X54165500Y-80327500D03*
X56705500Y-77787500D03*
X54165500Y-77787500D03*
X56705500Y-75247500D03*
X54165500Y-75247500D03*
X56705500Y-72707500D03*
X54165500Y-72707500D03*
X56705500Y-70167500D03*
X54165500Y-70167500D03*
X56705500Y-67627500D03*
X54165500Y-67627500D03*
X56705500Y-65087500D03*
X54165500Y-65087500D03*
X56705500Y-62547500D03*
D12*
X54165500Y-62547500D03*
%TD*%
M02*
